<mxfile host="app.diagrams.net" agent="Mozilla/5.0 (Windows NT 10.0; Win64; x64) AppleWebKit/537.36 (KHTML, like Gecko) Chrome/135.0.0.0 Safari/537.36 Edg/135.0.0.0" version="26.2.9">
  <diagram name="Страница — 1" id="chSVSeOplhg0m_QJ7WKa">
    <mxGraphModel dx="2498" dy="2103" grid="1" gridSize="10" guides="1" tooltips="1" connect="1" arrows="1" fold="1" page="1" pageScale="1" pageWidth="827" pageHeight="1169" background="none" math="0" shadow="0">
      <root>
        <mxCell id="0" />
        <mxCell id="1" parent="0" />
        <mxCell id="z--PhjPwZr3AQKjl1RHm-1" value="" style="shape=image;verticalLabelPosition=bottom;labelBackgroundColor=default;verticalAlign=top;aspect=fixed;imageAspect=0;image=data:image/png,iVBORw0KGgoAAAANSUhEUgAAA84AAAFRCAYAAAHSvcRxAAAAAXNSR0IArs4c6QAAAARnQU1BAACxjwv8YQUAAAAJcEhZcwAAFxEAABcRAcom8z8AAP+lSURBVHhe7J0FWBVNF4CXEEXCQEVQ7O7u7v4Uu7u728/+7O7A7u7uxu5ERVCkpATp88/Mmb27e+9FMX/UeZ9n7k7t7N6dPXumRwLBX8FnM9rP2xu8iYkvvj7e8CKWOwRGkZ8nPeo/2/Don/fwNBkdGBoJmy694S6A7BIGS5lrwMtr+5ld5ro/txB6jJ4N8GYfODs7M/f88b3ZkbqpObxulsYdzFxIZMAtfl4kehAG9GjPjtQ/4NZ2Hg7QtmkTdnR27sOOMpum9IOGjTCOTK/W6F4yeSg7+j45z45yWgD4UNsSd69xS2BuV7y3dT07MP8XB+bAipHO0LbHMOZWzgMYu+E2BJDbbUL9ooM0YbKdHpk9xF0TvuJhFLcBxPBj5loD2XH3y4/s+DPQZHSBESfBsdocCPr4ibmzm0gg8cymyHaHYr1h+YNI8Hddxdxj+7WHK9Pxz2x9xg6a8yhq98DRo7kN4OrSBtwWDvUzKHHMG8+ABdeD4c2B8dwHmXjIAz56bIcmKTCuJJnCQJc7zB7z7gQ7yow84sWOknVm8hsNB57gK5ayZHsYQe5heL8WkFJ1X/OufoKhWVLD5BkL4frcltCrtAS+D4+zsNcPzrHjaHJepeHHwCscIJ8jfz5Rt1iYmg1PY1iYZGkLsU83c19k/o0gdpQzevuoepCYxP1lGU0JCArjNkWiKT7kRWQ3Llnzo2zMoV1xex4Lue0ZBlYF+nMXQuOqkd3mSQuyI81oNebNZhnN6ElH3gK9w1WPIpg7NtCVHSmSRRZu0yLZZIEKXaaBlKIZusm1TVPkYsfUxHjePsT85YymyBlNWdQwFYT78jeYQDOanptfzmh//FqA30U8Es744nWoCby5mvkNqJ2eHU2JAFHkjKbcI7L1SzM6vsy/GcptPxf9jI6LoI/KC/o12NGM+kFIkgM71h67jR0TEj/uXwoSNCKj/xJ+akZvP/eC2wT/b747o+0qtGHHEzdfs+OR83fJbyxsXuPC3Gq8VeUtFxcaHs6OslHj4rKOH11YoeX1jTPMff/MAU386KBX7HjnVQjEBOE9qHHZigUtGfV1qFZ/cnyfxu9zuKxZz20AnmHR7EjTWMvP37r7EjtS1nE/mvb9t0ohK2XRTuw496I3+D6+xuwHzjxgR9cdm2HzDqzGuqzB/x/z4Sk7UiTrKtwGsHcbhr8jhbgd5BouLltgA71mCNY09Il3RqduuhaydtBWE6LfX+U2gH5182IJlBJwnx3KDcY/m5z7d6mMpWJTXhrd+BLrlPSXuh+/xJs8NqkIO8rQ8vWlS5dYnOqkChZ4dQ7xiSHXvwzhT7frrhv5fBc7qpEcyrFz98/FujlEPYOn28cwqxU5b3kd5Vo0nj4hISHQpCStnpG6uMcTdqTxjtD6FbwjJoD5lWq8Bs4sqQOpTZVHSrNofBlrdHD8+JFC0zEn95C+Zk/iioDBmVORgzcMrJtbcy+SaWI8WlUE7zfKy1xj1GZYeOgSpCNpSJIj9wUw4c9DjaFPHOy68BIevP7AXcjKW1jyPjK4FHm130AFW5JcVAjzo3gTUWwz5SC5CVOoNeEQyxB6ExNbFtZlDkXOaIjF+jtEvccjh2a0z6dYkEwcoMyQDQAPljJ/KZEdy+gOZVJByIsDBhmdy3kyy+g8Df7VXM+qQGNIRNy7RleFBbXk6h1irG3q/c29kNVagvAgRVowoxU8eF3pMfv72PhDK2T6Ga2+j+fBEcRtzvxa57TBjCbEvj3CjpQQ8uFougirb5JNDXaUqT16C5wm1bis5HxJSgsVxx0C+p2h6Xl5emIkjnLVPwz6tv8uZKlNJfrn8sdmtECLyOi/hJ+a0Y/cVT0fgv8r353RVrlKs6NfCJagfQOwgObp7s6OatQFHXceTo+y0RGLVReKp4fSm0ZJVGkwaxX3cnNDD4K7uwc/uoPHWz/weB8IUUF+4OclX+MNePpjFcfd3bD6QcMpEUGkZEOg6fgGhoHPO7lAQwqCpEAp4+lF4+G/0d2/JxYg5f8hH2Vkd5DPW3aEKLyfiGA/FhYTIVfBfk5XZbwzOn3rDVCi327u4oS95BaAzf82ZaU9RgDWC2uP3sqOSbj/8gFYakydBKtX4y9g1UQudesa+UkJPjISS670mKXkcGbvVcKJxEvJ7BRJSgqLa+ZidpoGfUSpsrUEm3ITIfrdPmhTAK8rSZaQphtW9SSpKPhER8Knl8eYG1Eerl3uUbC/H7689NpSqkKsDM3+W/Rj5h8dSe+blJhNsNpFkexJzYMeJRN+lKBwe6zrAmj7BQoP2M/SdiBxRjbMTYrWNyHozgb+n3nN4wcT74wev+E67L6IjRMyQ3ehJG1omZcds6vqkJQn5J6nHXnN/nSfbc8hZSLM4F1jauOD4+iqVzIko9UMPvoOtj0MZHFYvHeXmf+DDd0gxusUs8ukyt4azFKQasqTjSyjyzToQs4hGd1rI5yb0pjYi4JDxcGQ2Qyvl9tSe8+7nobqMpqSv9UKaDDpKLtuqxyp2NHv9nYSEgFrOxbASATJvgzEeJ4m4UpGx8ULUl+ktTD2f9L9AxB+l2U08n/O6ATPhwvscHRaZXb80ag/3b8jf05GCz6LyOi/hO/K6KpVq3KbAvVb6+oPd0+gzulO3CxepFLabV23Fju6k+Jzi5o8PIR2hhhPU/D9/BCJ7tlT24Q3jo/VqpOPlDzlQkn4S108epRyVocWXXuCFSnA0ULJW1LkntM+OwsX/Hi+O6ODeM0kfcv/0EKgGd1h/CaWgbQKwSAZLUOrUbOuB8KjMHKeBS9JE8JfHmBHwY/nh0i0IOEjMvovQWT0X8JPzeg1x7HJUPD/57szOk21ruy46xxm6tZDtHkyBhbPxmk4atz5XBzaZTFrFg0PY0fZqJk1eyEe9fwPblrJjrvverOw65txcDwb8BHGOww4O089gB0uS3RpyMcNe+kQKJwAcO1VEMxasg9mkzAaTs3cTcowngdnlXFiFB9y85sP0P+qa5kHP8WaYIl3Rqdutg4yt9vEXUikJ05ToXSslEVXepbHjJUZiFN25GkvzUumY0fWxkvMTj7+Rm7rdn2AbekjciozP+Q0Dx1SBvlRvzrLbrPjzDI5QEpbA8P9LqniRUON3mvhrnuQLg35WOSfKSze+KZ05kQEOb8l809XbAjYkjhjKmeDzDzu2kEFdWn6Hp8Md8kLNb91cl1aXofGwUPsf0nQ4N3GgyOub+D5W5wzJLPxAY6bOjGyHEQFPIXqKU2IVCnD3/xI1ct5xFbyUMyh4nAcxEcHBg5vlE/3oCi6To1ITD/a9wo7UtTxKB/Ju+FUexj8s8GNhS2ukJsdr6zoyzJaZuElb5bRGasM0qVBjwXyJ2MZXWv4FuZmJk0j6LftOYuTjMc9zoet0YyWoTVJmtEUddfDH5XRgt8bkdF/CSKj/xJERv8liIz+SxAZ/ZcgMvovQWT0X4LI6L8EkdF/CSKj/xJERv8lfDaj6RKGyiyoL+P94iy3CT5LbJRuiUh5mcgQXx92/FloMrrASO30FjXOzo35kS7TGASN+bKHg3p1ZEc10zcch0mD2+uWRmzcpA14X13H3OEvtEtNUr91p17DhtsBMLwJxu81bi75DdadL7NwyxkIvItdpTRMDl+yD9f5YEs2EmbuuwMhvI+4Wed+7Ni+33h4tmcmNG3Zmrnlc2M+4EJxmB4uD0mhp8txAt/gyoCyO9xD6SWjfs94V1ZrlgaJ8+m5Li496taJiHgGkmlaZj37X3F2lArikhv1x8vztH4OuozOPfQEZO+4E9JWUEZz0i681j1xLcw7Z3aw4+gRg8gvvn3evHtOqj8Ju++iadchLqpGGb0b+5d3raEZB5Co8FAIcZ0Do8dqF4kb4nIPhh/zgtV98zD36L5tya/S3bm8bQp2bFerAHifwOUlbdk8rqTM3nXWFajcbQO40f5OQolRdHIfjnJYOhXjd25cGq7OIC9pzHu4vnogW+rRg3+usBsTr0f9KfKXrPEKXH5S7tKk4R8fbQcLdg5yja/mIUnJoWr+ZEQ8ldUMKXSlE4okmQEE4DIVuozO14Id4ZMyO/RnoJHoNBWncZuWf5JI4PlQGWQgZ7SM1HCK7kE4EeN2CWdR0oymfleIJFHkjNZn3A4PFm9pb9q3nAhaFbIjvvjgpTR5WJhZ0lxgT440oyUpDViZY0anTCaxjB5bPzmLT6HxM7JwCVaOaAmRPkQCo3wwoxk4uoSy4ORDyNJkMrEpLxY9T85oydwRbr0NY37UUGhGq5Ezmgp27cLkPgJw/VAZOaPVqDNacnT8tRkdf36MPjk9F2dsVHT8xttQ0b0SSj2l4OCf+xn8Hfn+Jyz4LRAZ/ZcgMvov4ZszWjKhs/1Dwb7nevB5iNUNt1tYPTv1DosyV0/uBJe1WDBbw5dM3LFuDTtSdt14w5ZQ3H4OZ1LqQ8Pk5RtPXMXBe9QtF6WoPZjUgy4f3cnc1O6yaRvs3eiiW6KRIqch4+KyCvZuw2G8eI2NcPQGFpnWbjiki985q/J4QrwesaOLyzZSsAuAp6dJgSxCGV7sdn0fO8rnupMCGqatvjZWUyJfY2Ft/6nb7Hhkh3Ivaqj7whPj5aGjFx+S+1AKkDIuLsrzVfNdGV120H6W0RAZAO683kqXPKwzH6sQ/RtoZ0fS0b0Pb8p10EjIOfIAPNvRjbn0l2eMiogipdxk4HN+ASvtqsNpvbTBoptslb4d59FfMi8GL8hzlFJmgALJJbZuSt4WM2Hb6PLsXH57sP45voRu15XlLSXJBoq1m8/sFrbl2ZFCMzokJBjqTccXGEveaeDSyU2wonFGuB8EMJkPF900DJealEvmAxsWZkc1l6d35jaMp/5PbdbfY8dqo7cx/3m9tct/UOhylbLfkc3ziJzd0KWRlvuH+WpXDJSJd0b7BmrX1pAvSDP65KswqDlgA3iFkMxJlIGFdSjjQDI6B4sDkVif9uQzL+lh/tVATUZTLHPiYjYZa09kaUhSPpbReazJtYgUydBMa5ka1wqhy4kGEBFvNPEs0DYmyS4TFE4hQVJ+f6QuhEdOGtmf8I7nPs3oWhOuwPgaDiyjPfnyirJEp6k9mx3xnpxYmjSj6XKXtG48sHoaltFWKUuwOBV7L9bUs729lIcfSJe6JGH1c1gRFx87TJBHDNOwOoNXsyM1Xre0y17aED8TizTQp1oWltEKUVAumzX5yqh3LFFQ7uYnoC/R30txO7xdSbKHCVVxS4SvpTRdr/QXs39UJW77OmhG/yh+/b8W/F8QGf2X8Ftm9JnT2rZkwZf55ozG6lUslro/BTK/yI+49ufel1hw++DzFtzfYBVEXiLx3Rtlsbh3AWHM/62fdk5XWFQsvPfULrH4xhOrP6EflLW83V9rV9xXL8tI+zf8ApU2bTXqeHKByN3DixUSaZgcLpfUP5KCekQQVnMC/HB9lg+hkeDuRWobJC7vSzHAw0tbNXrjrayN+o7/Z3r+J3KhGF5QDQyNK7Xv47syOnOjGZjR5BHdCME7NSMFiFLjcWFxY9WrKL70I0Vd6paXhKTsfBQE5RwkyNV8NPPPmBRL2DKSlBFaZEnEXQB3lnQi+UXqlZzAGwuAvgI98mLJlSKn731yErO/Vy7H4kgSzvSUkWxrsHg31/TgPgC8Mw4kp8IweA+umijvDaa+f5mUhbEtf9SOhxDm8wQke3TTReHV8U+T98GLvDiUf3coWyv8SL49o/kfpBlNVxSq0GMJc0umdixsQZdiSvXqE968vEo9fWf7b3tlUL0yy1KOHfc+D4PyfPOwR3tHwaUl2LcrU6HfNkicshjc+BADtSceAmsSj87SlKEyari7htxxabg/Fma0BM8PjOI+6Bf15hzJQcN6Kc3ofltx2wX1JnCbHihfpvyt5+oymnZfFkqTiKW5d0w1aOSovKSU8x9oDz+pxllKCS+j48OPrl79TCQpN7f9PKTccjcp0rJMGnakL8DP5udfQZAgEBn9l/DNGU2Xcrz7Nky3pGMncqR22d2gKa4SSN2tey2AC16foE9rDLvy7APEvNdWkWYffAltneuS+HW4j+BH8s0ZbVKoPpjwbYeXbz8JecgRdc1Htg6ImkzFe0PN1l3A3pbEcSrEloiMfn1EWVoy5D50WX4P9lynY860BRXBj+HbM7pIQ5jZvizLXJ/H5zQZfX1xY1IxVPbIohlNt8wtmRnjTGhSgmW0zONQYBndes5NkdE/iW/OaMHvhcjovwSR0X8JIqP/Er45o1mnRmwQawJ9cx23FnpwYS87nvXCts7Te1bDrLnLmJ0uwUhZOU8ZwO9ywY0tybjiMG6vq4DDfeQlG10OP4LXV3Bc1YWHtKNA2/C/fikOA3pHvJcvlJebxDhoR2jj57vrJ5h91uxF5Fcepo+o464/pCxqx+5jzSnwuXkczm3HOLNmzYHZ687Ae9fDzJ3Q+a6MrjLqOHZqhPvCO977QseMNViE45iMdWq4npGXcAzXtHWrl4Ck3FrYkNsA0lcZAlPa0CUo5UH62mFN9FzJqSrM3n0IUlthyX7VvVDYMLQ6j4FQ/xxNJ8PQkpLuejufhzP/uGBpSyYg5e4NEHoOhlTGuPQck/wDAIJPMndCJ94Z7eGrbHZNkR8Ozei9jwKg9qDN4OYbBlJiXBO0aeHUvFODdllht596zNjy2yEGnRpWuWuzY6420zUPP1fbjXBiYiE2RuuDG5VIbUZT2i29C1dINc0pmVzNo2i3QQbAbsKPj3AemcJ7uLWiC7eT/2ZalNsQmp5kbgbgdYxltH3mCuhnRvw8D/JYCZt4Z/S38Dt1amSrgj1XB9w+kUy0ZPY/iZ+a0YKEg8jovwSR0X8JIqP/EkRG/yWIjP5LEBn9lyAy+i9BZPRfgsjovwSR0QLBH8Q3CzSdiXLmzBlmSjpawJyryvyx74V2DB07cQbOnb/AfQSCb8M8b35wecznWkZ9ZO/rvK654DR/dym0Y1I9G5K+f3Qs6++IUYF+H/iJLf+af/gJyNxsHazZh2vnqFFPLQu6uxmq9N0GL/eOh4HLTjM/uUdYOZqTXx8j/hLrnfZ+dALqTNgNN+Y31YXR3mdKenJ86BMJ948tB+sig5kfZcpJnNI2pYkDHGPjTujqIKmYHyVR8XHsSBelNFy9Bwm8qawDRFckpcMh6KqkFP17fXf/CDScTseT+IELLpEEbw6MB8kUd9LUj394cQ844BHLFrWkc0MZvhfA1FSOlxwGbsJnS8+hC11emt2JPQ+Kdbaa3IbI6Trx80slleANfe8+vQXLjCWJJQySZPsHIPQF1Bi9XbUg5ieQ0pZhNhPbbOxI53NSUpNjrxVnwf36frCvPpz5UVbiDEIYmkW7gMj1uS3ZqJxepfH88PcPIHtTF4h4fwHKdsGFQPWfA6XS8GNsYU22VSx8VMWhK7lQ7uoW2pSR49Sii25SQlxhL5c8Ocw8pRM7gtt2g4U4m2XGODlU90Ghi3Py2Z4Mtkgnj+NxYjZ5jd7/WQJNyd5jLzjWnAtpK04Hv4BQ7qugFmiZQ1NqwrpTD5idLp2jBh+YD2xxw0fp77oKPpA3g/rLD5cuERx+b6Wyo2fwDdj1ksZx5B5yOoi8dHCz7GZw+zUOJVGH0xVmKVSg5cV/1OGUkvam3KYI9MhzYVBn7FG2Ai2FniMLmXnjGeTXDxZcxxm4VKBllrdNxo6SlIQdKRMPeTCBptd3nn0dJOs8bLVaCl2xtkE2Swi9StPEJYop9HplzbT3Sak5RV7/OhjGn/UDOxLvfQgOjJMsM7Mjgwi4SaEBTKAHDhwIfft0ZyvXXlysDOWRkbcBpijPxg/mXcUhPDqBjkUh1Al0GYml3bNLa0heohd4XV4AY1bhjIwSuhWFlLRlgQ6JCoXDbp8gv2rxV7rG2MCezQwEOkXRiezIlkumEIFe9wTfFnXakmVG6NW6up5Ah0G+Wh3ZPVJDryFjTKCpMlhwKxySZK9Onp/bnyfQX6JzLZzgrU8r59rgGRoDG/rgfswQ7Q+1auE4MCrQC+5EErfq3NgQ4iZahVCrpqKRNHEIM0d0ggkrD3AXsvaSssRFXRKfvmhN6ivn1euDe1eHPd3N0qtVSzt5j64sjP5oUiamjyMShs0/ysIPyQIQE0zC5XukaQTBvmc4mV4W6Fq16rIjJfD1NWjUqjuz1xm5EgJurWUrHa7oj/fWsC4ea9XCwY+1mkxnx/m75N3z38HiO4aT9QsO3gDN6+H/lJGfk3y8f3ITOPNrP9kxhflr/3eYLi6FfhQ+vr4Ew+aql6UOgr1PsJi6qmNzFr+OM+bnsz3TmDAsGoTPrE69+syf0quNM7i+DoL7m3BIlvo6w1xuwqc35+EYX/KkZ2sa5gsDluPoYQi+D09Uf1mSErPzZVN34h5yVP4HS9v7Gkw9Sr74hI/Pj/HRgIj62hSf27vh4BMU0nvb+uk+0JRaPXB9+j7yORFecMnLcEzi78A3C/S34Q/rH/6eDyou3p1ZyG0/huBXZ2DXTWOruAP8M20Pt/04SubMyW2CP4FfLNACgeBnIgRaIPiD+L8INC4riWSxMOGrDn4Z2hDSs+8AGDoUG7sE/186Z5VYXsgmIdKgQHKwzlwChg7spWlI+9nQ9eqVZzOF+/58fso/dGqzkduMIwu03C3FBDrkAWSpOBD2TGsHh99Gw/BqjjB65Sk4u2ka2GSpT8KfgbmpCYRFx4JDElPWyEQnaSayywYfPa6AZJ6BpUVntsbGxrK+cdrw0bRgCjjt9hHSJsVryZlqRY50EieN+3R7V4gkR2qPO9OjQUriCLFRQbo4tOWUnuN9bj67n6n1HGDUmtNw78RqyNwMp2p3q+7E4gRcmc2mdG4did1HFIu0tSH86Xa2ecDY2lngv40XwGW0Myy5GQqRz3exHSModNcICt05gkJ3j6AMr+IAkiNdTTOS3Fs6o/ffulhibgMo0nI1zKhrBztvuEOupBbMb3mdIuw8PNeG+VUbpZ0BLO860aBBA3aUoQK9b98+Zjw/4M2+2tMXGv27BqIjAlTPiXctfXwER7zC2aYFFEnCXRtpvGhyfXtL3E+ObmIgr/Tpe0GZUCvHq5oZF1qk9/xvGWu8f+aj5cHqfoBNZlq29S8NnWZuBfdbe8GmJC7xakreLd+wWEjOrzU4cyqW7osru6BQX9q4GgqW9rmInzK7mh6HrjsP41qWgakn+PqwHClJAfZcDhxUps3T+AGfImH79C4wfo8b2zjhtC+GZdWlSZ5JmBs8DIiFiNd7IW/DcRAbHaG75peIX6x4cvnRewgNx26UJx4B4OGj1w/BoQKtvkGdho4Jh6ML+sKoPbjBoQzuShEEfbfKrcAABXstJgKNfaoUua9RSpwG3vv4QcTDTbqlZT/4eEF6K3yBabryLhtUoCl0ZjbeNYZ7eXnB2c3TIHc9ZXfOfcOVa733xkYrWQDobh9UoGlfOz2XmuAAvtEiv1bg1Tm6Odq0uyp/MuwuowJ9zcNLF49CdxD5kkAPq4o7f0oO5WBZtwy66/oFfjR4uSWr0rqPJyXI+z0UdUzEWqupQMvI/6d8v+0srZSJ8Bz1NjJqqECrkUxt4dDYKjBm4R52D/J/ot2O7P7czisCHe0Gq2/Qt9kbFt5Q3pPiDZbx7Wei4Lw3gFmm7ko6Frbg+Z48V4+9IC+IO54IdJxEPIK2y+9zByHaCwqPPsjSk59XSBDmSonm2HVIZ/E3c7nFBDpPnjyQM1smyNJyNrStnFp3TkAQduNq8sxU+XBSJOsq3AZwZ/1AuBuM8Z+44dLBNUZtZgK98yGmmUn1rBy43fPwv9Bh9AKibFABxYf4xfpK3L2NC7KMra0ttyHZBm5hx95NykGBCry7izCwZUUoVrMdd1Fi2LkHLmF20tn1Ef5ukDyDst/QvBEdIH81uj9vFMw8jLt5prNLDnM24YIl6msX5YuJv9jbXyfQNJyaHEWrcR+FZ9f2ga0d9omnJXEevsfebd9Ly3QbcA1tVgVylsPuqNIOki49anSaKuQhrLyFL1L48z3wml+8WcW80LQfvliRbvs158qmJnkR6LVlbHNgV9+rG8dZuLEn/+HcDHip6uvK7pgSxizaSR5nCKTJWIz70v+O/02+1vqjN5k7VTrszqF+avoUVO6r3TBl19q0yW3h9L230KYQxre1xa2DIfQJnCDPbG3bvOgOOAs7WfdfBKQkaRy7gVpu+zj8gGRLI5+Px9VTepBni4NlOq9GQf2vujJGoVwe7f3J9GtZA+wy8XvgTOnWCJwKVeYugMy1e0H+tMnhmht2fo3Onxn/W/K0ug/knTPbiZ+drtuQCujKsW2g51TDDcbk52KbPCXce4NjFl6x9wffAZvUVYkmvg3n+Yingvw/2triihHpuDs7uacdp+7CpHb4jufj/nHxUwT6V9G7TiZu+314dGACjF+HQw6/hcrDP1+d0Wf9sJqw7ybuECCIm/TVunJb/FFr6ITCby3QAoFAixBogeAP4v8i0Opuq3KpzePdbUXXm8yVOy/kz5+f+yR8+lbNCJmy5WD3/CrIWFvsn4UkKWPjBb+enyLQBXror62pRRboxLwOwgQ6+h1YpK0Ew50Lw41AgGW9ikGVTlNhep8G4FRpIECoGzgkTQznr7rqWmxptxXdiuHsrnlgYoONO7Re4+rqCin45Ib+VZxg6tazYG6Cbrnek8Ecu61o3J3/NYIr5HjH7V3c9aKwN2yjNQrdbI1C4x49dwUyW5hiw4nvbTC1zQyXjm4mYbjbXoECOWHyusNQN18y2P4Em63NnCqAx+EJcOItdceQuGbgeu2c6tofYQu5H3pvqbJhI6FNOZyoQOPQzdraFJTIc8TW78PT6xF/bO1N02MdO8pIEq5jSs+j6en/v9D7KyFjtfZw9fIpXZhkmQz+23AIUpJnRDefpOfNbp6fHV94BkA64r987ylokC8V3OdzGGgL+bYFfVkaq49d1aVVJ40ZzNt6GDbPHQSZKtD+2Ai2GdzUaung+gMPlqYTvzfWU2Bfmp0nIz9HGTndfqWsIBXfME6Ghqn/o0WKlLDl+EW2myLl2d6RkKF8Z9i/ZiqkKIfjzff1qcPOcT27nu0gGHRnA/jx3gXk00/bZO5ngP/0B7H5DJ9TSAgKjYCbz9SzTBXi7Lb65AVjWpWGRdf8NeGJmTB+gGG7X6AHIXe3+Zpuq6I8Pj1v+57DEPNks67b6sz+zUy7U2h4Rm6Pq9tq8+bNMKlPIyjXA1vfGUSgB81Zy8JypcDzSzccxdzU7Dp8CpIlQX/K6oYF2VEyV1aOlmdh/VcjE3kGZsw+qngWdqT4nxvPdlG8s2oQehAUgZ5MzrcEeLIRBboAuZY3ttIXarsRwwi21Xqy+5GfHxXo28v7wBZ+n1u2bgN/uUme8HLvUKjUdAC8/RitnJOqFDtSkqfryI77+ymCZlmgpu5/b9lyAM7Ob6xrCVY09FtYcTcccieTYNq85cyH7uxIBXrUcT+Q0irXUM/ck5JlZ+lmSizBB5IpxgS6X2lcvVveAZIR8wGWXlYm61CsKisNXfmauLBz5fvesX0b888iXzvkpk6gl2/YDJs2ruXP4y8WaJmDV7UbAOsjvzgySdrjrKhSOewgSSplR8hyeVKDTTpV8TrqPTt3wNQNzEm7rTyv7iR+SZmb0qRyQUjsQEsA4TDtKN4HPadx19E6u4zDgN3s+GRTG41AU2Nqjf28OkJfw46n2P9YyEpJg8Zt1HEYdwGM6NxQcw2KjakEpeph95ux6YobZg1m9ne0P+TDBWZXGwrV4oyHLmywRKNMsr/hkZpWPSdwN3aD3Dm8nPlvvWY48YP6j1iwH+rwDxXdlTN/KnNoO2wBc1N2dcnHbQjd5rVQTaWLcUK3BpC1LJ3LbgbFMlrC8JWnmP/7W9jv60YeHT1Sge6yHvcBlrvx7Jk/QuNQU7pua51bjdptmhW3qNUR8JCF77iEw0mk3M0gNSlNjFiE+0BQnCvnAsk0JbO3LJ9Odz3ZBN5crbPvvk2fVRgM3/SIxf8d0D6t34zOFe24TfAjkSRcsOFboIKQUJDsa3Db38NvLdACgUCLEGiB4A/i/yLQdPNhSqbE2ICiX0yjmxFT1P7jjnjB+WnVYOjK88QVqAsrrIpDNyqG8Je65WPohsUUOe6hWR3g6NtYtnnxI746RnoLbRx6pJsZd8wlAa5YRv3EpsaC3wNFGn4hJmlzwMSJE3XdVrIweT88BlnbzzEi0B+ZQKfQuQFq5kS7MYE+zteiKcsnD+TrtZgdZahA4xB5gAwqgZavRwWaUjGrDYwn90mXwxEIfgcUafiFtGzZkpnN57G1U3YPmbyCuYcSO4X6IeGw404As72+cQi69B7L7P631sGkNTjpgtJvzBqASB9w9cFJE2P7K62wAzq2gxOPsFsjxvcOePKum95t9a8FsOLUG2iucrds2YbbBIKEzf9FoAUCwc9BCLRA8AchBFog+IP4vwi0enKGk9nXrSk2atxEmDp1KvcRCARqfopAp2uFQzPjQhZozZpiQbchT+0xcHxhD9j/JgoGlk8N/225Atf3LoakTjUAQp6CiYkJGzOcycoc6OredHJGEof8EO13FyQzXLlCHktcObMli9swbzK4+i4anGzwWnJLNl3GRx7L/WpPT3akKC3rekR7gYkDHYscqYmjtudqi4sPnJhYiB3TJ5Lg7PNgWDK6CVQdspX4fII6y5Stbygzy+RgR+r2CI2FKe1Lw9kPMQB+l+AK37DEKRnGlc+hS9TU6L0WFnQvCgfvarftkaHu8oNwJQ06jr3IP1PI5V+AbXY6ekpZe6xJDlx2SErTCD6cxQX/KZIDTuqw5fHk+KGus3XdeZS1g3DMOkWOI+XujUfivhsOMKQy7UHAnoIzc6oTO+aRSf4B7Ejj6XZLEXwX2rfgO7n53BcCQ7H5+O5LP/DyN9xChxLn5IzYKLjgMgqGbXuhCcc1xYKh9xZlTG3h3ks0kzN0i6xZZ4DgkFAIf7BRNzkjNCQIsiXHyQs0Xbm7LK7JGUFBQXB9/yLIXlPZ5mZgFlyYjvJkQyvVZATlPnO0WMnO3Tcax59LUlZ2pGC8uAU6VdNx7FxqPpL7pwJ90gvd6Wz5fyPnpOHnUYGm9K+fB4qXLK25Dwp1T3Um9xH9hO0oQQW6Uzr8b9TIy+jEeJ2E/W5EwO2b6WYlUfofeMOOskDTnoY5p/1BSlyRuxEq0HKa8j1IufuCZJoKwOuYTqAh9iXbXyx3p026eCb5B5MPsT2A50Eh0D8IJQd/ID4Bn98dw9FRWQeKUmAETrcc2bE2lKmjzJAZ160uVG6MX3sZeu65e7ikDp2cER3yDtLnURaxWz2lL5Ru1IfYomDOERyknzNjelh14Cqzq69d/j/s8np5YKhOoGk4NUUq4uAXNS9vHQfHdIqQUtTpVei7ix3Pz1VmWDmXKwDdxmN3HBUKOX21kSmVKxOMXsYnEny4Djf54JdiOTGOOm7LUdshbWplAok6jCK7HR1xLaqaHXEV0keX9hI/XHUzNvAubLuP+taxQGc8OqYF88TW7HzZHHDD/Cyb2vB12T5eWXtNuSb/0HqfhUfk+z6xCfo76cLlI37MgHxUnsoZIPgufopA/yoG/MNfCMFPx8lSO41RkDD5rQVaIBBoEQItEPxBCIEWCP4ghEALBH8QQqAFgj8IIdACwR+EEGiB4A9CCLRA8AchBFog+IMQAi0Q/CEIYRYI/hC+WZi9vb2Z8fHDDct/KDERLO2CBZUpeQLBt+Djq8z0k99Z2fh9CIXQAF/wDdROIqJhvyPfLMzFByyHM2fOwKmj+wym630P8xtkg/4Tl7K0jU+4FAjix6UZlTXbDdF3ihpJSs2OV2++gTk1UxO3OY9BCDj/Q9/nX0mcd11i3BnINVRZQVOfmotvcBtA42zKFjStmjeBeVtwHyPK7KGdYT95aBRnZ2cI9XCFobOUTd8iPrxi/rguJ7khc0e4f8IFxsxR71gZxeLIULts+GaH0ITYj93FfZrU4fufhJNjU+ZvDHVcSmt+pDg7T2bHcP8XLFze041ei7rbj99Pji3g4qaZsOO8sjGf21Xq34S78Boy6yb2gRWHXkDQ/W3Evxf3leN8hOXnXqEH+c97+FRGyr88vGV3Zd8surgCPe/lB3k2M0DLJsqzpGHUnHtCZx4j88b1gWV7XbkrEo64xUBLljYin0MNpcWYhewo4+yMe3LJcfiCqowe7VvByOm4iAIEv4RHgTgBfUAbTEtOEyAIxsyj66kDjOnRXpeWFvxv1PQZiwtkyG5q9tzCjQ/7tG+u89OHzue+NKU6SUmLJKXnNmDCvLA67qlFqZHV7M8S5lL/noUCI09Bnr4HwbHGPO6rpfayO9ymrDIiP4QTi7vDQSJXe8fXh003veC/tsXZC0ZXBJm09y48PLkScnehuw96Qbayndg58rl0N8Z9d96C/+MTkDh3B+6HW6SqH7Klyi77D6yWSzdJf2wNdXjci+JLSXFzs0Q8DRt+rJUhKTmvDkC0J+SqiKuXyNeRd62kUL8HXlGwqFtZWHErEF5tHw79V+OLqvtPJnYwdPsDtBO/Xguug++Z8VAhHU/H/wqY8q1uJVPcjXJqA+1GcNXIeaW6zoFI74dgaoPzmSUzfC6FMuDKH8n49eT/IiXJxI610+POjDmsJHjoHQ0vru6FmiPoPO1w3T2a8iNF9qMkrYB5ICNJuKmbdYVp7ChvKief8/jCSui5i3yQ/G7DBXItSn691VVo3lVsvQkWdkgNT/xR4NXXRLx0eZmz0nB2VMeZfuQ1NCpqC++5pBqeT+696Bh2TFYHN+mT0RdmcrNwzguvJklpjab1O2Bw10O3PGCCnG/wMXCqvwzSVpoOuevM5aEK9A8zY5ZYs/QMpUPtQjD48Ftmf3J2IyTlD0e98oX6gfm/uaNzq/2p/f4q1Rf3w0U4wXcGpR8GLVFQNKM1yBvLstUwOHRpm9GjR8OZW1hCUJO8fFt21Bfm2nMukvOIMHN8X9/U3ZtWmC24jdhtanMbwK3T23Tx6R7N8gdl+Ia7OmH++BZ3uWyZSoKUiTFuNt1Oj8o1KFVVbs1//+QDdnxTAAr9n7rrJkZhzmyLwk79abgSJxxG8Aca6XUKbvgyq+baiTIUYPH9uWTphLkc3dNZ2ctbZlDn+lC89x4mzO0GjGTnpuH/DdMNgd2kSkqF+fjMxrDx3GNVmAoPXDWGYijMYUyYJ/+Tj5TGjC+15HZotO5joB9mKMxEIaVqxI5zzvga3stvgtG7nrbvCWRq6gIOVWZC3ga4moU+6mK2jCRZcVukTpgp6wfXgUehMQZf/yjvI9BlGi6X0y0LhqkfJLU/XNuYuwh+5+EcLzGqX2jzTGXQ4rYtDmFGQTq3dgyM3qHd/rPdalzQXy3MtdKidqTCHPF2L/ScheuBtXfCOFphxrgUyb4h7BlXG9YfRy2s05BEmGtnSgLBF3ABQ1mYaZtA/elXSekgB9hygYx0PwTu5C2sOFq1/zRBLcwoQBFQsAaWai5MbMCOMtll4TGzgYEDB4K9ucRKRpKUivkrhMO0S3TXaXLdd6fgHm/LVOdBUr6PcufKeSEoloahMCdyKMXSluOqz5GF+SavAxVMrsSRS1RUmCldq2SA3gOUdGRWdqvCbXELM6VKzpTQ38j5VIHQ+6OmZva05AwFY8JsbyLBsSGVmF0/rd+FOO961MKTkLue8SI2xagwW2LrczryMIYc9YI2GSW4TYov+6a0g3PekUwAt9xyh6dnXaDM0M1wbHgD2HePlMc/eekeYI/8SWHn9dfgc28/pCiB9UNJwk3P1Q9ZJ8yxIZCl3kBmpeG4qJBxYX5yfj30WS3XFwFuLFWKkGphrjwBN0qnwry/bw048pCokrC3uuvrF7M9iFSu6FMJtruFwz+OEviQkqPnA9zHGeNYQ7T/ZUjB1/7SaWYWlgqW3Q3TCTMlZXZlLTQZWsxuP2svRPo8BpM05SDi3THo+B9qL+U6eCyQlLt5MfvS2qFw/n0spE0iwVPfaHh6fiVkqDOShCjF7LhKTVZVe7Djfx0qgy/5X/rF7NHV8rKjvAd3lQwmUKLfvjiL2RufoVgxYQ5/BbmboLJQX5OiduepLu9lLfuhMMf4nYDmM7BdR/98s2TapaCSVcUPAsWYML/e21e3lZJ+Wr8L33zXow884zaFwFfXoWHT7szeZDgWzYd2bg5ztmMdkgrB+7sHYPLa48xNGdezJRy66wHvr24Dvl4frJkyAIZMRW2IRECtWqqd+AkNVO5bx1dC56G48fj8vbiT/srhSjg9l5oxS9SNauR+7DLowqjZcC8EnMlRplYt3E5nVPcWcPTBO3h7Ae+prioOLWbvXjgETj9WGpmaNqwLXiGxsGkoasxatbAIV6f5bHZctO8ZBN3dyFYldRmEaTnXV6dpmC1MM0d5Qbt+/3EfgO1zRsCUtceIzQeu8iIyfS6vAnF5Qvl//bsMi/OU6cM6w5h5dHVRSjgMICWo2qr/Q6HnyMhpnORVlFq1sDFR9t/GG/5iwzyhTj1s9KvVlHwAgtzgQQDmaM/GmJ463WEzzkD1Gtrr6HDboUufmryk+rR54D9w7DH/k+R92HHdG2rUNH7+J48LcP6NWhdrw2vVUrYt2j26ObeRd3Y6KVEQ1HF/J37pJ0it0RICNlzryFBh/lrUdeYfRfKahuuJq4vZPw4izAfcuT0BQYRZzfI+ublN8Dl+qXTlyZmT2/4ccubUtjp/LznjeEYdfsqzi4CpZ7A7T/D7k7BUpUAg+GaEMAsEfwhCmAWCPwQhzALBH8JvKczzhyt9hgKBAPnlwnx+emluQ+LbQR/ucQys0heGoUOHwoajyrhwwf8Pk+wVWH4ww0fJJTTo+zVg8BA28mzV5V8ztXHn4IzKcyHmV/F/FeZU5AGXUwmzi4sLtyFqd3oWLwI27MDRWZQtO6/DxX1bdBvEUV7ePg9rN+BQQSQa1mzCzd+iA15CCN/uEdMOYkfZ0H7XR95xb5B3dNdmeIOjH+Hdg2N65yJqO0WJQ4ethsOd13JfdgQ89I2N81zZ/vSS8n8PuXqS3yi4SYecEQ7vwqGwlFPkOTznkxZkIgPcwFee1RTqCXwsCbisU4aKKvfnwgbt7N6gvf/rJzezo8/Tqwazj8waKQNY1Gxa4wJ3PfFBfXhxTrfDpvyfXHbiqC3ZHeL5ELbuUWbayf6UI8TuyefCej65Bi5r8H4+ehA7CZONMezMta+3WnGozzmzAz9Eazcpg2uMpbt/+0bwlqfOhXsBzUlj16bCbJwQTXy1/eTdNxD0EgdX0Xf2FX/Ptm1aAxfu4KaKX+KHC/PFB+/htXfcgy90whzlAZmbTIEi/AHTBx0bq+w1LLvlYYbUneOfwRDicRUkcxyOZ2piBi+CYyA1yTT6os1pVghm7bgGob5uJD4O56MTQaJ9H0DyUuMg7NEWeM1GGEbrroPXTMuOAL6w6CJOrdMnNYl/8okv1M7rAM/DAE7PqQkR5Bxj90zHBcsUHH+Ux8EhpfIMsOlt5GGQ8rkmBmlR1GOUyw+hgh0Kow/huHc5TiZTCc4884PFI5xh0RX+FnCS5ejCjmUyyNcn1wn3AbO8OCpNsivIrvts+wDyeQHIzfe+lhneELe+fXZ8BXySpZJjWqod7Nu3Dw4fVUb00XuKjImFbpVzwmvynO5taKsb2af7b9nrg//FRRBJrntlSXOo3n0ueNw5SMLlCSGF4Bp/hSQTEzj2jnxkxpSFketPQXjQGxJO/wt/9qV6sKMx6H81Br0Peo4dv59mWVKCVcaS4PPkCEiJijA/68qdWRz5/aPbED949xHGtCgPp93Jk/I7q0tH/l8yVJjpc6Hm4Wv+PoU/glQFW5P4Mbr46vMaTj0Az7e2Z3Z1eGhkDMztXgUOvNKOaDOG9i6+k7d+H+H52yA4ev0NREVrtYSMLMzyDcvCTLl06RL+gZd74KHunfwE/+6nGajEK0ReXoqNkzJLqf4kvm0q4eXD25r4J7YugorjDumEmU7bK2ephFNhRnxh0NKD7D70kUy0g0OoMMuail3L4wCsPHGZnXvp8l44ipN5YOopzExZmDPwe5fvjx4vnVgH259hieDQkDzsKIfHJczDS6aGgz1xI3hJcsTrsueHHwsZeXKLfH3KmaNbIV8b3IydCjPl+Y6BKMy25H5IOrcfuTF/WZiNYVZ/AoSEhMCbF4919yszZ1BD2OUWwoT5gu7e+L3kaqKzq0cF5ksl32t1sCiPc72P3b/PhFnmzXNt3kqllM319VH/Zx2f7sKkHXI+nYKl1/yZMMvI47NtatAthOW9xAESp82pesb5mTBf5tMFT0/viBYOFWb6XKgZ07EG2JYfzEMAYkL8VHmCz5oatTBPO6tVKFvnDoaBO5T58nGhPJUfQLYOWASiOLbECeX6UGGOdtsM/dffY261MHt54YSLj0+2wivdpPdYGL3rpW7ONKUgFwj7bEp9pOa/O6FzWTvYcAL3bFZnuJfHPZBS5GfCTGtNy6/7xynMU/c9YPdhxucXy0hJcN6zjL4wR99fCY/ee7Fzvbz9IYyW/aNewXteLJNfrIALk9lsqer98PnQc71enII9bviHL83Dzc/l+zcmzONOBYNT0wWwvSsX5tTOeF1i/Hy09cKDw1BY555UZrF5eb0m6WdmdillAXbUCTPRzDSdO+d3g0mGhp8XZlUxe2wrHKFGp5u6v6X34KET5rf83uT/JOVsrLOrJ3gUcUJNKkmV2MSXfWNI6SH6IRPmyXXtYPmOMzxcOedzwqx+ZyjsPP8zcP4dz6f3PhAcHk2EORmPQT62/BxTq+SQJ08e3bUccvbBc4jx8X7PhFleRuLWkn7chugXs2kaUc92QfX2IyGMvDR5eJrUX05TEeZYcJ58VBfu5o75NuhXCzMld+dtkL6VcUGmUGGWHxBFKWbj0i2WsuYyt2fHorbmrM51dnorWHQWxxHLceV0BlTKAqT6qXMHvqJLwxB7rCfkd57B/CRTKybMcpy4hHn1HRSqshm0Y67l804s7Aa7ieCdmYbT5ShymFlSLNrb87Q7ZlY0g1pLlCxegtuUc01NcLNy/YUeNvapwY6UyqNpnSoUEpmZMbdOmElc+owC726Gwi31p6xGQ6WK6bg9BlJUQI0npy9lwZKSWphl6OwiWZgjPgawa6gxa6bMc5fTS18WN3jPQJ7B7pcf4yxmw8f7MO9qMMxvZA8nnuDcS104EeYrs9uiO+weE2ZZmwV7KvPKKWph9vLx5zYk+PYqSJ4XJ3/c3T0R7Cqj0EnmKLwF7UyB5jbVzKM2UCVAi8CWLMymOj6nXeMbs4+2fM1nR6eD89yTWMy2xNlt6vuhqIX5UyCp8iUpD0MbZoNQVsVTZqqpz1Nr5lQm6G+RDvOmWkZLGLITJ/d6+sddhdXexS/g0rxqcImv6kApb2uLltD3YEvsj95zlfzRg7kfvuetHwSXSX0gTZZi3EXqgxmcoWy2VHCSLxdEX9wU5JwX3uGQkqd7csNMsLXDZWE+PdkJy6/gZPya9vy6BFvb7Nzmx65JzYk7tLFJS0Ene5ixln41P4GtgzL4n8anxAS4M/vtVwHMncQK00JjbfBSU+Rzw32fMrtcIFHOU0wS1qATBrmccfbVnn5KaaFiXido2g8/XPpQbSlz/cBqsE2JAkrT9ODtfW57RzJhLu6E13LMgKuZ/NsKP1A31g2Fj3rSLN9XstSOQB4548CqieCYB+eXF+m7FR5u7ab73zQuOxbGmUq2tjj/ffHYrpAhdwVmp9ja1mXHun3XkEf9EE7xKgvN27tvQqBgWlXeVcXprxTHMobLQ/m9vAPJyXkrdxIBlInAfD53H/OYCvPHN1fAMSefF0+Q/1vvGUojVYHMaaHPpFXoIMJ8j7zG8n9Ss290Xt35NVtgcZ1SJEtaWEpKF0dmN2Nu9bmtZh8Bt13yxJ8w6LzoJtw8SPLKEatd6Qr1ZsdU7XB2oDF+uTD/SJJnwEachMqcy/IKZYTQh7qXOk2d0dz2dfzXUBHKr6HZsivc9mfTfpV24Yn4oq4zxxsizNe1bY3/d35rYU6alhTXfjP0i2Rfw+R6X3+uJCn1QYFxnNNbc9tX4HcaXIUwCwSCn4EQZoHgD0EIs0DwhyCEWSD4Q/gthfnWWRw88FsRgiOqBIKfxS8XZvVEC0q8W3c/PWfrQOfPnx+6jzcc3J5Qof+P3nPZqgm7G+1H8PHWMjbCTvD/4f8qzNkTSVBKJczu7tqVItXuXHxUjMc7eblVAM+3ARDorR3cEfkxAN54aP3cPXHUQWxkqG6GFaYdxY6yoSOAgsONjylX38s7f2UgyxtP1cBhgoeHEu/MglbsqD7X3R1nwMSEBukmLvi+82QDNmTeau4JwP+9+ny0a9N0Z33YPqprUz76K8/h4wcfCNKfKcHxfOMOH/mDCQ/GQTXu7nz3j6hQlr5sZOT/IUPDwm4vAzqq2N1d7/mrzvPg9ohAbwj2e8PCZBPqz0eHcGLCgzQz4iA2mk08oLwn92wAudd3vjhgOtgH78H9Tdz3QlFfX3ar0XcnZH64ML96HwLBofKoZUMUYQ4Fm9LdNLOmXF1ddZramNsiU1k4s2s+SDbFmZ9l4tSw+dQ1XZzdA6qD8+AFcPbwFpDMlQkLVw+vBqdGi1WzptCfjuTCa9ix4+dmTcnXoOTvtJVIhxuYWTvBtQsHSBiO5KFxTly4CpZmErwlctM/pynzc3W9qjs/H18IX3antJBg2a4TUMLBEpZcw2vTubf0fhqWdGDu7iUxrs+VpbrzEmfOBvI4OuoXSI71UmKYzLoeONJrSMX00HH8CpjWpQYM34q7bcjQcy9dc4Uy6azg1SeAK3MqsCGlV8/R/5WYSLc/PqNkufgzimL+rq7KxImS1qZw6CLmFTXH10+FDJX/ZWF09Bk+Y4xry49ZKvWG927XWVilES7suLM7jjqTCbg8AzSVk4g3sPUJCqucnszzfRPAoVB9WDi8MRTptBEW1nMkcRLB2X2rQbLA4ZX0nKvkOuqdVWwzdNDcn366+u6EzA+909DwKDh95y0s3q99YdTIwizvIKGeaBEZGcke3qc3h+CGv6xFPsCUY8ogfUomrqUtHZThd02nHeY2QowyxZES+PI6ZGmxVCfMOSwlKB/H2Oz5Z9+y+9CHpkf9qaHCXDRFYp27ezkcLlqoyxx2pCTKWxVaJU2kG898e4WzbgQYTQsHfBJ72rLcRuwmyfHI771rDdyRQhZmep9ymEPD5dBm6UVi84dLZxbphJnejzxjTRZmOpZdvlf1c1Fzfe8MWHfvAxNm+Z6b51E9I7ui7LiirT1E8bQu/leN+clrh7/eMx7ucFWqf53amfG/UWF+d2g8s8s0WoaTY6gws/uMwkTiEuaORZPB6PLaXT/U1wsgp1NhlsnLtuvxh4mn3vP0I2DsSSzh5Rh5kB3l8+mRxpGJ63klRH7onRbovp3bANI0W8dtWpgwB1+DupNwZohamDdv3sweXuC99eChKl8N3/JU81Ar8BlN9tlHsSOl/MjNMKNDXugxbgYb36yOv3n9QjDNXIcJMy1Ejtv/LM6JFh3+Xaa7DzXUTf2pocKcxlpx79iBi7a3GHeIHSlSpvKwoKUyssh9/0A2mZ1C08LCLPkgFVX2iZIH+Uvm6KcW5gDXZUzI5PtKVX0Ws/cr4wQhl6bqhJnez7J5Y8HcsZoizCaWunvdtlW7hxVNY+1Gev8BsJ4Ls0y/OjjZhSIL84i8KZS0+P+WJBzbHnp7OStmU1D7xYBkmhKOnLsBG5vhh5cK8/yWpZhdRi3MNN21LotJmhZGhXmXezTk67QWBpWLW5gpamGukIGERd2HcSu28HvfAmee4+SOnS+wyiSfT480TrPSWWHx3SCDdBMyP/xOqw0/CLm7bOMuQ6gwqx+QUszGomqKRHQaHHkJUmGGt8yRkgnnxgFV4Qp/U9QPnrK+TyWgMwiVdH3QHv4YGoyj27eQMBNrJswWFjh7KS5hXnoVM7lNfu14XfU9U2F2XdEUDjzH8Xz69+N2fDYM3E/qamGPoWynxcxPnhfrnFUpkquPEPwU7GvOJJYI2P4AZz90r4nTFKkwSxIKlhyfCnPHfHbMHXBxikExm+79JAuzlXwNuiiDjVISoGSrg8Vh53xJdcJcdQzODdfdG0EW5rBn+6D7StxnTJ6LLMdrmMkMinVZwexSUifwODIR5E1C5DhyMVuyycGOFLUwy9D4gUaE2S4lTpPUF+Yx9Rx0u5Emsi/IhHnEPtxCSb62ZIvPc2iFLKyh7tjkysxN0cXhRzoVsUKH9Sp3wueX3+npCflg2z1lE9hs/GEFPMZpi2vP4CzRgEeHmHv1Kdzyk9K+TiniZ8NdAMkzNmU7449ZyjeFj/Fm52w9S1cawXRHd26os4feXwfDd+Fg/ILcjyJrRPkjQM3IxcpyPRQ5DUrGFuvZcXhXnGSvbjKj7ta9lP2A100ZwPzesZIbESYn3KL27YGJMPMyfp3oC16mPm5iTuOqTdEOU6EtKe6q68cU89KT2cdqyKYH8OHsWFZsr0RKLHgeTpFc2Q5X7qDkSWsFybMqM85khnesT7QnPtP0HVajZg5RttiVkczkmWUk3cl9WfgrpR2QuQMfrwe/gGfErqzwUcDJCgpUaQqx7jvAnZS25HQn1sY9oynV59PqAilBtc3KwqnxIM/rw/mJoJnFG/EaMjdfxqw9C+KGb2r+KZcLkjrgCi5UmEMf7CZpKVNZY71x+uSIBViClK8lGzd+f9SkzVFSF+d34fe5UyMk9FlT34IsiDKF2hvuO/UzURezv5aE1DWlLmbHRcnp57iNEsGE+XfmtxZmyaoqtwl+FOen4Moj30KI61zQdi79/5hRXimV/C381sIsEAgUhDALBH8IQpgFgj8EIcwCwR/CLxfmrX3bQdWqVaFeozboEesBF/RaTVovuwAQFcTiyUamdrWq4BGkNDvqx1HH7TUWR4V9fHsXqtZqyOwUdZzJO5/Am7Nrdd1LcliE9yNduglsdRiBwCi/XJinl+b9lRE+YFVrEEDMU9gtL0DMyTx4F0CkH+zjY9yT8L4+uc+vRTFrcOcj7hwG72PHJqXloYvKXyreYBVEvDsLpdrj+s5ymDpOizmu8GT7OOzHDVQWWJcscBlbeLYMtAu4CgQJE+Wt/kXIwhz88izUGb6NCXPNNj2hZ09cSpQiC/OGOzi4JDETsAjovUeZwZKp4Fh2tO+Fa3Q3KJ6KHakw9uxJ0+vJhLmtTSKdu2YeO4M4amGm/vKaxfLglJi7C4QwC34L/i/CPHHiRBg7YgBIjjWYMB/HEZQ6DWxcmKOh5w5FhWcthto2VQ8cjaUWZhkqzE0S44L5atRxZGGOCX4Eb0jpXRZmimSXC8Z0ryWEWfBboLy5vwhdMZvAhIoI8wk6sJjweWFWhLBWLgt4x8c3VpqGEzbiEuYw9xOQtwFuYyOHGRNmeZcMRTPjMeTaLCHMgt8C5a3+RewfNxBatmwJLVvhVhwQ+w7dxMgTz/pvdCWKOAQu0G0ECe1ImEz7Vi3hA5/JT8+RmTWmGzuq/cbMwuWFogNfEn9lcy91nAWH3eDd1R3wmqfZjaQf43cX1l14zdyfXhzUzXYSCBIyv1yYBQLBz0EIs0DwhyCEWSD4QxDCLBD8IQhhFgj+EIQwCwR/CL+lME/o2pXbBAKBzC8XZvUi+BT1AI7PEea2D1JmKwtTp06FfRefcl+BQCDzfxXmFESQy6mEedasWdyGqN2OLN5HWLByK3oQlq4+D0fXLwEcWoI8vHgI5i5YxF2UTzB7EW5nE+X/GIL4otCY9gd2lA2Ne9tTnZqWTUsXwlNfHNqyaI5y3qzZe2DHcuVeZ83ZyG3a/7CY26Pe3wJ/Pk1r1jJ56dtIEncht2vP23vmJUT5PdQNXpmrCpPv4R1dwlQm7K3mfLV97ZJ54M0HyMj+94/x5xXqDn707/ne16V79mUI7J5LVw1FtpPz1cyahcvtxn4gz5YcL+02vK76+vTe6Sy0CzsM4wm+jx8uzKduv4UXb5XVN/XRCXPEK8jRcqZmRwtjR3mxfOou2OpfiPa7B5IZLjtLd154S16+9ElM2HK8/zXKB8sO34eYj+9I/CwsjpQoKdt9wrboSNWOFnRXBkyXIkm4c8SXdrR4HRwNA+oWhuFH3jK/WP8T8IIPW6vqpErPnK6CSa5hpl3U3o4fQ2/Mh0d8FqfkWI48C3ewzlqFuGJ1cdX398/AQ/DpwXrAjVbCDeOEXoMrfEgsw+8SlC6NSwrTD5SpKa6WSeO/I9+qCa2KwyX+Vasx9Qqs6owrZUoSLkX77vhwdqQMPvwWol7vhat8HqgkJUELR5JwIfyYp5uAjpz/tw7ek+f5Gbr7S5SnLPgxG4CZmRnQjW1GVsew1yen6OIJvo8f+hRfewczQ3e1iIiUF4fVIguznIHqRfAPHaLL65oQ2dsNj3RjKMNh3D53TYYX44vg2zrVZ0dK3Yl7uI1ommvnNPF3LJ8Ktf47qRPmVCQsrnWze87czO5DH5PCLbiNxkfhD/c6DI8/MitUzSCx89h/SFQM9kxU7i340WZ4Fhq3MI8uZ6Y7d0orFCh6/7KfWpjp1jXpkmE6kom8jOwDA2F+QEohvkT7b+mSBSrmIB80gpS+ri5NKVNt5kcXq9/exw4g+iU85QJ7fHhFtEAEE2ZKkpz0YxMNnTY9ZG4ZSSrE0juwYqhGmOkHV84DixLjIP+AlcQWAA8f7dIIs2SeThdP8H380KeYtf1mbiPasrVS1FRDhTni8WoYvhXXw1YLc1AQ7iDw8ek2eKUrNsbAmD0vNfsD5TVFe5psg9mRUnvCLmhTNDnsvnyPudUvSJC/G0i2uZgw06Vg19wJjFOYZx1zY/dhYa6EUywrduA2Gh9LBhphJpqZnsf+A9HM28fVxABC6Kt98ITEi0uYe2Qy050rL7tA71/2k4U5mAjT6nuh4MiFmUL3cipdPJ+BMF8hzy9jo+UsvFhmXBc8bavJujQ/hig7OWzqQRf8fwezz+IqEaXTyukrwkzjHRivXUCfIkmVWHoBN1fphNnn6jzN7hvmhYYy+8BaGQGerNUJsxfR3hQ5nuD7+OFPMVuHLeDYEqclGoMKszrzlGK2KTsmlmct8X2X8iZF/ytzO8DUA3QBe7qPFGokOZ0uJdOT2q/i9npANz0j9th3kKPWOOYnmVoxYZbjxCXMLvew3FwsnXbqpHzeowOzodIEnMChL8wyrJgd6wMp8tVDNz9XFmZ4thJQREgYEWa6S0TVwTgvW44rHymyMNNqBUUW5qRynICLhsJMZNWUPNNK/53SCbOc5oXF3aGry0P49GQnnPUFXTE7kfzsrfjCDITRF1Dor7v01V1fjbFitmSanvnJ16PCvLhpEeI2g6hHLjphlsyUDd0E388vf4pXF9eH677y1mQANR35YuWRgeBI7O6BvHge4cfcrwN4pZSwc/5IyFJA2VIkWQZnqFkoE7i68QnRBCdyzjuSBj1Sru1bDo4ZczP7p2d7Yd1NrL01zKIsku7oWJDb/Nk1qbn6Qq7lKZTLlRWmrD7AXeQWvU/Bc76rQ7NiqvScsAgb+OYWS0verjUvT1tjCuNyRk+u7ifuDMxOoWEyHf89CeFPdsBSVywHF85JwqK8oNwA/tEMcoWb6rWNPlyHm6RufHBiFbYcUu2S2H5AKZErI4xbif8hNb/G5sH4fCD0JZTJ76C5P7nNgpKz7lxuU3B0bM6OMaRqRDeBndVG/VzR7lR9Evn9BP9ufghRz7aSMgDAfy0M4wm+j9/6k/gn7mjx/2ZXD0UrU4oRYY6JjgW3PRO5jyCh8lsLc4qMuG+T4OcSHfwS6nSbxl2ChIqorAgEfwhCmAWCPwQhzALBH4IQZoHgD0EIs0DwhyCEWSD4QxDCLBD8IQhhFgj+EIQwCwR/CEKYBYI/BCHMAsEfghBmgeAPQQizQPCHIIRZIPhDEMIsEPwhCGEWCP4QhDALBH8IQpgFgj8EIcwCwR+CEGaBQCAQCBIYQjkLBAKBQJDA+OXKOZMksU1JjJk243CT0ITIgEZFjdwzbqQjEAgEv5rYkAf8O4R7vWoIuK/6Thk3GQpPZVFnVk2Oflb5mdsYdNtKGmenG9+VS/DT+Sbl7BcSAXmGnYC9N+j2QV9HdpLBNRff4C41UZAykQR25dpyd0IhAszJPW99IW8dJRAIBP9/CtibQ4Wu26BadgvIUXMs9zXO2f+KE+Wanm1Cp8+cmqlBKt0JclpKMPSg4Tf9+Ig6YJE4BVPOu18K5fyr+Crl/C7gE5SdeA4KjDzFTP5hxyFz112w+sADHuPLxK2cAcpkSApSTtxNkVIha2Is0amMWYr8bB9gJBTS6YU3nXqCh/mw7Ui3HNqrCZeSZAb167V9VA1tODe3PuCuyR4H+oB1zkYwrHZ2vTiO8EGlryO8cbN3jUmSC8L4zZbOZGIYzg3bzzLCA5IZCcvRdCY7//mWngZhspl8NgQ+Xp9D7InAcB/LzxPmvs8gPWqGuOCe13TjexviHn4M93GmRLzYzOPV4T4Am4ZU1pwvmwfB8gb8fqyQowkvPhneH5kIkllyWNu3kiYsS/XR/DykXEYrTTgzDoV0HxvvE6N1/g90m/YjOczQv9eC68zte2a8Lu6dIOalIw8pIFL/rrOuMHfLXGZglWcgs8tEPFhG4ljE+ayrkvM7zN8FSfg1ZHPEU9ndNOiu/Ay1ZsgW3MOccnVlF73wFODD37mrM5rohaEZs/sFRiBEuF9ke5yrw5Omoxvoy4RDCuK35MBJTRzaIuTFs62+ldpfbXDb5aFZUkPSCso+5vpcn9uSxE0J8lvQq4yxtCS2l7nMuIb5jcRJBB90r9Jt5nfBW/ZA8ieToNLwY8z+8dF2FsdLt+c7wB4u6xVbb2LuqIB7PG1Dc03vHdLykcmE/jk5Kw3n4YQQV4Nw2Uw/8ppFCX2A92jMfKna47qoG0imidARjjVol+t6L7OKLyrn/K0g4tp0EieDNk6MJ0v79tvn7CiU868jXsrZ/2MklJmgKOUCw09C3gGHIWvrzZC+ziJwqDqb1HinwortrvyMuMluIoGFTUqwt7fXmdR2vFlFsgV5C/Hg90+hb+Me3KVgS+KNO+PL7Bd3L4aanZQthP2vLWbpYBo+7ONYrIV2i+EtQ8uROJb4AkYGw5Kx/eCFou0Zg3JKYNN8OrNfme7M0uy65BZzy7zYMYL50zuJeYlCtuuV9tW/OKst89eXc3pfo3fTncoVXl09Bi2n7uYujs8Rdj7dBlnNkMoSJCo8lLuQENdvU84+JyaDlEUpEFHoFs1xKeew+3T/emtYMqgwOXLlHBkEC0b2AfzkKPTOIkGKdvO5C5XzguvqfaUB3hxARbnqgbZlIlcSM8jQBBV08Lvn0K9jO2ZXQ+9z+un3zI7K2Q7WjG8ISUrifvuUE7ObgpS3J6Sy0VfOKWDd5CaQqOgo5kc5u6A1SLm6QdrkinKGsDuskLf5pZK32UwlaLT0LncZUo3Elyy0TYRRD1zY/7zEXs4YOL1/Kaw6487CZO7ObgaSTTZ0RPnBuO4t4Op7RQFVJ+fn6LGQ2ZlyTqxs7025NKME+WAXZvawR1vZ9W7ovXzXFjYkcfLyAm44pCZxMpTuy1wy1xY3J+eagDan/Fh6865+4m7kq5VzaQmsSiv5Q2lU1ASyFsUm1qgwX5jYq6netUnhLLUEpUYcRcc3KOdDY8pAksKdoVx2E51yHlyQ5FOVf5ldh/95dt5nlXPkIxLHDJSiFimQ5U9mVDlveKr+JoQxP1k5V0wvQcG2O5ldJvDmahbns8o56h2LM+fMW+5BCsfDyxA/E8AqhSFfVM75WjB7dVJ7brLgLLNTZtSzhjSNJ5FX9hW7plDOv45415zH7noMeYaegPzE5Oy+FzI2WgWO1WaDQ+UZYF/+P8hRew58Co/r1VCgNed6a55x1+eZ26seJCUfQvpSSIlsoMWYeaykP/iw8lJSdo+rhnGI+WcUCp5ccz7gwZ0yHidYvPv8HXt6fCmkS2WtOz9nhabQPBup5dYnLyTh1W5SQiXK3FDpebH4K8g3+tRoUiK3zc391bxhcdYrlSGGMeUMMeHwT6ksuvuwSmkPi+aNZXalLoTErZz5s1IZq7wNeAzjuDTLCEWbzOIuxLhyfg9hz8gHz8QKQonv0t65SfpKzfnRoQXgaJdUd93cVVpC48wSmDeegRE+q5wtuUvh8LQqxL8IdwHM615beRcsbKDVyKXsOU48hBmMytma2GLBivhfDKC+QSz+Q/KBtjLXV85JScxYVtg7yzL3I4t7l+geWwuVciZs754PJLvSzL5vSl2i3JT7MgatOTebLbfgKCQn/j1XP2T2yOCnkDdjOvw/xKRyyAHTu5P32DIzC1eI0MUxsbSFlx9RrRqvOVvAszAWDPsm1zcSrpiH7P3nNeebenIb8pLFOfxaVe38jHJWpyubvosvsPB41ZxTVuChyJmlwyC1jTkPN4NSpJBWOI0ExXvvwQhcORszBsqZaNA9w2qAmUND5p/fUak502dbOpWFQRrUfE45vz8+EiTrLNyFfItyhhh/SJ3E8NrUfE45t8msfK/0TbpSg3gsLfFVzrEe+1k6LOcDLxK7KX77Prkxf6Gcfx1f3ec8ZvUVSFNtLjhWmQn2FadDkcaLIThULcSf53PN2mqKk3hVp+znLs7r3ewFQeUcBVkdksHALfixQ/ADssKVfpmx5lxz0D4M4qzvV4jEScFe0nWdq4JJmhwYoIJ+3GXlDLHvWNNg/03aAoXr4q7sWvRbGPN6F7PvdddWwc9Ob0X8TVgcNQbKOcqXnb/nqfY5Hh+NH9j4K2fDmnMlcn6+Aau4S59AMCPhl5giUzCmnAfM+Y+kn1j3kVUr5xWtyoFZunzMrhDDBpHETzlLcBIbQ3RkTmwKWVqMZ/byRCmXmKyn7Nz3sPP0lTNVHZdnVYEkRVvD9FqZoWDTFSzcmHKmnxnX+TXBomBTmFs/O+RpuISF6ytnIP+a1dIP3mDXPPrG2CdOgdWcUzbiLuTjzYXsXFqTDXm4idn1/jK0K5mKfPRROT89MJYULlPonjdl/7R65LyszG6s5gxRj1m6x9/EQvDttcx+m5akVGzskhPSZizDa1hYc87TEGvjMufnkAKIZK7p/vmccjaoOQfjc7pA/uuNeNScX2ykLUwOzD6mQHKwrNib2RW8wIKkp6+c41NzXjG0EpjmbsL8KFrlDLC1F3anXPHnHvGoOVdMLkGPrervTtzK+YKcLkNPORPGVqCFG1Pw5u4v1Zx9T45j4Y+1f50R/QzzfMYJbE1SE1/lTOldNA2U6rAdqmU2g+rTuRwI5fzL+aYBYZR5Gy5D0Mf4K2WZ+CrnZ/yjrTb9tj2FLCkkaDsbm8/DPQ37eRPla8zCqHKmyqDv2GGacLN0RZSmn3B3JvTq8HR1hsGmkSVAcurMIxHCfVBha0wa8FP9/TCvM3rh1GSAECPSYKzmPKMxqZ1pzjWB2z4ezH5K7yv+NTVnyTwLU1j6HJta2nh8lVl5iypSVM6SlASCVGUPTc2ZCC5V8upzMzYcC2sGFQSTLD0xzmeVszWM/UdpNaCmRN+VPAbAkz3YgqA2wzY9BIfEEvRecJXFkZUzFoRQmdJ48uOPSznTmnZiHld+LwyVM4Dn4aksTp4aE7hP3NCac+Euow36ex+FyncTCxVTa8OkZDnA//YKYk+uu+cRNfXHOdB+RSx+xdXnbJZV6VMOum9kPIGFnarJOBzsiF/bMXqyZuWkp5gpX1dzLt4RCzrx7XMu3X89C494i8pRE9ZtE3SpnA5ylcem769RzknT1WJuGbVyntEwPYvzQV2m/pxyfraRhX3OlB+1A0bklt2megUwrXJunNuK5EdaTVP055VzKCQlYVm7bOFuQ6ZWxLEZ+vn3NcoZovG7I0mpuAdBKOdfzjcr54QPKuf5N/WqDgLG6bm1wKaqYZ++TEXyEdtw7zPVhx8EKmcL7kq4BF6m4xlMNP2McUGVc8HB67grIYPKecABbd+3IA7cdpB3AGv4xljeJzfUHruNuwSC70Mo578Uj1t7YcmuU9xlyM5V8+Cxb3xU0feR0JWzS/fyrMZAzaX38XseQjn/oQQ+h3nzlBYdfe6fWQ97r8RvPI1A8CX+YOUsEAgEAsHviVDOAoFAIBAkMIRyFggEAoEggSGUs0AgEAgECQyhnAUCgUAgSGD8Fcr59AQ6hzgTd2nxu4pLfiZpH9dCHd/GhwdHwSmtnW6kr2zW3NbO8xUI/kZa6s/zVpsM9XgsQXzYOrUz2Fkr+xAks08PR+8Zrmn4u7Oll7zMszGTjMf6c/grlPP56aVBMinAXQo3l3bSZa59T1wE4UcwoHpqcKiqXQVJIBAodM4qgVmj/7hL8C2cmECXuJVg+Npr3EehSHITkMzs4jUv/3dh5+CMIFmrN275s/lrlfP2QcXYi/2EvL1F9JTzyl7avZvz1dMq2opOSTThZqmy6TbsgJj3zO/1Q1zDWzEWcPGtshZQ/wbZwKngJOhZwEYTb9sDtkcVJxhyJlengab73DM8nPDhFltDXAlPDG58vdCwR3STCnIvqoWULi+hS4pKkHPkAYBYXO7RmEnTbCKJ7c/siy764Mnx5JPbQYMVw1rPUpZiPT2npiZMbdTbX9TNitvUycYmo3a1J8rMZnTlI20abAcjHp6PuDN3nMddSOitRSwOzbPwp7iS1Etd1gRBJr31joup1h6PfI5Ltb5QffVWdiMfyZTapTQLkHwrP+QId4XiqnCHVGvCB9zAFcQcy3EPuoqrq8HOZFUHKEtNGhAbwOL02/mEeyDnJlUDyZZvvBH+Bqz10rysWt1xeZ0imjDFJNPlRW4bCaqNOsldhgxvmAYsbMtzF8C1lX1ZGiHa1Ww1fI1ybpEvrd69SZClOV9el3BvA13+00m7+tVHujmFBEf4zhcrGpMPe/b6zE5XaHPi6ch7rY1omFWXNhpLOO+ppLhpGH9O1k7chxPzQXfOMd2yXhFQ1N5wze7aE1AG3Pf3MQiTzZQj8ZtzHvUUl4BdcDsu9RsLdx5q0+paIoPmWqZ2BTVLCzfLkgwqdF4G9TKq78kczngq363BmVOpwmSTCDxUy5z5393H1phQx+k9R/XN8jvL/G5dxf8gm6wNVcufGuFrlPO+sQ01aTOTrKhSWAnFJWZP662+mJX4NZxKvo2E51vbkzhpmZ3SKS9+97e5oXtWS8Pd05JnaYaBP4AEr5xfvw8Gu8ZrYeeFl+DYcgOERxpZVPYL6CvnUfUzkQeZGDx5Umrl/ObKGshqn1n10kawD+uU8/7ky+zNMqD57Is8DPHYN5L5u9Id2wJw+zYL2zIYKBPxkPlPP4oS3L9BDuJOorsHxkd8YRZfwCapHXOGQdFWi5ldJuop7jaE6jISOtUpAx2WK+v8TmpXCJLaVWN2feV8dXpzSJKlItSx48pZxbMddIMP7VKCALjm99co54Aby9k5rupWtRjcRafGQlw+E5VzMk2p3uf8AhYHFUIQU1xdV99kLhmvk9NUcZDWpa2h1drb3AUQeBXXGJeVc5QbLuR/W6cpYiCTCSksuOC9aJVzBFtrOm+nNSxMpnI6K3Co2JXZf4Ryjg3GrQqndSgLkgMq53en5uF96H1rx1R0gKRFm3KXIXeXdAHJ1FbJt6jXrGC0m2d6r1ZVoNZIZdWqU5PygJSoFHdx5Uw+0mqe7xhI7sVG95y/VjnHB6qc6f81ZtIV6shjAbhuWwWFyiobrDBi3rJ4xzxQ8X6tch5XOxkUHr6Z2SkOphKkr6LdFhQCrrDzhx7HVa9ROdeEmg7m0GuZsiPZuLL2UL9hb7wfrpwPzJ0ChZrp7a/8li6lagL6+/CML2MNUil5idv4c2kabfWzIJISH2IgTSIJKgzV7oAVyWXDnS9D3CxLSuJOodlFL/wZ7mdw1ANfTKqcrSt3YXaZwflIvtXC/3trfmsS39Zg+dAWOSRI0XQ2OrhyrjZUuwtfk7wSmNgp66Drw5QzOc+oSZlb9yxCXl2CumWLGdwDXTq62RT+3ftK5ey6tDFIuZUlTt9e3w5FC5XlLplYJueTDuvvI/htJFjlHBQaARnbboR7L7V9J1vOPIe8XbeRxxB/1Mq5SRZT8sBtNYpBv+bMeHdUl/GZ6g1jXt5cgRjrzbEkAt5n0Q3yfcd1aScbKQE3MSdpdcQXlNac7bOPZHY19cm5OXot5S6AKQPaQxpVTa5ZG9zC0kNvkdxqTnKcpPCEV+N1ypk8rAtL2oCUChVBOcuvU84GJlUhTYlbzYqmpHSe7fM7YX1JOQdcmKy9np5ZcQfPoeQg7t0vlVXg9JUzZWj17JA0aw1mPzmlHEg2Sm1VVs5qc4bv5S1zf2M74p+BvXPfrZyD8KPwjujO7V0L6ZTzDOe49/umazR/bqRCjhTmUKELvjMDSllC0ppTmF1Nj1SWPK1EcPy1sj52vJSzkdYbuo75Xf6efatyjqvmXIxcz9RK2fVp37zhkCed0sJUum4LdtzlhmoElbP+/aHRKGfu144XEpEnzG+fkQpr+dw2kLsayigq50oQ7U/X0Ldmzybm7SFiNyPf5KcsDaXmDLBoRGdIb6vkaaMWjdjxKQ+X+Vbl7HUMN8C49pmlrl2mLYMw+p14uVN3H8bMsP1YZKA151IttVvsUoqT71bBiceZ3WjNOXVO3fr9TYsb3+VLNgyunPUfucehCcQ/7tUCP1dzHlcJ3w+5DP7+1g6oVTqX7ro2mUpBenMTqDGKF8q4cjZmtMoZ/TLWNOymvH1gAZTLq+wsl7VUXbYHw6Adz3mM7yNB15xP3fYEpzYbISIKawFvfEIgbYv1pDb9dWs+M+WcrAgUSZ8YTJMbbu2oVs7Lx3SE/NW0m0qUSG4BRTqSD8knbAZeclVbk4x9h6XL3a/wo17JlpQSyynNbkggizN6G4onrTmbWDsyuwI2kU3c84LVgKj94DttMeTGfGyuoco58p0rFM6aXKOIfE+OIeFWTHnKynnH9D5gkUqpLX2tctavOW9vVwwk+xLcpeXlPrrRiJnmnmiJkjYjOpG8o6By1nYzaGrOkdjKsOK2dpOFgLMLIGe5xrzVAMDz1FwSz0lTUDOmnKlypDXxVfdfslrl/rdKyUZbcw5nzcr1F2v37h5cIh1Y5McCx/co5/GbD7NzX/Gailo5u67sxcK0zx9geu1M0KT3TO4yTuTb0+zchw/p/t8W4C8/kKg3UD6PI1xVrWAb6UkVigSPuR9Tztm0NYD41JxfHcLNMuh79qOVc/cySUBKmpzZsyYmH8u52vwIe4x5oFXO8a85L2yXlRTWczE7JTEpWNcarr+ZRADbZKLZcqwly8qZ0rZkEqi96ib8Yy/BkB0PyXcBW0JQOUewd2zeRV1HF+PRhiEszo9SzpRiqYkiTJmTu7QcG4tdRzcD6LfTn23u0n+PdqvdqNcnwKFgDXgejN9XVnO2x1Y3HSF3WDrr7uMLw2rOVbAVSebWOmympyKxsVNlknfpMUBFlwI20GnIRnRw5Tz/orbeP6FROjAxj3s71s8p50NTyHVJmnSDvWENs4Jt+rYYoCOShdfUU87xrTk/2027ahKBDxfQ8tmTQKEGvCVAJgwLen+FcpaZu/sepGm2Dg67fltzAVPO5KGZZHHmPlo0NefYAN2ORmrziFddot9eMAijZv1DrTAWtzKM022BstNR/wbZIVW60gb9gQNWKR+ipllwhxm1WX8Bd825w9/reR31d7OSoHB7XNdZVs6SjVaRfnfNmZi5V/TeahUHp9OtDbXxHUvQZkMUEGbsa2JkjrZZm8jOS2O7fEmw5Q6q5kKkAGQsXDEpNR/r6+t6MH+HqlpFZ9DnHIwFA40xy6HbVUlWzvE1FYbQ9wp3E6L9d25cMVPUypmya3Jzg/Pp/4jP+P7xzbA/sc0SpcmVcnxyLb30JEhVjfbt4f7VzJ1X25QYv5qzBE1m4g5Q+sr56nIsaHypz1k/PcVYgCcvl63pXNIgvM+C/Wxv7AUX8F34+j5ngJ6l0kISB7lQEgBpLbTXoKbZfNyTmqJWzhDId8NLVhHdYWrlTNIunEyXhmxcjp5ix3OaLSTjVs75HSRIU8L490rN3gmG+cuMTVHNdqMQ/MRglzRqJu9/xCOgcs5WsqLB92/+Sd7JSjDe5yxB6tJKf/GcZiUM49hmV74tXDn/U62UJo5Z6sKfbRH9bLM2MTv5N9j/+lKDMMcyHWBEUTPI2GkOi/Mtfc7H/2sGkqkFk4sHa3HLYLUp23se1E1BCnrzz+EJhPTE38RZ3jb36/gtlPOfCFXOyTNo9/wVxJ/iduTjfEO/nsmJfk6ExV7zsf5wYx3xMyNq8tcx09lUaUb7yRya2AJMLPT31Bb8voSBQ4kfN7goPlDlnKX2t9XivwqunPV2jxXoIZTz/wmhnL+Pvk1qwq5H2mZvHeHuULNmc1YKX9w1EyRKZMY+Bgdfx6HMfxL/Nfz5yrlhNlMwN6Ul98Tgp6k6Cn5nNs/79VtPCuWcsBDKWSAQCASCBIZQzgKBQCAQJDCEchYIBAKBIIEhlLNAIBAIBAkMoZwFAoFAIEhg/BXK+dT43EDnQRoj/BWuBGbediX3+UGEe0LzejgxXm1mncblAAU/jjUTe0PGlPIKWGgs8ukt+Sj47QhxxSVN5fWvBYK/ib9CORvb+ILidURZJtJg+c7vYFLTnJA4W2PuEvwsot7hlIxrfp9bukDwu/Lx1jKSv6YgirOCv5G/VjlfW4zr8570DTdYW9t1dRed0qam6b+7eAgytF5OTXj6sqrFAmJxVS3/YHewUcWRzLKAl2rJnj51M0Ga3ONhafOCShzJFh4EahVN8+JpVOFoVp9RrUob4wtp1eFJsukWfA97iLu+vFJd9/nB0cwv6/D95F5xuTljxqHlZBIbd6WSV2KKF2Hu7Jw9z7Srb5dJI0Hu9sqcX5+7B/VWLEoB973Uq20DvLiwXhVOTSI49UJZmHNmQxNoP+sijGxCW0aUeP1W3+AxSD6vwbzcyxfup1Sh65Bbq1ZN+/AMHPRWiBqwTlnNTYau9qOOQ03yTEredykqgWXp8dyFlE6L6yu/4u6WefE8+2o9uA8S9eYYTzOJboez2rYSpOyq3YRDzZqudKMC7brYLcvTTV2U+6s3YgUPiZtlPWtrzqGmzkRlU4LLs8qClKI0PNw4QBNn9y2+HOSLbRp/tXEesxfjhLyAzHq7fS25JD8VJPrdFc0Oa1t30N3DEsPZ/bixDDNWOTUbM0DAI3AwV85Bkwbe6F6/CLY6W+/Nj5kr2vcqxsk/HOY1p+vs65+Lht7Zji75QbIzvkwtJeASbsTygrsNiEBZ2PxYWaYyxgdXF0uevzr3Mc6mibh7nGxS5q+jW2Frfu00kKRSL9gwQL3CljXcf6eVnz3/4TdONnb5lDRkbi+iG1UocWRziot80G26eI8EftqkVXxi4WO3a3dGE3w/CV45h4VHQaoma2HoyiuQq/NW7vt16Cvntb3p8nJmcJ0uxEpQK+eXRyeCOQlTSuu4K9VkuitVTBB7EYt138DDkAvTcdnFp3RdN74rlZm5snA/JdrjIPNfehU/vbgrlTlcUi0f9+n5DhZnwz1Ur8ObloG0pYYwu8yn2ytIHBO+dnQklHKygwojlHWPJ7crDElTGd+Vyn3HMDBLmRuqpf55u1JB2Bt2zt7nWuVc3lGC/J0w/zZ1J4Ub87SajS+okCc3laDzjpfMteCf1CSdNHobbHiBDYlTpjcqjlZJE7FrrbqtXTq1pF0SSFZcabkIvo87Za2+7Q8pE0mQsaGy7vnbY8NZ2DF37d2Ud0gMiVPz5RoZAWwbPHUTa9camSBVtpbcBdC9pAQ25ehWm0iZpBL06N2dpf+a+7UpIEHmWhNYweSSt7JqSGUSt2Mn+h5Z6pRzvZQSpOmBS7EaY10PWnArio7IF0yxDdisLLVI2TmEfsANW41k9o7tCbYpc3AXJxZ3Xzvghou8XJlTgblnHFMtnxvxij2Plqu1617v70dkzY7fE8ed7yZ2X28LpcoZkkKumricavhLXPP70CslHyY3c2R+ndY+4z6k4DyzJfFLigXQqA9QrnAmGLFHqxiWNSoBFtnlteQjwJak0W8rjRPD1k4/bKQqTncsarTsKnchO7sXBsm+NHcZEnB5BrkXE9A+cRURKAtbn/A//sGVuC2hadlCkLKw4fanMv+QgqyUQVlqlDK0Gi10WTP7wnr4XE57Ks8qnO8wtfI2fjuyWpqAY/URzC4Ten8ji+OuWqxmS/dq4OC8nLsIITcxbVk539nA3F9Szv/u0F81XPC9JGjlXLDHDrYLlZrRa1yh1uhD3BU/1Mp5ZNXk5GUyVTYHIBjflYpuIoClyPydlzAvn4u0JC8RlWUI3ZWq75KbbHUqGmfsPlQyatiuVB1wb+C4dqWqS87N3UcRlkuHt0C1Qtl0tcxMuahSN9yVqko6udSbTLcWs045k7jPDowByQI3Z/jetbXTluvMw43AlbMxIyvnVEQRGQunJmV+XNjeltRku8y4zOxq9vYuDlJqrM2MKJoEJEvDvuWAs1QZmCh7bFO8cHOIrG20yq5rofTgUK45dyl8urOExDcFeevj2Fe4uYmazynnouQD22zRbYAn+EFUK+dUNebD+VntwSQjPkffk6NIzTQfwJ2ZJK5KOdsZPh/TxNlAbmBQK+crswzX+lWb6wFxN/173DkNXRqUAzMzrOVbpsG9jdffwyIgU86qjVNkRjbNAzYOdbkLMaac+zgarjWtGCzE7plQhthLMrtM6G1aqDLVbXSCBLJNHKZdVFpQNq2YDtntqFxjmtnTpATJqTAPjWDrcMthbpoFpxXiVM6qc9GYws77uIj21yjnWF+sMdP/MqhctriVcwQWjDbfj3v5LKqcrSprN5+gVM8jQa5yswE+0kKA/n0rpib9TnGaFzWDDuvvcxchDuWsb1pPkPcZF8r5Z5GglfOyQw+hSG+lSTnkUyRkarcJzt5V7c0WD5hytioN9eiC9OYO2gXyCWrlfH7fUmjSSbuHcj4bcyjRiSjVYFwsfftjueGYE3aZ+a+5j/W8YkQJOzRVlUYZMSxOv5XY5EprzmYptbVrotlZnOEb75HoXsy++p52icqX23oyf6qcY4JeQ+dGpXTbtVE89tHdb6xISopyPr9rFphYZMcIhO/dlWpZw3wgOcbR3BePmvM/qZNCmqr9mF1Ng5rl4NQNT2avlTwRWJbtw+xqyma2hPQlcMeZK8uxyVq1lwRjZn2iXOxUH/oA/DDOOPUKUpJjnkZTeQBR9v2LkoJbRu5SWNezMkhJ7LiLFApr2UDm3tomZmPKOTWpCVZNJkHnla7oaUw5V8cCWhoTUmMPjAIHEr6bVGcCLk4hcT9fcw4+T8dJoMJSK+eQG7TgaKq7jsyLozNgwGwXg+ZMmcKkAFCq3x7u4vjjB1qjnCUbg3XJS1hLkL699pkYU847BpMCpUl+7lKY0rQ2rDyEm0t4nJzNrqkuUN1fM5T5qbdFjH2OyuIa0V3+rlR56++ABtC7fAaNclZqzkGsEN3JRaWMOPGvOePe5Ctc/SAwnsp5+6Xj5JgI3vJC1WeVM8kpS3JO/TlnuRt5vaU7mJolY7susZqzmX5rSDikov9hFd34JIy19g3brndn0U+gQpN+8FbekSTwLrs/H3WtOJ4159z2plCyyQJiE8r5Z/Fb9Dn3WngBHFqsh4X7DIUqPjDlTF4gKakssFo0NecwumkCLR2aQbp06cDKDEuKx96gSve9hk2ktC+MhtvyfrQhOx+ycCQc0rA4REmTOGntrJm9bBcXHo5ra9umyM78UzuQOKlwP9KqfZWt60rZYBr2JDydY1pm77sAd1x5yD9YPcphn3TKtOnAMS3tgyQf9DKjWZhuVyoT7daUX6uck6d2YP+VmhRW5syv50b1/1URD+VMCyq5EuN/S0Pv24E2YUtgkkxdc4qBwvzZpiH/3zEt7oZjbq9uagZY2RWbXBMnS83uj9rpTk6ywva6OJ/5rX+gFGGyJ5LAKlMr7gKY0NCJxbFOmYakQT58LA0L8KIPI/AaOKS2ZX7pnfAZyMYqsRmYmltC7YELWTpUOdN4zjMvMTfjM8r50XrsVzTjO/oYKGeiOE2tUuiulyYV1kAzVsH4mmZtwuWl2MdoZpmMxU9ClD91r73F+2+MMLkujp+wTZWWnOMIFsReuOFIVoiZcwoLSkw5W5LrE79kNF5azC+rMt1ZuBpjypnSqzLusJYslT27DrVTGVJv0rS4I+5AZZfWEdKkSAqSBT3HlN1TKvIOpE6WhIWPOYBPMzYMt1WlcRzJ/02bOgVzLxz/D0jWeVgcrXImRGOhd/JhbX93nMrZ1EL3/B3SoqxJpunYjk/xrTlTgzsmI59XzoQgVJr0f9Hr2nJZWce7b5hyzpiTtSCkJvKTNjW2GhTro4wviPa+yNPA71jq5DiboSzftrG3c1G2taVVMjvd/2PGEf8jfd7u5P2XlTP9jmG4g27XKld2O0I5/yx+C+X8JyI2vvhN+EC3CDXjDkMuLagBhdorNfE/Eaw5G+6D/rMRo7WNw5Rzbu02n19LyzJpoOzC29xlCFW4bnE1twh+CUI5/58Qyvk3IeAyWFsn4w5DTsypA2W6YU34T0Uo54TFj1DOHatmhkpzLnKXPhHknbeGV0I5/18RylkgEAgEggSGUM4CgUAgECQwhHIWCAQCgSCBIZSzQCAQCAQJDKGcBQKBQCBIYPwVynl6aZxPrG/2yes/xzxl7t3aqY8a8pDwzIP5giiRfgZpyWbcEWWBx3p5cHlJtem/6QEPRQrrhcsmU/HeGCH8JXPvfqld+KRkZgmKN1jFXQAHxtczSKPmIGUBi+jXuOLZI+30Y0hvIUGLObhgxpPt41gc9SJKw6plZH5dlt9jbr/ra3Xpa42lZs6qQCAQCL6dv0Y5mxTQLvP4XykbkEp0Q8c3KucNd9SLBX9kiwLIyjlTMgmy1tSuiw0QzOJUmqVMYaDK2b6Xdq3uBsVTfZVydumRGSRzwxWYqmVOCkUazWb2b1HOoyqlgPydlkPGxIpyrmoqQZ4R25ldJuTaLHJeIqGcBQKB4Afx99acbZ2UZS+5cjYwpvbgw+f6fZ1yfs9W31mmt/QmpW3lDJA2Txvuir9yNmZk5Vw4Sdy760hWuCqarJyNGX3lTNdCG1jZCbLWmcv8U5koyhmiAyG7Na7BrDWi5iwQCAQ/ir+25hx0eyVTKn5UE8VRc17SJAlI6XGZx6+tOWdPYQoZKnMFq8Ob7eTTcJmy8Hwh4q4xS9lVivK1NedV3dKDZJaT2dVktJSgfMsJzB7vmrNZYhhZ3QGyN1cW1tAoZ0KvUvYgmSTRKWNRcxYIBIIfy1/d51yoBW5XF2fNWTKFJ1yZfa1ypnQsz9fiVZnRu3H31ze7lT2jZ53GNYxlvlY5U/aPbqBLTzZZmih7C39Ns3aW2nQvZwW1cm7omIgoZmVDCIpQzgKBQPBj+SuUs0AgEAgEvxNCOQsEAoFAkMAQylkgEAgEggSGUM4CgUAgECQwhHIWCAQCgSCBIZSzQCAQCAQJDKGcBQKBQCBIYPwVyvnMxAIgSVm4S4v3OTpHV4KkHVdznx/D22s7IaWtFUtbbTbc185XFggEAoFAn79COZ+fXhokkwLcpXB5XiumME2Ise+5nvt+P30qp4QMdadxl0AgEAgEX8dvo5yjY2K57esxppzX98rPFPPLGIAiesp5XvvcmtputiqDeQglCoqlNteESzaO4MtDIeY983O7tV8bRzKFEy/DeSSA/g2yQYZCk6B9ziSaeGtuePMYlA+QwUqdBpo2U47wcIL3Zb1wM3gcgkFhj7Ywv9eqbabOzXFmfjlHHgCIfaw6T2vsmtJlP/2ZfdFFHzw5nniemG+QXpnei3gosCVM9cPRVGfhVZ0kyNV2I7PLnJhYCCTzYtxFbt3rMiTVOz9DSWXNcoBPYEf86iy7zd0AoTfwvh7x9dIpM8vkAMmxHHcBvD2/UJMmNZ2Xn+GhBL9LzO9KKHdznJJJ8M/AQ8z+6cF6Fke97tulGS2YX43ea9Ej2gMsefr65kogRjGAX5ua1Xe1S731KGXB/Iv8M4X7ALifmqOLL5ueLvKmK+E6P3llt1WdU4CUphF3ATjw8HvB6I65i0ve6pvBh9+y8C2jqhG3DbMrRIKliQQTjht/h9YOKkjOqcZdSMzTTSxdeTXdf+uQ6+TWLoVbPCle+y4XqSGV0W2esxJ6cKLenWX+VC48uN/I6qRAnn8AdyEFLfH8h5HcQyD4P5PglfNTj0BI1XQtHL3xBtK2WA8hn75eevSV86Aa6YkgWoI31/dq5ex5fQvkz5SXfLpkItiynFPOk09YhBcT4PaLcblLGe/j45n/5QDiCHjA7ImTV8ZAmZjnzH/KIfxE9G9AlILqHhif7rE4C87ih+zIqslQvouyRCcl5vkOFgdjRELfZtWh57qnzEWZ1KYgJE2JHzt95XxuYkNImrMa1EnJlbOKZzu6kbhpSdFDjS87/2uU84W59ANtBn7cLVMrpy0kTleGu5Bwr8Ms/cd6Lf1fUs4+Z1HJntFbL3Ru0wzEPwPfVevrlfOx2U1IeCLNlpmU6umtoZDzdHR8g3K+tJgo5nS1IYtjYp1y7lVKgqRFJjK7joCLmPYXlPO6zRNASlqDewJ8fEzfiSxQtLC9Tjnvn0qXc03C7Goq2FtC8Za4oQnl/dHBYJq6KLOrlXP/irZQbpKqEEh4uqU1JMmuVn4RYEvuR1bOpMgEGcxJAWT8Oe4GGNswD9hkashdhnyLcs6VSIIx07E7Sq2cbUqNgHTEb5WrsqxuKRsT6DZgIIsbl3LORgsPM2eyOEI5CxIKCVY5+wV9ggytNxLlTDWewp5LryBnp60QFUN3rIgfauVcLz0tIafUfID1a86Md0eZsFKTvnpf5uV9fgFz6+kEhqWpBL0XXSf60oPFmXr0DQ9RaEI+XJk74haOtOZsn30ks6tpQM7N0WspdwEM79QIbMnHQ76XTj1as6OH3t+vyv4XNZZwxwf/nU45kwLA6XlNQXKoyvzLkVrC1yhnA2ObE3hlyoAGTskgdyN1SwPy4eIUcq4lqFcjj1M5ZzRyTWoSo3Je3JMWbBowu5pY/2ss3jXW+PD1ytnZ9DO7e0kFWRx17VXfGFPOV6c3A/PUxZm/I1HguppzlC+kJu+DfhrUfEk5039U1FqC+VfwTcycRIJxZz5CscyWOuVcXy9NjTFVWiAowdcMa8Rdlt7ioQqTquaCfG02cRdFXzmTtK5SJWfBCo8Rb06wtF4rJV0DUDlrr43G1KhyLmRLav+bn5NSxTEWT62czQsPB68T5Ppm+P+8Dw0DySozwMsNLK4x5ZzXRoJ+O16TUvlBFkcoZ0FCIUHXnC899ALHVhsgLAK/pm7vgsC++Tp4569XbfkCTDknKwT50yYCs1SGfc9q5Tx3QDPIUaE/s8uUSm4BRTpMJdrkGRPg+ReUzS0o0e5bmf/+N6gUq6aQIFnJMcyugJtljNuJG1+wmrNVWmZX8GFxJu9/SZQ8bnhxVN3KTbg8ow7zp8o50uMS5EpnqTSpE/xP080rrIA2esrKeeOErpA4bXmMQPha5axfc97VoTipYZXgLi37htKPrT3bdlJNnwrpwSxtHu5CvrXm/Gw3qTmS8/QeDRwfW57427L//i3K2aUfVfrkY65HZccU0G78EnTEu+ZsDtuWdAAplfLcNcqZcHk6ralLsOsJ74cI4ml/QTnTawddnARSkkzw2qU7mKWowILVynkp3eNbMtyprJx9cug4eSV3AVQh70/q4j2YXV1z3jK0Cjk/NbMj3mBKrn1bk1eGypnSKQMphPZYBDWsTeGfsXyzmDiIb805UaFBUCypBAM23kFPLyPKudBQZi9GFPjsG96QloTvdvsE0Y9cWFy1crYsPhwKWUgwbMdD9BTKWZDA+C36nJcefAj2zdbBqTvaj0B8YcqZCJ557tbcR4u25hxs0JdJzQv+MY71uc4GkOmH73yh1TAVkhvGGbhaURT9G2SH1E7lIaVenNFbHvEYAG1yJ9eEUbPrBtYOb/MP+IpeRQ3ilO65jYXJyllKoSgIynfXnIlZdkvboqFm+7AKhuc4YO1RzbcqZ8qjzbiDltbYgnJXqJwN4xgxqj7n+R3zGIbbq5py462cJUicqiRzy6iV8+oeRVic1xHMicSzWVu+dgFrHPtw1RcLhWrlTJnZhhY29P5LeqU5vFOuxCBlaMpdhn3OCxpnBSl5Adjflzx7/XT0zO7nqj7wMOzakZIaFnT0iXezNnF3WPGA+xA+o5xDXGezsKQVsXYcZUQ5U3fXtUp3kFDOgoTGbzMg7E+DKufkGZQPoUCQUNnbszBkr6rfEqRQnCi1A6SGqhAM1sRvw9PPtGcLBILPIpTz/wmhnAW/C1dXDoW+E7ZwlyEjmjaFG+8jIeT6Ulb7pKbWRG3LjEAg+DqEchYIBAKBIIEhlLNAIBAIBAkMoZwFAoFAIEhgCOUsEAgEAkECQyhngUAgEAgSGEI5CwQCgUCQwBDKWSAQCASCBIZQzgKBQCAQJDCEchYIBAKBIIEhlLNAIBAIBAkMoZwFAoFAIEhgCOUsEAgEAkECQyhngUAgEAgSGEI5CwQCgUCQwBDKWSAQCASCBIZQzgKBQCAQJDCEchYIBAKBIIEhlLNAIBAIBAkMoZwFAoFAIEhgCOUsEAgEAkECQyhngUAgEAgSGEI5CwQCgUCQwBDKWSAQCASCBMYvVc5RYcHg7e1tYAKDQnmMhE1IoL/unv/tWgsqOS/mIQKBQPBriY74yL5F0dyt5mOA4XdW3+B50Tp3DHMbITYK4/gEcg/Br+CXKud7yzuDJEnGjXkWeB/FIyYw3j86AkmN3HPnzQ94DIFAIPi1jC5mwb5DzstucB+FUdUMv1f65gWNGOWmc6+485Gdq8+zre14nH+4j+BX8EuV8/2V3UAysYUzZ85ozOqpPTHzU5fmMRMQEa/YvVllqwTbDhzU3fOth694BIFAIPj1mJlIUKFoETBPXYL7KLy6p/3GJiFx6/ZYrPI7C59oxKiX7PtG08pVfwk7V592edKwOCbmjbmP4FfwTcp59uHnUGHSBfgYbqxBJW5QOdtxl5ZzExuyF+CsL/dIIBwZWhSsszXiLoFAIPj/E3F3IfleJoJ3b/aw7+azSB4QB1ZE+XaZcZm7VHDlPH5oM5Bsc3FPNZGQjIQ7ZUgtlPMv5quV84TdjyH3sJOQf8RJqDz5PPeNH59TzuBzmr0kC64Hcw9CbBjMHT8QnJ2doUW3QeAZwv1VvL1zDJqR8M5DpoK6VfzktGHQqv9YZl86ris4N2kJd9+ysqIBZ7bMh8YkDefmbeHIjdfcF6mQwQJ67vEgtmAY1qkVi3P3rZEbIXjdPwOtmzpDyw694VVgLPclBNxm/8GYmbTlEo8EEO77HAZ3ac38+0+Yr/k/TfTOk03j1p1Y+OCuzjBy5hlm/xrmtWxqJN3ePBTg5ppR4NxuMHchH1+cYPHOvdE2g53aOBefY4u2cOIWfWYKZ+f10buGM/gR/2Hkec0+/Yrk9Qfo0swZWvccD+F4ih6hMGf0AHZe686D4c1H1fMlDOmIaW44+4b7cKI9+PW6g3zGiM4Yd81xvdaPmLc8blcW99KWccytvRLAjXUDoGHb0dylJejFSXYOzbubBxYy+9oTjzBQD4/bR6FNy2YszvS1h7mvlkWje5DwxrDt8nPug3Rh96mYwRNX8BAt7+8fhZYkvDl5Zv56H/A7G2eSvO3G7FvnUDlrDBeeBjA3JdzzsuYaajN520PyvF4y+13lFAO6kfAJm+8xe6zffYN0Fu4wojAI2xdOwnepZWe4+vID90U2TSD+A1ZzF+J/04Wk11bX/zqnC5HDedpnenz+SBKnJail984JFwPZ6jp4KQ81DpMJvXOoeaOqqywbTL45RuI4Ow/jMZDj62cbxBm16igPjZuxdfNAYqdixBYDNuYStJx6DgPi4EvKef/jB+x4J4z7cz7dX0X8bWFuz1wgCeX8S/kq5Tzj4DOimE9AgZGnoABRzvkGH4GKg/dDZGT8atCfVc5um9jLseouKlDvi0uYW99MPqx89E9Mb6wX7gjB/FZWNywBqUrVg6b5sV9GNu0XXcAIlNggo33JueqO4xEAMlpIcPTOTYM4jYbt4TGQvnUyGsTpNIdf6+0BgzDZlBmygUVZ17OikXAzeMHLE4ZhsknEwgs7kbSarmP2r6GxlbmRNHPwUIBDg8qBlLIwdyG10yZm8TY+4F/laD9IbJCGBPmcp2A4YX3rnAbh7sS/eCLynFYf0gszgSt+ikr0OWv8XZhyRHkXiqZBv9RNJnEf5NHaATx+Jp2SLe2Ace0ajOE+yLNNQ3hcJzY4JvzZbua+oSovUoqmSQTlOxtXhr7X6cdMgnXjmvC00NiX7cFjIPUL2GjCmUmSSTW4Jxyyk4+uOrz2sF08DCCdyl9nUuTQDOoZXTuLQZylZ714KFEMI5uCmVMeGFTNXhOn2rAtLDzkwUaNv9qUHX6S5PttZj+pJGlABhJefcwpZo/1wAK4vsnoPJmFU6I/3Dcap/KI3TwGwKgaEpjk689diOehgSReclLPQ1qmk8Cq9ULuogSCNUvLCmRV/2/DPJpryMapMBZY4mJ3jzJGz3uoKk13L+xkNI4kFecxAJyzpTASLkG5vsablxVi2HOtOBm/LyMKJQMpXS1mj4svKecDpE7iSI4DVt3hAcjCHsXAIvsgWNA9u1DOv5h4K+c5R55DPqKQZcWcd/AxyNFpOzjVWwoFmy2DwBDjtVI1n1POzbKnJC+JFamfUmIhD1GKZklzglcE8yAV11eQPY05pMhXh3sEghV5mZLlb8tcsR/uspes6Rzy0SBQ5UzdFjmqA9bvIqB5XvpBNAMPfquLGpEXjsTZd1v5yI9uXpD5BXF3elNyH2YS5G3Qj/sAjGlZnMU564l1vJcHBzG38xC5NB8GbSs7Mr9bgdoxkNfnkvsyL8ldnJAnLG6Gukqp2uP2YbAkfrXGn+U+nGiM+5Q7Zb5VOZcgQjvnilJXfbKxOUk/O3cZKudPz9az61MjK+fZdTIx96F7b5mbMtQ5L/OT69ZMOWeuzV0KJZNgWjX7rWHu0FfXIRl55pbpqjM3JYelBImI4vGSbzP4JeS0tYDEJZtxD6Iw7STIWq42SSulpqbbt4o12NomJ/4ZFeVsL0HmsjRucs1I10E1bcHGlnzopPRcyUVBWnJvNWYorRsQ/RrMiN/2V8ZHL8rKWZKSgKs73vCagXWZ3+RLtK0AwOvMfObuMmM/c1MurMOCwebneJdn5rdh7iXnaBEGYGmfysRtAnKDDFXO7fa+RwfhyRkswEw/h6rn5Y5RzN1u1k7mJjcOA6tnJfKXBOSKLlXONI6UppBOzvpVzMD8rvmjW2bXkHpE+TtxF+cblbO6bWNF90rEz1SnMHvnNiFuc7jpIb85YdC0BFF0lsm5+9uU84F/6XVovnDlHOHJ3DX7LWfhMm0qOn5ROS+rlQ+KNNvGXYSw8ywtfeVsWqg+dyEX5lUj8Whtl/DuMDun21Jt62NpS9MvKuewxzvZuQ/4I/I8M5O57+sVItV8STnvegmwqntmSFxG+c5RipHC88j9r2FOx8xCOf9i4qWcp5Mac66hSo05/9DjkKv7HsjYcCU41pgH9pVmQPFmSyHs0+c7PphyJoJob2+vMmkgCfkY0xekxsh9PGY0HNs+F7bcxI+ZzIVRVcmHpAizx4Z7wYhOTeCR6oUsQdIoOhJL/aiczcGTuWSCwYTE6bvhLnM9v3cS+vVfxuw6Aq6ye3nBZ3fR0qRknhkdKvKTwkPGFi7MXi59UkhcoCGzK8SAI/lfebpu527k5OQiJL2i3IXERATBwlFdwFfve18ulyUUaziHuzjeeH/X/LVK/1uVM+1PWn5Hmcp2dVkjkn7cyrleNlOoOx4VtKycn945DgOG4rPQ4X2OxXnDC0JMOWeshg4VVDlbptUWVgIvz2Hn4scnGg5vmgUb7mi/PBf+KwBS8grchcq51tC1YE7Ou69rtwxjinTuZKqEtMq52kAXSETCbsulMFJTpXFnT25J4srKmSirqlnAOnN57gJ4vKYvSKbW3GWIrJznnNcOniiTMTE4lmrP7GF+bjCgaVdmV+NAzuu9H5Xx9UMroHprpRXg0/PNLF1P/o5Q5dx8w2N0cGhhbuh2N2ZvlkUC6/wDmV2NBflIj9z2jNlROZvCTb1eGvpc/pmg1FQpa3vXIM87HXdxvlE531VfzwNbJ+RG+ztn98AoF233zCfX6SSOja4g9fXKOYLl7eoNU0mcxEw5R/tcwnvRmx3UtEzaLyrnEWUzQZnhx7iL4HmQpWWgnPPV5C7k0BTaOobKOfAKVaiJyBuqpXiSLyvnVT1zk0JWAe4ixPqDKbl+vblxdzN+STnveBoF/q4uxG6qe4axoc9Z2FNSxpzZQSjnX80XlfML749QfNwZRTEPOwm5+hyEzM3WQ7qa88Gh6kxIW3EaJCs+EaYsO83PMg4qZ1TEapM+bzlYtOcaj2VI9Md3sHDScLAhNVjJriD3lQmH0aNHQ7u6ROmRtM554OtOlbNZVsPR33WsJLBpo6eQOYfXLYAKOWgtS4In/KNNP5jZqvVBh4qJLQqDpQMqlfSkdNl4wkVmV9Ousj2kyubMXYgx5ayP7/ObMKoP1pwK1pvIfTmfUc7pc9dnz4Ka/5Zs1NQK44IWVs74cAfhc8r548NdJMwKomMC2T3omrU1xMBBl/lQNiutgUrwkpfu41TO5NmV/U+vrzzKm5278pq2cEaJ/vge5k8h7wL52EiWSv5S5Vx22EWol9MMWmx4yPzCXuwj6aSFO3t6kKNWOZcYeAac8yWCJmuwoBb+mjatp4F7B/uTo6Kc/U+PJm5LkL/hXcvaQPJy07jLEFk5B8gX42xtT/I9Ja816fHg4l7o2rAkO6/9Vm3fsvu1HTB6xBBITsLs8rTmvqic2+xSip6nlvZi55/2pReOgTTEnr16a937IJv85qZQrBcqLaacbfUULqFHJvJsKw3nLuRzyrlVfzn9sbDzhLZZ1JhyxuID0q8iUTREYRonHDYt/g9y2SUicZKCXISkyllKXVzzv/o1p4Vx48p5/7DKYJ2RFJ5vz2LXYjXn2DDWpZWrZjcIUglKq/IOX1TOVXIngdabVQWjb1DOdBYILTCU7Tpb965RSsVDOduT82pOUlpdKD1LJwWzpHm5y5AvK2f65AIhCbEfeIXNKPc3dCB5XpHZhXL+9cSr5uz/MQIKjTrFBoHl7X8YsrbZDOlrLySKeRZTzClKToLl21x57LjBZu1U3PV5PvnehhwZHNiLQ00ap3wwuQ35gKXQV85Bujim1inBi0snVc7WeSujQ0X30hLYlp7AXRHQvEwu3flJk6eBCXOmMbusnLMnIwLUfC06VCxpXwHM7LMxux2J33O/dgAUZU6TkpAoQz7uQuJSzo/2TQOHlEl195KncnsomMX6q5SzfK7aLLnqzWMYw5fFcVcpks8p5zpEqTWYcIR8lN+y8xTlHAGNS2IXATVWKexh0qzJzP4l5Uz7nFuuvc1dMmHs3GmHcXDeJ+/bkDNDWl369ukLwpQu5HqJtcq5ZN9DcHJETbDN2Y75bemSFdLXHQwvN7cm52mVc9Ee++Dcvw3AKksr5rerVy5wqNEX3uzsSOIqypkUSVit5L+T9DkGs5r54ktxP1NZOcuNsjKui2iztDIadsXQZmBD/jv7T2ZW0HDoLNZKo6+cz89X+q6r9VUGKhnrc87Vdj4PVWTCmLH9B/vamXK2y8jsaqY3NQUpU2fuQj6nnPWNSdKsOE2HEJ8+58mHVLITFQxVcirjN5KndoS5U2ie6Cln1fmKMaacg9l4iH1voiHoCq2Bc+VMuL9lmN75aL6knPPbkHfgutIV9E3KmbBvUh3NdWXzWeXsjy1Sxo0J3FPdlpr4KWeAZoUtoOAAVPztyfenYnfsbhLK+dcT7z7nN/5hkHfAEcjWYRs41VvMFLNDpemQotQkWL3bcBK8MT47IExNdAjYkBemRKN+4B+mfCYPDSCKwkA5cwLdIIMpUbAVUfFS5Zw4l9IcKVMnqQSpu2ETbNs8ycEyVT645CaLK3lXPY+zl1VWzoUzJIJcNQahQ0Wfuk5g7YjKP31iCZpMUvVLctpUTAVpcuDHX8aYcv74dD+7Zu/pmzS13RLZknyVci7fUukHo60N1XJakrgZ46xBRz/dAJJpeu5CjCvnQgDvt5G84x/IKK1ybp7NBqzTFoIrr5SadPhLHAT3JeVcgiioGouvcheH15zX0aZsUkunTe/Fmw6BD+HKfz48itS4DJQz+ah40eumYH6ZSL6MOvAe7q1rRfy0yrlIj10APkeJvy3zy24twZA9b+HRZlJb0ChngMZpzCBD66kQcZc2+0nwQfvoNcjKWb/7b1s7ku9pSzH7xcW0X98CVh6+xdwytEakr5xl9kxowdK97IMagCrnHLXaw8CBA4kZAG0aVmDh3VbQQnIEa+KeeOwdixsXTDnr9yMTemQkBd06ONNB5nPK+ZLqzz4+t4k1ixcbjoPXjCnnNr3pPVPTDyrmxjm01z5g7hQl8ulQqBo89VaKN76nxpI4WuVsUmAIdyEBp4eTOHrKud0KOD6pOnnvmjK/QD3lTAl/uosVvgpXb87uKYej1ReUsx+L/1hVoI1LOUt5a3AXoq+cKa9P0aZ28oyad2bXtzc3+axy3tu7FCnMpeTPT216sYJjvVGHeEwt8VXO12c1A9NU+YktktWit7/Gl10o519PvJUzxYso6JzNVoFjtdngUHkG2JWdCvPWGyqluIivcn5/aTF7YfT7Y+rmttE1a1/fRJsfHZldZtXQcmCaGGt5rM/ZJIVOoJEA1ow7eCtt9vzAmpUW6y3ydXUZ7XNUlPOSBjlAssiNDh0xkM6M1FT64AeompMVJCmk/+JGQhpSWMjbU9t3Z0w5r+qRnvyvJtwlEwF25Bpfo5z1+5wD7+FoW584lMnG9sUhRX7sB5UxqpzTVYIO+RND5Yk42E6rnH3YM12N3Zg6zs3DkfRfbNZOIoFd9ubchficncLOfUKqX+9OYf+z+ltIqZnJ1qBZu2RfOmYhluXrmdcv2Hm05/duXMqZQBXJ8Ve4ShIdXvXQiHK+torW3PLDxv65wLxwB+5rHFk5736hrcKUSp8InMp1Z/aqpEBSfLB2KhB4n2Lnyco5R7oU0G7hFWZHQln4jONYyzTW5zy6uDVIJbsw+z+OEtgUHsrsCqRGbZIE/t2AhQLsczYH/S5j+kyaTj3IXcjX9DkPrWMDtqlwdPoX+5wJTqQQ1WAa+a9ROFL7gt5gtEWdSxN/PeUcjz7nlG2nMQWz9xk20xoqZz/2rsj5QvlSn7P/BTq/OAl3ceJQzo5llQGLFAPlHHKPnVey9yru8eU+50JpTCBrRW2Xg0xpUrCQkmMBUJ/4Kmf4dIu4TcHzJR3jkFQnM0I5/3q+SjlTPH2CIXPtOWBfcRos2apX4/kC8VXOwY+2shem/xK5LzIWFvRuwPyk1KQWRwh1w+k3tQby9a3DPCE77ZNOj4KFA8Jof3FH/oJFQBs65UCyBD9WlQyHVCQ8QwlFMK8eWY7XIOYZrw3E+KEyLOQ8UPeiDqyflfndDsA6qds+WlCQoOUIWciioWsNHPV6/YO23mpMOe8eV57FPfKUfzaCPcG5mB3zK1xfmY7E+IxyrthGVRCI/Qidy9KpGsoHSx9HIrCz76i+KIQnm2gNTWl+ZcqZXI8OXtEVdDTKOQxSEHuWsn0xjHD5ABauqHnNT/qccqbxei7HvA57cxtSmJNaT078EATfXsvCB62QR63HwKLevDkwaVnup1bOAD2zmkOmTOkgkS0W1D6nnPvlsICMGZzA3IrWFowrZwjCmQCOFmbQY8V97mkcWTlLSdLDc17A2zQcF9hZwUeqtUtJws2zgycvfXo/vwzZSF7QOB12YI9s37x0ilsiuPgaI51a1IeF732OD5Qq53Z7Vc3rUf6QN7E5JKnYizlvLqf97KQmvUhWsuFQP3dq5icPmEPlLEGqAnV0zfBDqpGPMPk4P9Frl/+ccr6uesG8np5jfbmZu2BzqDHlrB6t/eH5GaZAmy0kBYaYdyy8YjulT//YspHMj451kAvr8VLO6fF5WmWpy30MlfOiNgVYHE9VZn9JOXcuYAoFBmgHecKnCywddRmlcZ4UYF9aO95EXzl3yEO+R2baCsRnlXPIdXadcacNx2JQrs2vxcJd/eU3XSHeypmQktTec2TNBtYFlMKdUM6/nq9WzpRnr/1g7R5tk1x8iHezNlFuRW1QuHQmTWFSo6b9wcoHoltZUuNUxyFm92P8qrABYTlKQSUupLKZcESp4i3skF8TRs25Z+7seMxDnsNFPq796LQbbbx6Q7XznPvUMpxT2nzicR6qYEw5x4Q8Njg3f51RsLJOPkihV/r+2j7njsuNCCR5vsbiag0OLpGVc+1xB5ibodesPbul0m8vmysvsDZ6hi+YHqdytiD/tcc4vfOTwmtdxTMK8lNlpg5PWQK8rswjdgedwlUrZ9dVVMFKUHkGKvTPKedb67qwuOWmnGBuo8qZUDIZvbYpuGnLMgbIynl400LsKJv8babyGESRnKP3roRR037VHShK8rDeaFRkUX6Gc+ulrMrzM9bnTM2Kq0rXQqcCqIzVptlsZYELppxTZYTm+eiAKyVO5xWqtQA4X9PnTI0773SOT58zLYT48efao4ytXpgNvH3nyuzykjFfo5y3qDJMo5xDn7HwQt3XszCZzynnnPrvoRHzIVhZq7pUayygyKiVc4QbjlJvs0Q7EPZzyvnoDOza0Gt4UAjF70jZcXu5h8LXKOeF9bGrYfg+tvo2QyjnX883Kedv5dWR+VCrtp6y+Qzr/xsEtWrVgtnb+Oo3Ue7EXRMe8BoJ5fohF6hP4jRp1wfeqkr7rOacCSf8/9uzGdT9pwO467eTEx6c3AB1a9eCTgOn6QS7D0lv4gEc8SvjS2o3LRvVgVr/NIHrr5UPoBrPW8fBuV4taNi8Ezz1Nj4y4/aWPlCrrlLL1BEZCCM6tYBa9f6B0w+wr9Dr8mLyf3Fwk46AJ+yZPAnWlo77tK3F/GXj3KwD3H6jelAaUDmXqqo9RzbVSucGM0uslbquGEz8autGKzOi/Vi806+VB37v6FqoQ/y6DJ6lW9msJ3H/dwRnZJ+c0QVqtR/J7GqYch5PCjEhr6AJid9hxAIeomX9FHoftWD6Nq44wl4z92P+F/s2qwUDlvBm4A8PWdgtf7yTlyenE3d7peWjZS3os5CPrg98yuK6vsfCmPuZ2cTdRhdXZkHbsmCeKo7xDipk5Uyf19FVY0ladTXzv2U+vr0H7ZrUhfqNOsHLYLzPPSM6wz991YuoBMHoHq3Z/f23XlvQa0P8qL9snJt3hIf8P6h5fX0//EPe77rO7eC+l7qOxpWzjQOzzxvRAWrVaQ4P/QzToJxYPBpqNWnDXZwYN809UNNzzDzdYDBKO+I3ah2O4I71vWMQv1P/iXpdTwAXNs1lYX2nKQMx6bux+ibK3drRtaB2D+2MCz/X5eScJrp3b1qbWlBHtTYB5ePjHSROfdZKsP/fVuwaejOpYMqgVtC2jzywTkvJLEnBsWAFdp6BqUkH/EkQEObN3C166HVHEVy3DiNheE9z+tQk3wFtzZrSr0EdGLxE26UgM7VZDXKOoQyp6UWuXbue0hoo05C8A/N2GFmpLtqL3e8FeY4e4cODA8zPW/Uq7JxN3o+6ymIxgp/PL1XOvxK1chbog8qZr4lhQLArqdmZKU3GPxOmnP/98nKF/2+qppGg0mSsAX4OWTn7xjUKLwGhVs6CL1Mygzm03qw3uEImCpvkjRfbBYKvRyjnvxJUzhfj2GQk6JpQzoxIbGqJeHOCPS/9flhjCOX858KU8yb9tfk4kdjVI5Sz4EchlPNfSSzMmzcP3hpp5qdEvL8N8xboDXr5SSTsmrM/++BSY1fCcCEaYwjl/OeydfUCOPokDvUb85HJVBzTjAWCr+aPVc47ezeFnFX0pycJEhpN8+WE+gsMByAlDGJgbOtKULHV0DhHvOvz4f4OyJkzJ+gN0k+QXJrdH3IWKcddAoEgIfHHKmeBQCAQCH5XhHIWCAQCgSCBIZSzQCAQCAQJDKGcBQKBQCBIYAjlLBAIBAJBAkMoZ4FAIBAIEhhCOQsEAoFAkMAQylkgEAgEggSGUM4CgUAgECQwhHL+RUS8vQbDh43R7ZojEAgEAkFc/BXKma513Hu98QXrSybGtZP1dmD8bsa2LAuWZso+r8w41OGhAsHfS7jbfq1c6JmND41vWykw5JPvYyiSNZ3q+ZlD6RbjeOifRKTqPxqaBtOu8nh/Dn+FcrYmmTdk63PuUvDcP0yXuSE/UDn3Koab3Ddq2xWGDBkKQ4cOhVETZ0LQDy4ACAS/I+GvjjD56NofZUPf3PX5DRYmTwD4P96u+341bd+DPbumlfMxd5J0lXmsPwVUzpWb9zJ4X6jZdN6Dx/tz+KuVczpVzfaHKecPriy9W/HYXlAg+BuRlbNbCPcQfAORkJQ8Q1PLIqC/udzTg1PY8+255gb3+RNA5TznjDd3//n8tcr52NQGLLOXr5jKjvrKee+WtbBm7fY4diP6BDvXrwOXdVvgQwz34txdOxSkDF2Z/bnrcXBxcYHbrwOZW0f0B+bvT+3hHsx++rY7CzIkHPbvWM/iHDp7m/tpeX37DAu/9MCL+yCHN66F/Rfvcxfy/MZ+EncNs988upudZ8wEkf/14sZRcFmzh8X9WoLc78Faks7OI5e4j0yM0etRs+3aKx5HJhy2byLPef1mCOU+Wj4aTWfXuRcs9OmZDcS9j9nVuJ09BKu27WL2IyT9fefvMLuOEA9YQ9LZsOMI91A4t9cFNh9VP9NP7JqPfJUXIdTDlfhtJP8U8bhzFlzWrucuTuhLdt7d99pNBsPePmTX3nbgHPeJm5PrVoHL/pvcpXBsy3rYfeo6dwEEPL/GrnXsmn4BNYzlkfzc1ObiQ3yXPrpfIe5NEGfZNcKPxXcLkEdTxMAm4t5yGfPAGN+inM/ux3d1++4T3Edhw1r67vtwF3L77FZYu15+hmHs3KcflBEfFw5sgUMXHnMXcmLvVhJvLTx4r/e2xYaz86nx0xs08snnGfPftP0U95GJhsPbt7Cwfce0Ta5bNxg+bzQ7eYwvc3naP+wZHnvPPfRom4VWOnJyl8K+7RuJTK8HH/0P26d37B5onSLa7wmzX3rmh2EyMZjXilkLV54avwH/p1QGyH8/eYv7KJzdtQn2nbrH7Ed3boA1m1AWP8/XK+enrqfYPazbtNngO315/3bYfECbZyGed1l8+dHsWO8CJ+8q13t96wSs33GAu5CbZw+wczZt3/3DxxP9pcr5AyQifskqjYR3x6ZrlXOoGyuRUj/Z3P7Awwj3N4/RhFHTaYmSyS6DSkG5sVuga1FHTZx8NYbyGISwe8zP9fEhTRyH0u14BOTU7HaacGaS5mICJDOuXkFNeOFeq3gIQMVkFlCsywzuokSBLYtnxlzDymfWnKs2TyMANo6sDpJpfhb3axjcILs2vaSO4Kf7ukdpw1QmwwBlD+kn++cbhM/Z94yHyrw2iENNrrYbWajPlYXM/Vpvk90KmcygII9TOUUSKNx+MrNTTvzXXC89K7ijyv82BSRIVX0Wd1F8WLxF15V+0reHBxO/ZCD7HJ7cCiTzpNyF9K+M78fUC6yIxpjcvAy/JjcW9vD6M92v28dWI/GsuUsmFqxNJRi615O5NoysrEkzc63+zB95DxaqMLXpOg8Vm/u+3sSdkqiaOAi8xeJvfigrtCiwI277nnqFERVfo5z9bmzV3ZNizOGKl/K1tTaXoPscrQKc2DIdJLJqzV1eYELOW3UX7/GeSz+WTqnWi5g74vUxg+eQr+kUFsaIUfb17rJNW4Bc3wtlKEVGZ+4D4LphrC6+ziROA3JrfXL9sSg6kx4jxIPa+RJBonSFucuQoHfupNio4HtrN5jpXa/fgvM8lOB9ivndurxOEydHk1E8AiHqpiZMNtWGbuARkJ5lMmrCTVLk13yzWuVICWXaLYKGWUxU8UzhxJvPbcz6NcrZB9JbKdeXzYh1SoG1V7GMkKakkmeUV0f+Y/GCuTuzpQT/TLnI7OGvjrIw8/T4zGP9boKNKm3ZbLiirSB9D7+Fcq4x4iD0Xvjte/7qK+c5zbOSB2kKz8gb8/KAtuY8sowtcSeBQ3feQWyoJ2SwtIBkRTATYwJusLiWmSrBu9BIiP3kBXXzpGV+W9zwxZrWLDmkSUP7nC1g66VXEBsbC0uGN2ZxOizlHxCunOkHo/ucXSzOwsF1mV/3Va4YJ9IdTIk7WfYG4BMaweIcWDSAxem78i6LEvX2AHMXbDmBha8bQj/WEjwMwz+jr5xd5zVj4bJypufIJmUSCdpOOKtzU75FObuu6siuUa39JIgi6dw8MJu5U1STP3aonLuT/FRfv5qtSjmHPmdxUueoAG+DyH+PDICO5XIwP/dwnZYnRd3rzE+dTmUnRTlDbAALH3dAVTCLfMn89rrjl1KjnMMfsrBkmWqAf2QshL2/DaktTSGRfWkMJ/wI5Rz7ARUaNbJyvr66F3PX7zMLosn/CHh1CZyszCBRmpIs3BjR7pj/V1QNM+H3lxO/RKxVJjbMjYU7lezM0jw2tytzb38m3xkq50GHPDXPkL53366co6F1gwbQbulp7jZEVs7Lt+2Dfftksx8u3nzAYyikSkSek60D3HIPYvf28PQGSELOtWs1h8f4euVcKbUEPTbeZOnR95F+H6REDnDhhS/xi4R/W5Rm99dyMW+V4Mq5ZAk7cKzQE/04mROZgqmpmaKcYwJZ3CQZS4KH/yd2jdPrJrHrV56NH3r5OccG32VxT3nE6PziRyzkJgo+W6np3P0lgsGcXMcqbR545BVKrvMJRjbBguB5T/4ucOVMzYgNF0mcGBjVtCRzzzjDW/W4cj79Hu81MjwQelfLxfy8+Auya0gF5u4wbROL43FnP6QibutinTECoVWO1OSZmYBlhqLgHRoLfs+OQ0oSRzIrGHcLDVfOnaesV70z++DERVeDc0ZVoQUmc1h26A67h+B3j6BAKlPipxRmvlY5z26SBrK3nMnSo9RJY0Hi2sLBm6+Zn9ejM5COxJfsWrLwH0GCV871xx2BISsuQ72xR2CUC1dcX4lGOX98xF7Ugu2WMqe+cu7ZrDI0m7gfHYT9PQuBlLYss6/uQxWEra65UiZTMjNIX7kXs/9bB1/wpbe1TWMjK9uRGiT/yHPlnKv5AnRz+pWyBsm6KrN/encLmlQuAfrlxOLWplBz0Fpmf7xvCWTKmJHZEXeW7p6XKCla5RwFNkSgx/z3L4mDylkNU84TtU2p36Kci5Fr2JTqw13Iss7kGRKFgaBy7rEIX3oZtXLe3q0gqTVmMRC6IikkKDr6KHcR3p8kaZlyB6JRzoT2eUhhKs8w7gJ4sHkEOceCu7TK+ew02lJhDuoKXeyL9ex+L3MF+COU86gyKaBgl4mQgpwnK+fSRLBT1Z3E7DpinrC0D3rG9cmKhYxEMVX59wx3k8Jhq6JgmbY6s9PaUs406UFV8We1pwkH5MEzqJwHH37L3cj3KecvIyvnuMz2a3ITdSAMal0NVt3Q1qgWdU8HkkNH7voa5RxG9BTKnh8XYs/jWMu9EYBumb6lM4Bpskzo4Mp54eYlRIFkUt7LyGfEPym0alFCp5yjgl9B+5r54I5eT1bTIqaQteZC7uKE4L2cjjN/4yIa0pPzCnTZxt2fx3UWLZQnN+ibbpKVvHMt+TeIK+dao7XNtg1zSWCWhiscrpw1lVffS8zvAXvJYsGBFKZKD9jKgmSi3TG/X/KqPFXO9H6C0MmIfIkj+A/E2VSEyjku02+e8l1Y/19/qNxb+QZQAq4uJfFMdbL9tcqZtrTucVOkYPbgNtBzhVITp1xa0oOcn5a7vp8ErZz7LLoALaeeZHZaYCk3aC8s3m9Yuv4SauXcq1wK8gAT6ZpZ9JWzzJMb1+DUwXWQmISVaL+Y+TVNTEqf/4xndjU7emYnyqQEs4+rjS+LvgL3u7aM+b+nAVw5H8SWRx3P94xk/uqXVkdYAJzctRzMTCQo1WMu90SiP3rBpUuXoGNFOqUiie58tXI+P5coiBTFIeA8rcl+jXLOytKm5vK1W6DXQmwA/bCP3qw3bS1G/XH9snKunD052Betp7uubPrWyAO2Tg1ZHErIzcUkrVTchegr5+sLupEPqhV3AQwqTPKwgdKMTZVzjtrdWPrtKqUCC1v9Ua7RTIGN3oPNmd+tnCPusOdPs57WAFE5Yw2/x6ydev/5MlgSxdNrUdyF0rFVs0PibBW4i9SoyPvRYpVeP19MMEtvRCPsAnmi+0rHVznbwnn5nq5cBX/1V/47lPP99yEQEoLmg583nNg8GSyJPw1TN8kqRMGN8wcgQ2JSCzJV3gOqnP/pt0L13C5Bl+qpDZTzDvLQF3TMBXZ1lKlGG9rnBCl5Ge5S8DlBZTExjgvhynm9KxZ+z3Hl9GhlKzDPWBNGN8mpadbWEBkCFw6vg6SmEmQsOJF7cr5ZOceAEzkvb4t13P15+tTIDkkc82qeDzWzuhP5NuO1Sa6cr+l1NZyY1FZ5d7lyvqXqXN01qT7xMyNvMCH8Pgsfv/Wy9lqXzzDltvCSLzuHKmeHKkpNGolk3SHNXQz7qBFUzv8dfql7Z4KD/OH+5d3glBTfmStexnt9n927AS1KOLA4WBRG5ZwiT0XNfe6cTZWrVjk3W/AInm8fBFKSQtzXOPdunIeyGZOQ8024z/eTYJXzxI03ofJQbSkuOiYWMrfdBLsvvuQ+8QOV8wuIfI0fhSbzrvCQuJVzAwcr5k9fvAvvscSUlwhYrZHaEhnlzvo2JB7WYBf3oM08hn1HH1/tYem50a8OV844JEIh8PEW5u/JdVnA48NQr0IB5kdNIvtCkC2pBVHO8zACJ+QG9q1SU6KF0tynKOcI9uKvvR0EXsdp6fArlDNPV216LbvGY+jjxcLl5kPjfFk550lreE3ZmNhlZnEoD9cQJZi4AXch+soZIrCpetcbmsEo4PNOKf1CVDmr07dMof/RALAiH/+e81BBfq9y7l8+NWRuOpPYghXlHPJKcw/6xnl03IPyPl6bSeIkZi0s0d4XWfyn+o8/FGs31DhUNOxz/rJyNryn8v15jes7lLOxPmevs3NY2Fy5rT7CHdo2Ur+HKaFumbREqTTCcAJVzkq4YvSVM/o7cj9kYsGMYF7ciGJ9gzW5R1T0uXJ2uRcMnTOQZ7MU391mhayh8swbMLBBdo1yjnhzERpXwyZhZmzzQaEsFpCxkF7LyDcrZ4BSKSVwzN+Fuwzxe3ACTtzDfG1YJJFyLwaGKxOunPXqC+C+dzTxT4KOOPqce2/mzf+v9hoNl83AXVjApX3OxZzVY2GQUqTyk2fsYe7S5zN9zp+wG6zcOEVOxvRqDSlU70XzVrQQoVXOcpi+0Slna8XviUGFPgJ6tnVmhQ45TrN6ZclR25L3PSRI5UxryQ3HH4Wx6wxrDE0mH4fBKy5zV/ygynnEfi8om9qM1HBVzVKEuJRzgM978Hr3AgqkJqV0i7zMry5Rzpk7K8pP5vj4wqQkX4TZ905qaDSD/K9izdmDFu64cr6j11boeQr7Z2kpNPotCkvZZgPg0fM38JH3tZaxNjdQzrGRoeDl5QUbptJCggRLbuFXjyrn4l1nw/3lzcEsDdYI3x37SuVsmpulTY2722NoUhzncL8wWkiNYc2mU49oP/ax4YEQoqs8o3LutkA7hkCtnAtkMIVSjebrriub4JBQ8PHB0jdlVpfckLw9dk/IGChnQi47U6jcdQtE3V1Crm2uaealyjlfs+Es/f710pKas+FCMbQ2N3Qjjuz9LuUcggWFtyzfVco58h3zd7n00uA/fwwOhICQz7VX4Edr+nFfODmD5Jd5ce6vIjaSpXV2Nb0v8l/Wy6PNUTkP1GvCMVTOycGT34/nm5cwmvdFbr5PPmM/WDlDODbll59DZTyCyW6qgvXh+qOn8CEY69NzO2c2UM5txx/SPLdhDdMaKOctrwHmNM4IJqrFgFY1yQFSRuwGUPPxBi0kmJMnRODKeblrAByb1hKkXH2J5yf2Xlwh/6G/WjmH4P3nrtUL7r94CcGfUFAaFTX7ocp5RE1S40+cjrsMWdkTC/VU7JqXt4P0+QZong81gcFEnrz5aGuunN+gS4frvJ4GNeeMOfJAnjzE5M4FqW3IN5Uo+Cd0FSe/c/h/3mqv4/XeBz4GfSDPAj94VDkXaaS0XslkMSEF0eVxtRJ9RjlDNBvoaln2X+b6J19SkJKmgx1nb4C3L0q730WswKiVc6oidTT36bppFIujrjk3mXsX7q2n3V2pNIPaMttIkDRVATju+gh8P+AZF+fTMR1/uHKm0Ne1VP89MH+PMm2l54Lz0PI/bOb+GqiAN2/Tgj34SYe0o+k0yvnjMyid1QkeqxRP9FMcLUqHREypZ00UteHHr04Ga0haBD8WPmfnsfhuesprbRtSozbLgwUDrpz77nvHwmQ2dKK17gLMPqNjQUhkW4/Z1SQxo83aqJyXDmgMObtom7aKJ5egeG8sQVLlXH7gLLAj5yy+ji/Q1ytn/T7nUNbU/+8ZvWkWnOQkrILe6M3by3GwE94BKucJu7Qjr9XKeXTRDGCeEfve1ZTLaAvDZyn5X4gUlsbrjeA2ppz39M4PklMt2N66ENgW0NaS1H3Oxye2Jnlkyew6wh+wD/vmZ1i6+GblbJ0SxlVPB9lb4QhhjXImz4R+XKrPVPqOkbeQJmtROPFc/lwYpzP5z5m6zoNGKcyh2iDlfdgyqgdk52MhZJokMYN0LeTm1fdMES+7p1X+hsrZsM+ZDvJpPO0IUTA/WDm/QyUx9NA7cNvahbx/aXiAQiNHUlPRU87xHhBGauI0/SlnsEByd3UT4la6gmRW9ihPZJ33H8rK+ao3xHoeZvagO9vIMRWTZ7Vy3jc0D0gpDRcAyU4+9D9SOYfcwdkMY/YYm7IWxt4ty5IjmGtN23Lk/VNanGTa57WBLsO2oIMr56VX1SqIyGI9BzBLjF12snI+pyf6aYlfvfn0fQlg1+29XbsgSLTnWUhboBo8DcSPIutzTl2R2XWEPWBpr75ttFOP8DnlHMrCnHq7kPzFdC7qvVvH/8WBamrl/DV9zvbEv/igTcwe60bz3pS8VVqmOdNuxb9AOctkIh/aXRdewrj116HaiIPc9+uwJiUy+tDNUvGXTIW25hzBminS1x7Awigbe9KRm2astuVzdSWL22jaIQwkXF83nPl10y0PGgmpidsiZ3UI4x3PIU/2sThle+D8Ylk5SyaO4Mu/ix/dzzK/SgNQsc3oWIh8mKzBX1fjjITRzlgaLtNzPvOZ27kYcZvAvQ+YSFTAHVYTqjITm+2pcrYwIyXbFAWZm/L1ylnb1/L2HNbut7zQ/1wjqzvTQXOJ4IoH/1hHfYCMiSUwtauBbgI9f9z2J9yFqJWz/1Vs2uyz9BhzU04uJh9q4jfqGC/b+9PnlVgnSDLVM0qQp/Nu7kKivE6QuFbg6JgY2qzRXletnGN9MA+aTj3O3JRuFWhfVQqiPhGqnFPXxjEISDg7Z7VqymzIOVoCT85dXDmTOKyGoetMVStngElNMpFwU7jqKf+jWGhe3Iad56E/gEGPW+v6k3wqAYnIe773jRL5/IyKLM39j3iaEe8hKYlTqtcSdJOCBVVa/2PvHMDrWNo4fmI7TdK0TZvaqW3btm3btm3btm3bboo0aPz/ZmfmnLN7lKS3vV/uvfPL8z45g53V7LzvO9idc105wquvnD3obzUhby/S4+q9+iYQpK+c3715g3ffjCtrtXJWrkyWiES7/O407TmxbJ6sl+65OQ691B7foTktaLrKojaPSaByJgytmpYoUG50hjNl7VOin2aeyPd7e2g7kKoK7yWTKWfpvvgQo7BMmdTwrMXqjUI598lE8tri2U+1wo3F3M756PapcsiWZ0kYUc6xEcF4Q65heBz3vSidgWyGpUe1czyiQ7+jRGo2VHOOTnAhh/+addFX7c/bH8K9vexFJfXm8GeeK2cz+/QI4ft9e1lSQio0XMCHAblyviyvLlGfqbFebgpbTlorM6mzlo54+ENt8IUjt5fkXVtoJqSxCWEq9FuufgdCLJpndiFxNibmtDDlPF+xc8b6fqVp2uILpEaFsmtaf6a2Z+7L/T00ThJ1r1lClfPlxVJdtKRzIWKeModtzEHtuynuH5bmv0j70CrnqJ8/6H2MTrjtRUn0yvlnRDQytdmAkn21M6gTilo573umf+t1u7V38qUAcklRnXWXSAyqkEIv3TpTVZ7KeL5rlF4elSqpdrYkV871+HIGjVilJlWQEfyAPRhycctcHeNLu8Kj5mCWKZwtC9KVj/zhkpSzFJ5/RWvqJlg565RNxVW7tEiP6M/wJJ667jbn3kVj7wjJS2HhRVeUpq1cOUu0z6l/nR39K9C0T0dY95MpaTZePqbNur2keL6CSoNcOUuMqseWhsil6wpt702TAGVaXCJdebVyTltdPiFIqZxJ6wgX2XZqqT9a/6UbeoTdY/l1uzljfxgs8zJpoZa2VM+pUOGEvJ+fEJ8xZ2mSGG3E9Lq1WS+ARzu2osAQauVsTLK152ukYz8YSPfHnjldiGGbieUhJFQ548dlGp53lXmJx2brrm0nQgxnTQ1VKGeiXHKx5ZPTjzPzQq6cIz+dV5ZDxNKrIqY0Lgy3DDrLbIwo5+CLU2j8CcOdU1oi3sBHWmom25daBq9WvrBoYq1cennMXDNpe0S4cq5WUjL4tXksvWU9hUbGnCW5/Jm3XMGP6GoY3fQRW7UTeSXl7J+3CHUk5HmmHtB9j4EcppyNiUOKOjwfUDqJ/hj7llMH6X/1Ow8Sqpyl3gipV7D88BM0lIyXK5cje6VhM+2EsMc7R9D4F8btVJMkeuUsERQagcjoOMxIE/i6OCNFuW48pOTF/qlwdnZGiOz5OLd1Efx9nOHs7olRi/WNgtM7FyOtpwecPVJg0krlpDU1b28dRZmA1LTsJn2nK99wxZXzcdIub5rUkeZp1G+m3gzvtzcOIn/6ZOQ4fDF9DVsqcGFZWzi5a9e+xnx/hpaV89Ay8ldsiZfSq704lZJ7wjlFeR5ivD86jeR14yEtKb2c0W6iXKEBG0dUp+WqxcXVHR1GLNbr4tQnBFP71KfbZCvTAE8/Mmv3yNS2NK5Oz8U0LKdaMmdkGaCc+HRqO7kPvuQ6u/lgxDztW4Q+H5cqvZni2ORiQ4yDtlO0k/4kRtf1hspaf81wFT8vFOkgTdDSsmvJKCRxdYZ3mtzYcf4pj2W0LWx4n3ri5EjvsaR6D01uTeJc8EJx4YLhRfJNPSfXjD8xb2gbuJJ477R5sOO00ss3RTFv4pmV0Ok2lQj/jL4NStJjylioNm6/YTVxXY80NK79dGUvg4S0/27zWF14vbe39pyouKNaxyH4qO6zD7pJ4zffV5ueUUhFwml78u5SA4S/PKxTJpM0ASWx6ZBSqUR9eYT6pbPT9LYjltIejJ/3N5Gwo8YL8nV3Rvc5ymUtE1tlhEdS9YSpD3Ah26+6o51m3iZ7CiTJ3YSHiJF+8xCKZE5BynVHq5HzlB5czFe6/+WXmTJ+uE6qxx5Qz37o3yAn/LJoywp8fBYlAlLB2cUVIxeyN9Q929KdPLfp6G8NIXdpuafeKZVzyNU5cLC10us+NsbuNTOR1deHllW+UU/ceaPsmlZz7egGZEvlTY7LA93GLlW2N1w53yWHsmBQQ1pWlwk6s8GjbtB4uaQLKIdzT3QONPILJnSsTdOTBxTH8ZvKbm5JOfuVaYPQN5cQkNQVPukL6JehR6TeviVJmiI7ZqzRbaMjMKF7A1qP81TtgJf09WDBNP8SbmD1Kp4FaUpp75nEy8NS2+isMcqyeTujoawd2davIhzd07DrFvUFPRqUofkrthkO+oK88Ac0fPYLu5/P9k2k4dfaapcg/hHK+V8HV84HlUPOgnhClbN1Uh7SZ0JxK7TRUc7l3VWoME47HPHH4WObar/4z/KTrplecMPQIK7gn8jSurY4o7NW+o/ClfPf8U0ASTmnLKO/KkKgRCjn/wdCOf8lmHI2vth/TFGunNUOCfFQpOt9Q91f9Xfwgy3v+JPKmb+sCO+PSpMQLePRoyH4JxAbFUjup7um+v4tCOWc6BDK+f+BUM5/iaCbq1G+cgMe0mdd70qYvuU+8V7fwsKKjT/ZZmnEU/8m/gblHHJ9Oaz4+RXpY7wbWfDPIvbnA1x59osDlb+KUM6JDqGc/x+EsXfq6iwHFvxuYn+iuL8NvLNWxue/1Q0h/JBe7fhnlXPM96fwNieKua729aQCwS/xQVrRoAKfI/dHqefvgqTFm/OQwBhCOQsEAoFAkMgQylkgEAgEgkSGUM4CgUAgECQyhHIWCAQCgSCRIZSzQCAQCASJDKGcBQKBQCBIZAjlLBAIBAJBIkMoZ4FAIBAIEhlCOQsEAoFAkMgQyvnvIuYrjh8/qfflKcHv5/Tx43jy8Rc/BSMQCASJgP+EcpZeS9dxpeHP79VLwb7F+eM3v95xz5wByJiMfSxfI45FeKrgdxETeBs1yuVXXmcim55J33AT/JMp5KqCa8W5PCQQ/Lf4TyhnR9JY99nwmIe0hN1cqmnMg3+jcp7XmH2wPHnq9MiWLRuVPEUr4OZ79l1jwe8h8t1pdv/skyBTlqz8WudAvznsG7qCfzYVU6uQut5SHhII/lv8p5VzVhfL36+cf7IPHqx78De8Qf4/Tsd8DkhaugcPCf5tCOUs+C/zn1XOd9b2pEq0z9A+BpXzhzev8PKV8W86vnstpet/VurhpqFQudSkvyN+BOLly5cI0e1hjY2k8RE0EE1/f9XLpOXjO7IvkufTV8MKPyrkK03/HqYc0f5AjvH9lyAeYoQFf6R5Jb5/fEd/G5Iocj1Cvkl5E/Zdyx+fybG+DeQhRkx4ECnnld54+8/v7Pp8CzH+JeKwb59pni/BkTxGTTjMyX278pWFXpE8bz/yACcmIphuGyydjIx3JO7ly488xIlied99UpahRn0vdeWn+qSif9JwpE49ekPi3n9m9yA2KpRv94aG5fwM+kLTPgayTwWqj934HIUYmh4Upl9v3rx6iVdvPvBQ/Pj26QMt7+075b2TeE3iv/9k90i6zu8ClR/G/vSe1U99eaX8JnFkCI1/r7O9nB+B7/HyNbs3VDnXXUJ/S8fwxdgzEhuB1+ScpbKD2UOlIfwHu65ypHB4VBT9b0jefZDuVyw91+/hxu/AhzfketG8hvnx5S0p7xMPcSKkZ4HUm3h8fPvz+9ck7yud73Sz9oJtH0t/BwbpPhtaPr97Q8swdhZvyfbq81bL67efeSrZnpzj68BgHtIn9KtUvvj27Z/gP6qcI+FB4lT+tfHu8GSlco79gcxuzJtm4qb47N/323tlaUyWXNQq6dUDSiBHn1VY0r6MIk+TYVt4DgL/ZOT9L09gJctTuuscnoHx+vh8TZpaXDLV5amMHaOaKNJbLLzEU4AiDubI0XICDzHS8nwSA0ukU2wrl0ekkVvVvxT5nYnmjS9T6lhAlUz57eSvp8eRcizwnYclepTLqNhfsWazeIqWhjm9FHlyVOrNUwhhL0icDUI+XlTkUSXNB+1UsHD4kDiz5NV4GAi6uormm3lVe1fX9qukKMPSJye+6LRmV2c1VORRyzHejsW8PEjDt2X207fTs2lczprsHkQ+2qLZ7qKOfmqdw5zGF2uyjoa/XlhIwz+MtaoxP2j62D3PeARRypdWasqnYuaNe8b1ICXm22N6jRTbWSfFc9l5OJC4ieffI6m1No9v3hY8lSjRLLJtFWIOdbO+dnQDRZpXrmpKxU0YWUtbHz1KDkH9rCpkabYcAe7a7VrOvMBzM1YNqqxJU0v1nit4KnB6Vhsap6ZDQWcaPveE9XAZkjT5J5KcIfTZHHFC31hRU8RHhVS5x/GQPjNa+5PyKvMQo2MBVqf3m9JnYU+Q0kJ5TNOOP2dpsS9p+AxxHuTpBZrOZOlqQl8ivbOyjHlH9efdpJClq8U1lbaNqe6hgkOzBTykz7rO3mSbzDwk+J38I5Rz62knMGXLTR5KOLrKec+gYrQSnnkXg2e7JcWhVc4LGqSk4WGLduLSiW2wU5khabEOLDHyJSxImsoiCXaeOIdLp3fB19qM5r/4jWWZ0sQHmXLlpHE9pm3EpUuX0LR4Ghoefeg1yxR2i4Y9iBGQt25fmqdh4RQ0btwRnoeoMmsSVtmlwd4TZ2mewY0K0Dz9Nj1lWYKv07Bb1so0vVMZPxp+zU3t4i7WyNNmEgsQXuzpT9MlRSnx5sFtup0kzqThrdR+oSb8k1yPNQPLQmWejeaNL9Pq20CVsikPMb6emUD2aaNRzjMbSo2WCjX6zqX7mt67Dg03khkWQ0u70rh6gxfTPAMasnH87E0W0fToL2dJ2AeupAHyCaiK8yTPnsUjaB6LtOVoHolne4bQuBV3wmnYn5ynVdZm9LfErXWdaLpfkda4QMrYMJP1qKjc8vIcjB2dKsIlZUvN9bl0ginC42rl/OoQDd+RKbXiLqxu5K3D7kHk460kbIbUtip0XXCZxjFCYSntk0jJ5htozNeLi2k4LuU8fi9vtH9co2EL12w4fPYSzh7fAW8bUqZVOj0lKCefl7RfM8xcf4ie15ppPWg5yZtM4TkAF3NSx1wd4JyhCs0zoVVxmqfMsF00/dGdy/y6nCbPC1Ggcw7w8GXq9d1c14vmz1C6LY3fye9TiuLD6fYSr45MoXEFGo0kec4hi0yxpCnLtquehU2wvM+942+31tGwX8GmOHuB7O/8cZTwd6Rxz/lJn5nTnoYpsZJBp8L2c5cQHP6TH+MlrBsqGbiWmvCte+9J5mB6LqNOGlfOxZOrkDa/0viVM6udZGxoDcOYT+fp/iU5YEI5Z7di92T0anIdLxyGrxUz3Kg5GcuUspuNBTKU70GPt3VR9twPU9cFgh8twxLzt0r39Txq5fCgea59lVeoEHqO6/h5S1KrgC880zbg6UAtb+IQtGTPnCE2dEtGys3OQ4LfSaJXzgOWXkTVofuQq9MWrD2qP24cHxTKOfYr9QS8S/ekQV3lXDCTD/K11c4Q3dUxB1Q+henvbcOlRskSnxStXSTcSGObuRpraIZXYg9fj21aj0aidkZbqLy50uDK2bNIJxbmVPK3gip5Dfr7x91tSOfjhns6PVaZ7c1Qtd96+vvKwn4wN7OEtrOPWdXbnjLtrKuck9upUL99B5KHKWc57uQcmo46yUOMP6KcY7/RY2y18CxNU7N/ZE2iSDxYIIqdR90ZR1mYs7hTQRJvR1QZ8Ynf76N5VEmUM+ADz0yk8fvfa29ScW9LqHyL4vmGziTNEvdkvXRJiQLzzNWWhxgfT8+jZWx8or3469qVQrLaC3mIEHyF5jGmnAOvkjIsfJElvaeecp4zsiJsirL6JxF8dz3JmwNZMlj8snIeXTUrLB386W8t32nX/+SDym5dLZ9RJKsfem1WdrPPa0saXF+tAeMieXGeATzEmNM8Mz0XJT/pszb4sHLIQOqtSVZxNA8xQm5IvUJmeMUNyRb+ZB++dVhAIvwhPT+VrQ+PYEgGR/H2W+nvg3NbwtHCj/7W8pme8/rH7P7LlfOFSXVhnbwC/S3n1jJpaMuKh9T8fuXcKbcdijdtR4/HmHIOurmWpu94woxJSijraas2lzgoauUcoKyzTbO5wcIpB/0deIq1aRflXX6Eqqlt4V1mKg9JfKO9A/JDaV/eXyjnREKiVs6zdtxGoR476O/Q8ChkarMBR6/rj9fFhVw5T2qcnlQmM7zgjYKuclYTFRmJ4E/34WtrhZQle9G4psTTtSren/6Ws6x+WqicmAIfVpEpZ9mjRXl3jCkN+rxw5bzmET8Izp31XUi8BbFnDRP0+gbcLMyQv/10HsOJjUEkOd753ZhH84YXK1fOTzYRr9kqGb6enkr3oYtx5ZyVlk0lSnm8hqDK2a+xdhsiH0+MJftkyjny7mp6jHdDoxR5ooNY9/RdYmkEnZ1Bf7/U3V34VRq//nEMUc5seKHbmus8UYujpQrtZmi98Mg3XJETydtpFY+VeEcb8gkn9ceZUxGFVGzIER4C+lfLiAyD9vAQIQ7lnNtJheZLbiK3n42Ociae30OpC9yGmHWM5Y1TIlOjachLGntd5fwlXHuNFOgo50LuKmSqv1JxTSXpkF0Fr1bzaJ74EPUzEOXSSt5neR5DlLOZCq2nnechRtSDjXT/NxXDwAaUc8wnmm/OqQ/KY4uKgBuJH35MeiKiqZJou/Ac24aThyjipJn68hBjYC5/WOesxEO6xOLGzunMILnA+vPlyjkbqeNjTumMARNMKefhR99rjlnXTkqQcqY9PWYIjnpOj8eYct4/sQpJ9+IhLbfv8C5prpznn5MPEpHnm86hsSd3gNSn2lmIMVWQtmHya35uYhPSTvmyDSTC79Oy5OdlUDk3n68pIypaeRWEcv5zJFrlvOnkU6RryTxENV+Dw+FWazluPdMxCeOAKecnpNW/SytjQGdtucaUcxUv4umSeOmhfc6VRHZzFcr2lzfujGvLpfE05rXMbksUtcqN/pYT8nw7Le+J9PRw5XyLJWn4dodZzW/V7XDoK0wd1Bou1sSjpsdiA3crCxToMINnYARfnsXTVajcWzu2LVfOGUna8H0v8eHQeJIvAcqZl6sVc6y5ZNyboMpZbxtJbCBNnXm2XfJeDaUz2fMWuLuuBfmd3MAkllDYkzzDpYHe70w5LpeNHatxt1eher9NPMToTJSUdOxsuhXnBzMIThmoToXSqJCrknasrV4uc7RcfZuHCCaU848z0v1wpvEBBpTzZ0TQOnnyI6tYyci1H3cxApl99JWzrrQcv5mmK5VzDPx08snFOre+QaklFuvnj4e/j3ZNfrqU0ris1sN0IXEjdcdew+/RvLtfyu+SAeUcqu3KNSQt598gmULo72maIR1GJXIPUtdfxkOMDa2y0V4QNa9vn0H7uiVgTYxWqQzbFGnoEMGUi6x7RK2cJcneQvncqDGlnNXbqsW/UDPNMEFClHObvF7I2oCcS9RtWo4x5bywtSdUHrV4yABcOR/Xmc8Y/YAZvVIfSbscbIjMoFgnYRsQYl/soHFyDCln3TLMLFPhLfc+hHL+cyRK5RwVHYs8XbZi/XH9buzBKy6h2vD9PBQ/pAaj37Z3aJLFjlQkV0UDbUw5n965BevWLoET8RosPFjXaSminLN3Uk7akjg5pQhUZqz7d9OwCqQ8W/pbzrebbIzyhaR4uXKWNfWUD2fm0vhAqb0LZd16rmkKY96SVbj8QBoHAwo7Wuop56ivj7Bu3Tp0rJ6dbrPnJXNnJOWct+0UopAHQmWbiTYq7w4mUDmbpaBlS7Jy6QKkdWEPqDH1TJWzZxHNNpIsHi4ZL8xzfn+QHIvKEatk6VTWb8SmjRvwNow0uHv60jz67/j6TMf8Z10hGjD8LT2OJZf0PSFX4nHVGSxb6xzGu0iJ5JF30UUyY23nKx6WkYcoygKtNvJQLFKRfFueyPo0jChnqcYW8TBDk0VsjoQh5Syp03p5HFFq2lmiz6QuSzPaW2JIOS9dw67P2jUrUCtvKhq35D7JrVDOsUhHfhfpMll5TYls3rIZGw9ICtAw2ei4tDcmz12AA6dYvmU9spKydZSzbvfutwt0/ye/yh8cA8r5J5sXMXLRep1jW4/NmzbiwmNpskY4zTNi20O2DceQcp4nTSRMV4b+fnJQGi5RoWCDLli5eiPefJOMnVA6V0OpnM2I/n/LlPYZ/RUWppRz3aEL+fGuwciubG5Evv7MQIq3cg66RLf7LF2qcNZFbUw5r+0jXfviPGQAI8o5+PI0Em9Fn8u+efzhlD6/7Foz2bhpM9Zv3MY2INxa1hsqy6o8xDCknO2Lt9GUsXDmcJiR/Vt4MgNJKOc/R6L1nMPCo5C2xXocuKxtOadtvanp5k4IUoPRdQibGNRyzlUey1Ao54jP6FqzIuSPb8T1BTRdihtQwBIq9yosQUabjJ6wyFiR/n65ewzNr6u89g8sROKTs2URXDmPOaNcorB/KFHyxAOXdPP8ToVh4VCQJchwsiZKgyvnU2umo9p4paGS1YE0Hj3YRB1JORfuMQfp7IhxsoONgSdYOeuNOX+mXZBjT/MZcDrENeYc/YZ1R1/Q6Un+dmIm2g5dRJeXhT9ms5rP6noHd5eweLrrSNoIlx53mKZpeUMV+NjDWqXdPqsHuZa5cGMFm3H9QPMumDDYkHD7BVd4WM1X6qHXX3mPBb8xBfNR3rNsRDmfPL6QGDTOmi5rQ8pZGsq+OqMerJNXxP0FrWDuweYiGFLOumPO/u5mKNpEGvtWdmuX8lchVckx9Lec8gHlcfqRvgEj8fn4SFIG6wqV0zufNAFJppwtVKg+QNuoS7zlqxyUnQ6GxpzDaL6x+9hxaoi9j4r1e+Mdt3dykDz5BslWNBAkgyNJ+tY8xCjs74CURdrQ33mJsVy890r6W0MIMxp0PWeJbd1K0ZnoOnZ4gsacZ7fNQvIWoL/jo5zNreujTwln5GrP5yvEoZyvLGc9S4rRAkIKexVKNZd67ZhyHr1LOaflwMi6xMhypL93dM8JlZ3+Koupbapiyc7jPAQMqegM/07KdeTxGXMOvSDdezNI7oJQzn+ORKucJX5GRMO55lLcfBqItUcfIVMbtSeTMByJ9ytVaDMb3ckjup7zd9qw5+uirbBXZzWm6dL8oie7R9Pfow5pDYagWxupJVlz7CkWEfuNTjjzrdiHhSUinsKSNHDpavJJMVw527nnYWHKB1iQxiZjI2kZBzCqcTqYWSWjv9XsGFOfbleQK+ehddMSRWAv6wkIgjs51wJDmMKSlLObqwtUNtpJNQlXzjoP3qeD9HznXTf8trM4J4SRplFS7t45mtAQIxZppVnDturzjYYtyeOUWWnV5/F1kOUBxtWTZn1bgncUUPqVTkri7InqYoQ/3USv2bTzUkwsfMlvjwLae1M/lRWduCVXMjPrZaPb0F4Owv7RJaBKxtauawi/QfOc5kN/auXsbqlC4+naBtCYckao1KXuhapF7VF+5mmabkg5K69yFNyIp1umA8kTq1TOe/uVI2FrnHql1eZX5rWieead1rFyOE82SHMcrPBQsog4gddW0G1UKmZsStAJYaok+CwzFLJIy5s8dcd+DU8Iq5OU5LVLz9f1M3rkT07KtMAXrinntpcmmDlp5luEPWDDQNIEQLV6DHvI4rptZ/NOkpDfySpoZ3xL1MvsQ/NMNaCc1c93//XKHjlTynnMWeU65tbZHcnzxAyX+ChnMzNplrQ1XqqttTiUc2wQMwSrDWQGtsTrw5No3PRrYSQDU84qN9nypdhAeJE4r9LsWKLfHKB5Wsw7Q8MSMR+Y956ytlrRRtBrsfG2sn+qY4XU8EynXQpJlXNrpQI/N0Uycm0h2chCOf85ErVylnj/NRSpmq5F9g6bqbL+FdTKeeZZXX9Wv1t7YhWpspEK6ZkUyZKyNYkOubSKpHJa9lYxDx9fJPOV1viRsp3SKqzxoxNq03gLezckS8bKkx7+1+pMXDnnykG2t3KgeSSFJymVjzzPmyNsApnKxpmmuzsRJWLtjx75XJGs/giW6cNJTdlSHlt+nne4tpaUsxTuu/0JiyAkWDnzsiVJ6sPP1yK5nvehJm7lLE18k7q2tecmTeCSwjOPa/ss7m1iPR0qKyeax54qCBWWnJN5gdG8oSLiS/IkcWbzBGpMPsozAEWczWCeRDtG+WDLAJrnwHumaWK/sSVIkkj7SeIqDX2oULTvapreuVZuOsHIwdVTcx2o+LK64Zk0GV4R40CtnFVmnoprY1Q5E5zpchcVrnANZUg5S+fF9peUGjVS3DVJ7+gupSJ79eHrkL19k8HXx5P+Nk+vnS2sR5R6ra853YdPEjcanjmqNfmvbfylbu3M2STlaUHzOfB7ceilXN1KGFbO0S+P0PySISVt78nvU/GBMk855hnPY03zSL8dSJ20spMmp9lo4lT2KfgG0mtyJQWvgrOHN0n3pb0gaRqNRGpyHbrtZXVJqZyJEdAwBVSWSmViSjk7JyHtANm3VL6rA5v70Wcjmy0Sv25tcu3qzOYxhDiUs8TIOlLXNmmDpH3zembtzbry1co5Z3o/YjiztkNSstK9eSWbhdq3OFuK6OzJro30WzrHD5Ih+/0SkiZh672Tp+D1i4uDrSXMLe1QvgdbNy0pZ3N70ubwdG9PVm7Swt1pulDOf45Er5wl7r38is9Bhj21+EArpq929qmcJ9uG0XT5hy8mdtW+2KNiUzZTW86o7k016dVb9mRd1TocnD8ESUnjIuXJUrw27su7cblylnqGu9XIR39nLlGXPTgyDpAypDWmUnrtNgNo3P5x0otBstLfEh+ubiYKgK3tdEkRgF032Ni0RC4SJ3Wly5XFmz3DaV5dJAVUa5BWqUks6yEtXWL7V0ve8k3xTncquozxVUg+V+WEli8n2LpWeUf446OrkNePPej2ybJizRHleKPE8+MrkdOXTVRKkqEIdl818Nar7/dQqwTzdKUegqELtd3ct9a2pfF7nii9g/R2JK91Th4iBN1FrZKZWBn2STF86V6eADQsqjaujIv0jY2YF6y7vua0i3xLhr+LChkrjqK/Ix9uoHkeceU8jL54JIlm4pu01C1PHTbh8MvZOZry1eKbsSB23eLGSUwQjRu+g695p/xE9+ZVNfnrth/G443z8fo2ZE3uQPNnL90Iz4hhF3qLvajlE6/YknLusfEVFvRlPTdu6YrgpFwTaGBd2L326d+nyPeXUa0wv8bW7ug/bzdP0RL69CgyuVmQPGaYseMhqqZRIX2zddgyRpogSLy+fFXwQe2Bcka0YoawSuWAflOZYVNEmrlenSnNE1PZs6ohlE1kG37oBY8Ari9gXclKmPEjFzNSN4Ys1NaNXE6kXmbmhrIBJjdhxiyf98cIZ8bg7jgWnawc150aG1Le6q1lE/q4ct70PBY96rPVGamL1MILA7dj+dju9N5JebKXq4/H6m6Jr2donCnJ2ZwNkZTnbZhWzNGg/VCaJrGqjdT2pOIhwe/kH6Gc/3Vw5XzQhPUsSBw0LOSForONT6iS7uO//QNYUgPfddV9Hvr7EO/WNgBXzmvu/rqzwpSzfu+ZmrOzyyOgqf78BcHfi1DO/w+Ecv7HICnnghP5fAI92CxjoZz/DEI5G+BvUM4HJpYSyjkRIJTz/wOhnP8xtCztz5Y8GSQcjo6OeCGU8x9BKGcD/A7l/O08qbcuPKDP4WmVUbAtmych+P8hlPP/g9D4jTsJBIkBqa62XHSHh/4+Crmq4FpB+ypdAYG/H3zJLf23AAj+XQjlLBAIBAJBIkMoZ4FAIBAIEhlCOQsEAoFAkMgQylkgEAgEgkSGUM4CgUAgECQyhHIWCAQCgSCRIZSzQCAQCASJDKGcBQKBQCBIZAjlLBAIBAJBIuM/oJzfo0zp0iitkTIYNFv5Xejl/VujSvNuPKTPy6NL6bbqj8vsnVxNVp5MylfmOTiRgRjUrgFJK4NJG47xSC3vzq3RL4PLY/6Vmc2Tm6B0OeWXb8Ifbyd5yim+8iSxYVY/um2n0Qv1Puk4uWNpVOu5locYLw6OJPm1H1ZvTbYdsPUmDzHGdayL0mWa8RBj+4KhmuNUS7dRh3iqQCAQCP4q/wHl/Ix/K1kp7tm0Smlo+axwTF+Ih/S5t24Q3Ub9CuVFLV30yqNi5cBzAF+uLtRPd88F+Zfdnu4co5+HyzX+TeaprVJDZVmbBThh12aTPJbQfDU3/L3mW75ascMn2TufW+VWwaX4WB5i3F1Rh+TTfh83K9muwowTPET4cYWVZZaWR8SiTEYb2T60UqjuSp5HIBAIBH+V/4RylpTHvi88SDg+rwuNu8i/sfxLyjlpQx5inJnaQqaco9iH8T0K4gP/Hv2NPXNpGSmqsY+YS6iVs4LoqzQuIcq5Q4D04XRLHLvLvvUbFfgYGd1UsMmk/a7yryjnIWXZB/vVyjni+T4aHrTmEg2ryZtSKGeBQCD4nfxnlPOGx7KO3siHNO7wa/aZ+19Szt5axSexd1RDjXL+fHwozX+TK1g1G/tUJIrOVvNxfbVyDpb3QX88SuPirZyjPtH8Y/e/omkaXm6m8W/4zhKsnEPukjQLbJpdl/xnyvnTpUW0zB80pCVnCqGcBQKB4Hfyn1HO22VfgBrZMIDE2eE7V4qScrZy9UHHjh2p9Ow9Gs+/q1VowpXz7h7FobLPTH/LiX24hpZzn+833srZPLXm2CRpW7cIyWNNlXP4uwM0f+2WnRR5OnZsQ+OX3Waue6s8Klj75lfkqV+KlG1EOfcs5ol01SfgwUJiUHDljJ/sWhZqNBhh6gF4Qm4/oZwFAoHgd/KfHXNutugCT2fKWTddkqp9t9D0hCrnRVXyQpU6H/2tIOgSLec0706Pt3ImYX2xocr522XmzRqTkSfZziTlbCjdoHIOYZ+0fEnirs6vQH6rx5yBA2Oay7bVilDOAoFA8Pv4z3jO9XqMwqhRkoxAw3LZaNyaa2y+s6ScnTIVo7/VDGtekOZ5/jPhyvnggJJQ2Waiv+VE3VlCy3nCw/Hv1laOb+PJUpKHdWuHvdpF83N9bxSpW9u19DQeYrze3Ihsq1TOledfxvDyyeBfczaN01XOEo83DaH7rNWmL72mSV2EchYIBILfyX9zzJlQhMTl6Lua/jY45hz9gW639UEE7idQOQdfmkzzXw6iQQ0L2heCytxOs8xJrZz5nDFGQsecIz/S/EN2PKNpal7v7A5LRw884NPD4zvmXHmEVDYxSvh2esr563maXqbrBh4hxpwFAoHgd/OfUc57A3mQ8OPVZdrVXWL4NhrW95xjMalDcbrd47CEe85ADJxJfpVjNtz+FEljzq8fTctI13ARDUvcWNWDxv0l5UxomdmJbrP5LFPQX5+chgMJW7jkomGJ+CjnbGQbqZzU1bXrqnWVc4OMbuQ8XTRrviWEchYIBILfy392zFmSByHa2dqG0vPUnUTTE66cgdBHbLa0XMy9CmuUWgpNfDoew/kF5YyfgUhuodyXSmWGy9+0vQUJUc4P1SdKkCvnHw820fROq+/RsBqhnAUCgeD38h9Qzp/QqGFDNJRJ555jwXUfZdP4for0xs1b4+hN7fTuN2c30ni1Yj26oDUadpjOQ4zr22ajYZMWPKQmElMHdSXbNsbiA1d5HKNfW2lfrfFBOymcEXSH7kvdrbx3YXdSrnJfEc8PkjxNoNNrjoOrJ9Jte46Yy2O0LBzUEK1H7eAhxpuTM0j+LjxEjols27bvGh5iPDs8geTpSX/Pad+I/G5Df8sZ2KUhhs84xUMCgUAg+Kv8B5SzQCAQCAT/LIRyFggEAoEgkSGUs0AgEAgEiQyhnAUCgUAgSGQI5SwQCAQCQSJDKGeBQCAQCBIZQjkLBAKBQJDIEMpZIBAIBIJEhlDOAoFAIBAkMoRyFggEAoEgkSGUs0AgEAgEiQyhnAUCgUAgSGQI5SwQCAQCQSJDKOe/iR9PjqFtmy6az04KBAKBQGCM/4Rylr5B3GX1Qx5SkoN/B/mH9tPHv4EY9KgSAEv+fWSNpKjK0wUCgUAgMM5/Qjk7EsXYZ8NjHtLyfFNXjeIM/o3KuWU2V1pm8y59MW7cOCqTZy1GGE8XCAQCgcAU/2HlHANvM61X+9uUc+A5Wt69cB4WCAQCgSCB/GeV887h5agSXbl8okHlvHLedEydvgihPKwkCEtmzsCUGfPxXkcJX1/WG6rUHenvm8e3YMqUKThz/xMNa4j6TONp7I/H9PfO0w9okj4/sHrxTJpn/e4zPE7J/TO7aPqBS895DGPj7OlYc/ASDzFun1xN8k6jv89sXk63MyTfooF7pzdjytSVNG9CeXXzCC1n+aaDPIbx7tomvX2p5eHXCES8u0J+T8dPnl/NDJJ+9kkQDzHCXt2i281ZuonHaHl2YiemTJ/HQ4w1i6Zg2aZTPCQRhKlk+wtvlHt7evkwLXftHv3rfXTrHMxecJSHGMHPT5L8czTzCXYum4KFO27wEOPhvjUkzzRF78nnhxcxnexHfg0WbdrPU/U5umUOzbNx/00eo2U+3/47D6t5fPEgjV+37zyPYTy/uBEzF6zmIULMT5rv7scIHgEcWrcY83ef5SFg2QJS5/l+NDJ3FU0L/3SHhmWbM4KekPhJesdFiQ2j29z+qOxT2rJiCpauu8wC4YE0z6vgGBbmLCZxS9YdZ4Gw9+xYpsyArk385jq7lys2XWMRYR9p+E2o8oFfQOKWbZTXDYHg/8t/UznHfoYFifOoMBLvDuoo5x/3YU3CUpxaLsh06+XF3RVpktSbtJunAkt75kPx4RvQMJOHIk+awh14DkLYLRp37uYWRR73gFo8A2PPqFqKdCpWqYhK0dK7ZHpFesbmM3kKUNzFGnnaTOIhiQjY03wWNNS3cErFtnJ5SBrZNQPLQmWejeZNCDUzuijLs3DBrR8s7ezk/Mo0max7EIQfF6aR31b4yrJrsCHpQ3e84CGgX6UAne3NsPmOdqt9vWtCZZ2Ehxh5UpLrU2oAD0k8hxnZdsypLzwci8o5PBXlmrukVBhoXSu4wsW3Cw8x3uzvS/K6ahRvzQwqpKguNwyikITObbBAII9Z3rWiYj9q8SvZnOfQp3M5N5rHLE1FHsOIfXdMs/0zHiedS7ms7pp4SSzd0miU1+6R7D6ka76CRUR9oeGV11nturG4FQ07V9Ver4y+NpqyNOIRwBJjv9Br2X270gg+OKAwyZOHh3SI+UzLWHr1M49glM+qQvpCk1ng212a59hb7VTK14fZM5umUA8W8emS5niW31dOueyc1YzGZynJn4vA6zR8+gOxPjnP946mcRlK9OcxAsH/n3+Eci7RZxfaTDvBQwlHVzmPqyEpJQs8Jw7Ts93j6IOpVs698jiQsANOPPpGGo9ApHG0hVNAdZoWHXiB5nXKWBnfqCH/HQ3yMAW34gFr9sbXdYGHmytRanbYc/0DjVs1phnN03D6SRpWK2dJei86QKOWD69Pwy3ncm8t4ilt7DyyNYTaaTi6YgjN03nhdRqOfLmVhvO3mUrDW4ZVo+Gb3CvQVc5nJ9Sg6WrlLMfdVoXmY8/xEONXlPPy1lnoPjpO20XDz85vgpu0Twt/GpbT1MEKyRuP5SFGUDyU87UlHeg+SnRi5/3z1Xn4O1qQOEdwG+CXlPOCtjlouQMW7KPhDzf2wdWaGE0529GwxK8o5xOzmtByNco5+jUNZ6zaB1oVAbTMkhTJTSpnVzg5EWVHtv0ocySPTK8LS0tLGq9WzrOaZaPhoYtZz8W7q7vgbKVCknxdaZjydjfJY8OOQUc55/VQYdiR9/S3mhSkjiy4rd3x4X7FoXLjyplQP5ct3DO15SFGTh9zFGqznod0+EXlnIOchxSnq5wL+9mgTMdlLI4SRePNzS1NKudslqw8oZwFiYlEr5zL9N+DoSsuofboQ+g5X6k84otCOX+/Qb3mvG2X06Cucu7bqgqaT2QKU2JHe+Kh+RSivxd18Cd53ehvOWndLJG0OGvAh1diD/ryu8r+vZEVvKCyycsCXDlnb7aIhTn9ijlDZVeC/g7/dA8tq5aE2qdTk9/RHGV7sgbo8YHlyJwpI/3NeEHL3f6MNTxK5Uy8ZjOiiKZKXoJh5dx0FDceOL+inCVlV6Sjsis84uEmelwrHkXyGEZjopyTNRzFQ4z4KOdi9irYZ1UqAcS+ofvouugqDSZcOYfRfdSapLwGeLaBlGuOF1wnJVw5R8KZlDtvzgh6fJJyjn19lP7WnZfQPLNPHMrZBcnSd0N6su2KK9orVMmJ1O9+0jGolXMI7f1pMOsCDamJfbia5LHAGx6WSEoU3dSLxKSRK+fAs/S3srMZSELqz57XPEDY17uoQjnfmNOC1BdXaNR3+AN6fQ+8V3Yha/gF5fzx5FjyHGVC9RKp9JTzumX9oEpSgcURIh6sIUZhACoUsjOqnN8eHk6euWyoUDi5UM6CREWiVs5tpp1Eyyl8XIlQst9uTNmsHMuLD3Ll3CqfE3k4rTVjmrrKWc3VY4ewbe0suhyqaAemDGsTL8qxllKZSGztkh4qS6Z4h1Vkylm3OfpyeTGNfy+1XFw573/H0tQ82ck8Y0Pjc9HfP2DLssm0sSvQYQaPZUR/f4G9e/eiTr4kZHsn0jQz5Mr58MQ6pOEqim8np5A8CVDOZqlo2ZLsO3QCwTzNINE36fFvearfGPuaq1BjnHIM17hytsRGvk+1WJFymXIOovsYvPMp20BGabKP5E3G098JVs5fr9FyRy7dodjv3n37aB2YcYF5lJJydnCvqsizalRtsq2bQeV8cUZdWHsTg+vuPFo+69YOpIZA8Z5K46x9Nt84lbNbygGY3Dw1Unbk3dHkjkjlPr57gP6XlHPsZ9bDM27VTsVx7t23B+YkfsFV7V08Pak8rDJXpr+lbXYRzT26Vhp4VJtI47RE0mO+JTModJUzoh7R8lc/YYrv5vKepEx7+tsgXDl3n7lecZy5yH0yppwzuKjQZsNLVMnloaecr758RP+/507xykZZkKHqVFTOYrxbOw0xbDpvfYMy2VyEchYkKhKtch60/CIqDN7LQ4zY2Fikb7UBa48px7XigirnjU8R/ngHfTCbzL/CU4wr52o+9jReUmSHXrIWKQtp/CsMWkt/y7mxuinJl5L+ntsxI/ntR3/LCXm+nZb3VLIKuHK+xZI0fL+/nsa/4U73h2ubUCJ3WhoniXOqwsjoYK2nnIMvz9bkyVFD202sVc4/4ULS1t8JxvuD40m+BChnXq5cmk3VGkwK3uyn6Xd1PEKJjD4qlG6xkYcYxpWz/j4loco5innIGx7omzAD81pCVaI3/Z0w5fwVIS/Y/TEmA7cyn7RrBTbuqy8eBpRzNBxJnZl3LQyh56fTfOox5z3jK+tsz8T0mLML8dq7I/DQGJI3LY37fJQYdE5ZSGXZRreXjjLo0UZFmboyYrfM/SWU8tLNk4ynyIh5StO+8aCEnnImpHG2QIkOzOhol90KrjWm098G4crZkOgr5xi8OziB/Hah0ZUMKOebkbHIQbz7eWc/0uh09iqMuhyJUhkNKedYvN49knjWHjS6tFDOgkRGolTORAej/tjD6L1Ivxu78rB9GLJCOQM5LiTlPGD3e+R1t4DKLh2PZRhTzqHBPxD0/T0KJLOCyop1HVclDa1fKzbOKefA0OxQmeemv3eNkSZxmdHfcgLPMc/pjWSwc+V8XTl3Ba8PT6bxktqJfLGP/q7QeihevAtEJO8rLOhooaecY6MjEBQUhG2z2tNtpl9iXp6knPO2nYZrM2vA2rc8jXuXUOVsnpmWLUng+1doWSIF3ccD3Vm5EpFXaNoh5VAlJaWNCtVHK2fDmurWfsn3qRZtt/Y3uo+pR9+yDWTUsTVH0kbMOEmoco78wCZVXX5H7rti36GIjYpAeBS7AZLn7Jy0nSLP/a3dyLY63do1luD8zCZQubPJULrKWSLoyR46xJLEPzMKFiyIJHZW8VDO0pjxK1qWpIL6F0uJrHWXAE+YQpaUc/gr5kXf+qhzLj9CERMVrjkXiQ45PGAf0Iz8iqbbbH4CLGxHDEznIiwDJ+TSDFIX3HmIYUg57+yXDSqHwuRXJC1v4VmdlQpyuHKec+qZ4jhLZ9ZXzlLHRR5rFXpsuEejDSnnC+TBGds4M3yaLgUi2DMmPQmGlPPVUPYCor5b2cuJhHIWJDYSdbd28T47MWEDm/wk0WLKMbSamvCJYZJyrlmnOn0oJx+RN486yjn4HrInS4I7MsUT84iNl74kvyfUcIHKMgdLkFEmmT0c89ahvwNPMy9Wmu0sZ1Fd4gFbZWfd3Vw5d9gilaplaWPJS85Jf09ong1WzjXoby2xsCENilo5T21TFv5NFtPfavK5qpC303b6W1LORXtOhCsxKpbcZHOOE66cdcecf8KWHPuwY8pxQsZPel7t5ymX7RDXnirBcefU07UYvzbmHIus5HfyuvNZgoYIuu+mE9gEqAR3a0czRTHmwHOexoh5uR7JMhXCPe6ox3fMOVP9WfAi5a28wXxNfeXMZs47Zda+Na5FPMacmXIGMrmoMOTSJySzVGHDU2LxPZbGxvmYc9R7+nvyCaUBE/VkJVJkLYqH/DYE31pE89HbIh9zjv1Ox8lbrrrPMhLmtikCxxxK5WVIOUe+OkLLuXNVmqxor5mgZ5AEjDlv2DiaPHspNRPoDCnn84Gx+Hx0FPGGU+H2su5QObLuekPKecP64aR+pNaUJ5SzILGR6CeEpW+5DmuOPkK/xedRZZjxNaCmcOQvG7FIWozHaFF6zpF0bNO7pHZ27oJmuUi6Fe3O+3J1Jc1bbsgGlkg4PqczjeuyUT0GGg0fogwtUhXGd66gP19bQ/OU7LaORXDlrFIlwesfzH0OvL+Hld2Prdmd0jo3VGb2eKtexxMbgm4V2LKpQh1ZQzOnXQEaPv+WNYFhH87R8dGy01nPgqScLczMYOaZj4YlEq6clcbI432k8SP72Pxc633J6ZLNjqRb4dwz3gFKjrtCcmsSZ6tpCNX86oSwld2L0WNYclZt3MSiR2l2bW7y4VSmnL1YgFPAnzTS5UfwkMRXrXImNE4vHacLHn7iFz3qB7LbmZM4b80cgngpZ6IMVBbmsPDQ1jdd5bypW3ESNsN1mfaKz4QwtXJe0TATUqfJS8uk11WunAl1UluR+uOOJ5/5UUV+R2YbM3I/k2nOpXZmSzhkkLxmgs5s7aXN8sHMPhX9LSG9sGf+VfVsBsbpwSWhcs/FQ2qiqVFSqGASuOZvyuOMkADlLN2nFgu0hrph5SzVyU+wUJkjf05zVJ16iCYbUs5See2XaweWhHIWJDYSvXKOiIpBtnabUG7gHh6TcNTK+dhr5WxhCd1u7YPDKtCwXNLUm8ASCeNqpdNLd8jZgKcy3h6ZqpdHZZmK+EocrpybNyutzGOfSaPAQp+x8XG5+ORtjEllXeFWYxDLFPmGdovq5vvCz0VSzlJ42U3tSGGClbNO2VSSlOI5DBD+mi2d0pHxJ17xDFp+VTlLCiA78Rx191FvtHa9OVXOOunGRK2c8fUWNc5006edZmOYEvFWzmS7GWe1112hnCPf0fNJWW0MTVOTEOUcfH0BO77sbIxdVzkj8BqdnEXzyGTuRWYeRLw+TsP76CQIgo5yRvQHGh57QG1ImhCPemwbzpDafjS+3cpHPMYICVDOKgtll7px5Qxk8SaGCQmf4evNDClnlZU3C3OEchYkNhK9cpYIC49CjDQQ/YukS+aLjLXk3ZlaXh6eBV9fX4TIir99eAOypfGFb4pUmL5Rvxv9xvGNyJHKD75+GTF/u1Khqfny7DJqFM5Oy+4waqlWMUtw5XyMtJMHFvSjedqPYUu75Hx5cg5lcmUgx5EeS3ez8fcra3ogaXJZD0DoB3SrX4KWUbpuN3ySveyqVoaU8M3EutvVfDwxm+RNzkNaMvv7out0ZXf01vENaLkaSZ4CfacqJ3UZJgSzBjeh2+Qp3RC33/EGX4cuaf2Qq5NywtCPawvJdn56M9ZTkbImHVBOZNo+ZzDdR9qcpXHiplL5Hx3ZWnvccciMC1oliujvmNyzMY0PKF4TN14pj2RIo4zIkHMwDzHeHxtN8mfUrABoXcwXfplL8hAj7OoiWqa0pzW9CtLfn3U6H7qXCEDuOt15SJ9BDTOQfQ/hoVBaxsjNt1nw+U4aVgyURH7FhG7sHuYsWQe33mjd9OGl08E3ZyMeIkR9o/k23dHmmdYoA3zSF4adlQpeSQ1fO28PZ6j8W/AtGIHkekgz7t/G9cjGfKFlrL/FjSNOo5K+KFKND1sEPaR5uq/l58lpUj4LClYbxgJE4Up5rn5lF3Rvv+IkXFDTQ1CX3I8SdZawwNc7NG+fjdoue4l6pTKgaG3lmnuB4P/JP0I5/+vgyvmgzlIqgSDxEU7rqrH1Ee+OTIMqlVI5b+pXDRaO+XlIIBD8CkI5/z8QylnwjyGE1tX7uhMGOC8PTNZTzgF2KrRafYOHBALBryCU8/8DoZwF/xjCUbduXbzR6YJX8/nGLtTtPJf+Lp9cPQ7toHj/u0AgSDhCOf8/IMrZzMxMKGfBv4r1Q6rDzM4XJx9pF4wJBIJfQyhngUAgEAgSGUI5CwQCgUCQyBDKWSAQCASCRIZQzgKBQCAQJDKEchYIBAKBIJEhlLNAIBAIBIkMoZwFAoFAIEhkCOUsEAgEAkEiQyhngUAgEAgSGUI5CwQCgUCQyBDKWSAQCASCRIZQzgKBQCAQJDKEchYIBAKBIJEhlLNAIBAIBIkMoZwFAoFAIEhkCOUsEAgEAkEiQyhngUAgEAgSGUI5CwQCgUCQyBDKWSAQCASCRIZQzgKBQCAQJDKEchYIBAKBIJEhlLNAIBAIBIkMoZwFAoFAIEhkCOUsEAgEAkEiQyhngUAgEAgSGUI5CwQCgUCQyBDKWSAQCASCRIZQzgKBQCAQJDKEchYIBAKBIJEhlLNAIBAIBIkMoZwFAoFAIEhkCOUsEAgEAkEiQyhngUAgEAgSGUI5CwQCgUCQyBDKWSAQCASCRIZQzgKBQCAQJDKEchYIBAKBIJEhlLNAIBAIBIkMoZwFAoFAIBAIBAKBQCAwgXCcBQKBQCAQCAQCgUAgMIFwnAUCgUAgEAgEAoFAIDCBcJwFAoFAIBAIBAKBQCAwwb/acb67ohtyODvBySlucU+aFjnzVUHXMfOw5/xDBPMyBAkj9vtrXNq3EeP6NEGJ7P7w8XBWXmsHG6hUKioeNebjE99OIBAIBAKB4N/PTxyZVlVjF7l4Vce2x/GwOr/fw9haMnvql8QZASWn4zkvElEvMKeGvyJP8gJDcDOUp8eTn0+2omIyD00Zzm5NsOtFAgsRCP4B/Ksd59uL2yGdGXPSEi5uaDjuCH7wsgSmCXq8Hw2zuBu4jvrikjwAjfqtxYugGL61QCAQCAQCwb+fr5dnIbOlObGHzGBhLv1XIWnpSXgZzTMY4+stDChp2K5KiPhmH4PHvEhEPcO08kmUeSydUGP+DZ4hPvzA+uaZYS0rw8yyNrY9C+HpAsG/h7/VcX7xORRrz73GzqvvEBwexWP/HNRxlh5iM09UXvaAx5oiEq+OTEVpP2v+8FujeNuV+BLLkwUG+XJuItLaStfZClkbjsLpV0GIq/0XCAQCgUAg+E8R/RBD8vtSGzN1zW5YPqsfsttL9pMbak6/ir9ibl6eXgCOdLDID51m3eKxcSB3nAPyoljG1HAhv10zVsO+DzxPHHw4NAgZ3cy43cxEOM6Cfyt/3nEmrcDnHxGYsu8RCow4gSz9jyLbgKMoNe401hEn+sfPP+dAax1nD5Sfe4XHxk3knYXIkYw7zxkqYcnNnzxFoEf4HQzM7UOulQ2KdduKMB4tEAgEAoFAIFATg0uTa8PLktiWNinQdPFDEvcSQ4umgTmxNy1TFsbsq78+vfnE+LxwoI5zcrSZdI7sLR7IHedcbbBxz3JUSS0tqXNApT57Eaf1G34b/SqkJfnNkS5/M7RrkomWJRxnwb+VP+o4BwZHYPLex9RhztD3MLIPPKqRbAOOIEOvAyg36jhWHn2CsIjfP0b5q44zvpxCo3S8IfEvh9mXdSdsR+HNxZVoWSo7/LxdYCHl0xELBw+kyloeE3fcQATfSo+IT9g5vD4yJXWjjaZ8exeftKjTbyXeRfK8Gj5iXpmMLF+KAtgXGIs3B4ajTBZvxTQZlbkDfNMVQI9FZxFs6tJGvceOaR2QN60fPB0stdtrxBxuPilRovEQnH2v34T+uDAZ6d1IPs9sWPVEOqUz6F+vIHzdbZXlWDjBN3VetJ1yCN/i6CuJDLyCie0rwt/XE5byMoiY2bvDL6AChm28iQjdrtm3e1A4jYUif3ykSN81+MqLkIgNeYUtI5siZ+oUcLNj06iUYgk3X3+UajsNlz4qL+6TDZ0M5I9LbDH2JFvfFHx+HNI4sfisFRfhM439c4S/343aesdjTLzRaf51vqWacOzokJ2lm6VB1z1vebwuP7F7cAFZWUWx7Kb8qnOi3mDThDbIlSYFPOwN3UsLuCdNhdLNR+LSp3C+kZzPWFxd6sjR3U4p5vnHEnMFeLdrIDLwuJor7yHm+xUMaZIbSeyV990pSQoUazUR51/pPZAyYvDi3Gq0KpUNfl6G2wUrqV3IWRFjd98y2C6839cL6ayV25QfvAVBPN0QUQ9Xo4yffBtXtJh0XjFy8elQf2Sxk+dRoWSfNfjG0w0R/WQDKvrLt3FCozGnuTEWhatLO8Gdp6Xpvsn0eyFiHmJQgBMrJ3017Hxp6joq+XR+LvLx/VSZfBw/w55jbseC8HGx4sfFxM49GfLUHYgDT0yZejEIvLMVXSrnRSrS7iraTC5mdq7wS1cMQ1edhVETNuoHjk1pjVzJk8BKZ3tHLz9U7DgbTwzYjGdGVYCDTn59sYFniuxoNusYTJmd0V9vYWHvaqSddNOra9bO3shYuh3WnXvHc+sSjr09KrL8Fh6YdycGITeXoXHhFHC0kJdljSTJM6HhmK14o1Nhg++sRTXeVsVfrFB0wFFWQPQVdHbn9zBHXew31nSY4Pz4qnCm5ZqhQO8DiplOsS8PokVW+b4Ni5WTF9KW7Ym9JupNROAtzOhcFRlTJYWjlYFyzOzg7ZcR9YevwLNwA2OGn6+gZ0GeN0VbHH9vXCm/2tEefrzc3F33QP6kBN9eg6oOvJzqk/HWUBNICLu7FpVS8XxEclZfji88TU3E2+PoW7cAkurqaiPilKYxzv7y2rUI7OocYLBcQ+KTuytuGbITfpxDkzS8HYm3ZMDIXc94AVpenVmOBrn94a7T1huT7K2n4w3f9lcJu7kQZVIzOytFwYF4wKtByPVZyOLMnoW0NQfj7i+OQPxlxzl7Y+x6EYGbU4tTm9TMvzyW3DDlyMfi1pJuSGNOtrXNjNlHLmF2+wysLOE4C/6l/BHH+WNQOKYfeIIA4iBn7ndE4TBTp7nfYWQlSi5T511I22IjfGssQZ7mK7HhwB38CDGiCX6BX3Wcb8xvBm9p6gzZ1rt4a5yS2/c/bmFE5dSsYZDEygdFqzdG206d0LlzZ3Tu2BYNKuSFu0y5pi8/Hs91lEDIDaLYUmobbMc0RdGsPdm+cwfUKZMVNjxelaQUll+Sq7xPWFojHzWU3FL6oUDePMxocsuASg3b0WNo37wGMntonQ6zFMWw5IKu2iT36cRIZLXh+yHima4g6rRsh07SeRDp0LIBimeRr31JhYEb7iqMk8frmyGFpQquKUujWePicOR5ndMXRoOW7Wk5ndo0RelsHtpyiIPVcd1NYnrrEPYKsxvm0uYjRlbmEjXRqgM7ntaNqiCTizqNiGMODNjzWHs8Qfcwd3w/mlcu1fMnYdfIPAlyV2yqlz53zzU+Uh6NR1uHIK2jdh+eWUqgEbkm6rztW9RFwbRusmPwR/8D2vlMgTe2oausbCot6yBnMpbf3DMn6rTmdYVLl94DcfQps0pDLk9DzhRSXisUqrsSgTT2z/H9yhLktjYj9yQJ8lZqpjgutdQpkZp37KRHn2W607+IAd6rCJykdPec6H/wPY+XE4qdfYrCWvG+gUpYc0fptr05OAjpJQXM83hnKIx6rdrz+tiJXPv6KJJJVo/I8YzY8VjHOAjEqsYZWIeLU3IUrdtW73wk6TfrKHUa3+4dibySo2pphyzFSiIDPUZbZC5aCx1o3jaonNcfZpp9OqDckG36jmzwTQwql5znIWKXlLQLTdC+E99np3aoXyEP3GVOSbbaY/FEx3/8eHgwcich6WaWsHZxYk6WT11suWvELY39jGXdSus4gKnQadZlheP8+fgIFPSR0iy05SapjnU3jbnkX7Cmd3ltO0QlBdpOOa+93pHPMKkZ6zSxcMiMWZeNu+HXZtSEpzTKYpsaHVZrVtfFi8+Xl6A0P4ZcJYsjpR0z9FPmr4a29B61RY3iWRTXIE/7Vfiq67+EPcWsplk0eVRm7ihQqQHadOTPI7lHTaoWho+sgyFp3n64o+NP/XyyB00yal9yaJ0iPxq2Zve5UeVcWsfYJQ+mHHqjuA8XJtVBMinNwglpyzRi++XSqVMHtGxUDdl97DRl+5bogUu6t+jnC8xsmlHWqWiLLMVro21HVk6H5rWRK4W9pgy3gDY4oNcDG45DA+vSjg9rdzcUKlaUHbcNqbc1WrJjatsQ+f2dNeWonFNj8JanmvOJ+HANy4doj59Ja9LWp2D5bRxQpA7TAVrpj3n7+P2Pvo6+qZl+sS/WAkcMNR1xcHl6Q+5kuqPskKNKx/n1MXQqxI7dyicv6reTHwe5Tu1aonqxzKztouKG9hsf8a3V/MSp2Q2QRJPHAmkKVkKzNh14OZ3QumFVZEuqrQ/mroWw9oGOHRN4nbQPLN0sa3ec1ulwlfNmb09ko3rOFSX6H1Q4ziH3NqEh1yUOjWfjvQFzKfTuVlRPw/IwcUDxxmtlncMROL+4PTw16fbIXro2WrfvqLg+VFrXRFofVpdS5GyHi7/81tR3mFcuO9XD7sQeaaG7H0maV0ZyDzbTL0OJ/rhryHEOvoT2OVn9MnP3Q5nGSl2qlfaoUoBNh1ap8mLi/he8AELMZyxonlfb4WXni2I1m/H2Xilt6pWClwWbglyk6zxyFn8B0l5Obs7aHwvbLJh77TtPkIjGoTEF+fG6o+n0Y+QJTTh/2XHO1hA7pEv14yxa+7HzLtBtEYz180S9Poy2uZitmbXvToSFvcXMNtw+Fo6z4F/Kb3Wcg8KiMGbHA+Qecpw6zNnkDvMA4kD3P4KsfQ4hc7e9yNB6K1I3WAW/aguRrMIs+JSZBo+iE5Gl5hys2HkNsQY6bROK1nF2R5lppxEcHGxYfnzD+2fXsX5KTxRL6aY1kr1yY/pZudXyHdtGVYGtGWtQCvbZaGJq8ifMqZWNGjdmaQpiwS1Zd/23qxhYUW3YJMOgna94gpbAC7ORmx9H7gHrZSNDzHG25Wkq++zovcnw+u1PJ2aihHrdiUNFrL0pa6jf7UHV7J4szTsA08/JG3ElYfdWoDTvSMjSdQHeyRrRc+Nrwld9LETcCzXG/tdGWtkv59ClvFqZOaDJKvnLJ95gRiXe4JrZo2zHFfhgpNUPu7sGtbOpDRUv9Nyt35ss58iYXOx6WebG4G2ad0nqEXxvCxqmJPdLyutWHivuGL+7oWcnI4u3tH9blGi2ntQME3y8gD78hR5WOfvi4hfj6iz40v/BcZbON1kZzNKz0BkXFtTkRka6X3Ccv2N7n7KwJg6xs1delCnlT6+DnuP8aivKZ+Ivl0ueD/OvGFe4QdcWohjv8MnRZyU+KS6nzHFOSc5Jb7aIkle7RyC/tD6fHpM1AurMwnNDg6HhDzG5BptOJ9XdWsN2y0ZYv2Fjv2rcYbJAgb5bTUxv+4L5DVKyctJWxqLryjpGHWcPqZykKN5kGLrW8abHlmfwNoOjjx9PzEFRevyZUatWYTjS0aiUhh1nWl+9ULjhMPSon5SWm6PfRgQZaGs/n12IktSBzISaNYvA2Vn6nVzpOBNCLs9FCTrabQb/YqO1b2qVEfN0AypkkkZTzJCh4nS8TWDbLjnOZei1ZZKi/EjcNPRoRr/F4maFYE8NR2sUaCl/Ln/i+KxGxKhk7WGW1vNMzOYIwdp2hWEv7c8nE8afkz0XoU8xuYH6JYhu6Lj8Dk/Q8vPRWpTix5qu/Wy8ltUnjeNs44f6q+/zWH329s3BOi0scqLfpqc8lhDxFBObZWX1x8IZtacdNaqDYl4fRKvM7FhtstXH9hdyT4Q5zhqH0CwZak88bnAWROSj7WiUlo/y2QRg1A7jbaj0/K3oXI7ldU2GGRdMjP7/HY4zH+V1KDgMN405fQ/XoEI6li917nHalyYR3p+agWz0JU4qWOdri+MfeYIB7q/uiDRSJ5yZK8rMvshjOX+T4xz2eCuqJpXSvVG0WEGkSC6NbtoqHOeYz0Qf5WJlqDI0xgFTw6hfTqFuITaD5686znPLSU6jGfJ2IQ4Wj1XwZg9KZ3Oh+4qP42yetTxWPzSmS8Owd2xxdo6qPArH+ceFqShO2ywL+JceC5lLrcf3q0uR15bd/7/mOMfi1tq+7NknUnLsAb1rEPPpInqp74tNESy5lHDt/5cd56wNsPkx2+rikrZMp1nlw+zjhqaDhOHQ1OpM1/rUxbYn0navMaUF1/HCcRb8S/ktjrP00q9hW+6h4IgTyNRPOSVb7TDTUeaeB5Cp4y6kbb4RKWsvQ4rK85Cs3Az4lpmKpKUmI2mJifApPgGu+UcjoMZsTF1GnN2/MAJNHWfFKFc8xTEVqnRdgcd/5Zn//gDT6mWGnVSeWwB67Y3/PLTY7/cxvU0hbqQ7otn8s7LeR+Y4U6PKNj06rtbtIVfyYOswpObnlWPQVoT8QofE65NzUN6XlaGqMhoPZHbk+Ym1NI6zTcbyWHXfkNch481+NC3IOg08UnXCBT4L6N3+XkglTfkmBm/BpnMQlw0Vdn0xKvApT8my98dtE7uNr+Mcf2LwfP9YZPBhzntAlZF4wlMM8ouOc/Em23jsn+P5tp7MKc5eE5ufGK4cv+w4xxKneXBp9gykboaTj19gRW8+rdvAiHP8iMXzQ1NRyksqQwWLWhOh1M2/4DhTJ9wcKcvOgMmnNPgKemVwYMeftSl2Po6jrhvi22NMa5yCzYCwKYiRe17zBIbWcXZGieGHcWvXMGSTjHFivCzVtfzDnmBybTb7IUfXxdi7tC08qRNtynF2RJFB+3F77yjkks7bMhcWXtXp9gl/gRn1Wadalg4LsHd5Z/hQh1zfcZbu/8EB5eAmtbP2/mi3TvdJ+IylnUvS87V0yYsVuiNx8UDuONuXHIk7ptrl6AcYXDgt7fwyS1sM866bmrZthJBXWNK2AFylfZJzarY+ASPkYS+xrHc53rFpi2pj9yimsCsdZ2MvrPyKeQ3TszrsWRDjjmld/Ge7xiIXLZvc8zHHeawJXm1BERups8AKdYbvkB0Lc5zpqKOFK8qNPmnSyP52fRkKSTMGSP6kTSbhqTFv/RcdZ4fSHXDlFx6nhDjOt4zUm6/HJiEfnY1hjjQ1F/9iZ2Uwzi9ogbS0g8keeTttU07zlzvOOQbgtnG/GT/PDEJOVylvwhzniCfrUNHbmjjudg0DHD8AAKc6SURBVKgx9jw+3ZmPXDSvjXLEOewZptR3pGWovEpj+W0TU3G//ibHmTi8rfNI5dihBGlDDPI3Oc6xL7ahUg42su2TswsuGeot4gRd+z2Oc8TLg2ienN03m3w9cMZIx8njbSORlc9WdCkyHA+MPmeG+S2O80Ne475eQr/yTN+5156BlzrXKfjuOhSnx+qERhMPsM7iiKeYLBxnwb+c3zbi/PFHOEZvv48Cw7nzLDnMRLKpR5m77kW6tluRuuEa+FVfhGQVZhOHeRqSlp4Cn5KTqMPsXXQ8PAuPJU7zLMxcdRbBoSZatHigHXF2Qq6O07F7924jsgcHj5/CjYdvDfa4GyPk3UPsXTMVvVo1RI3KFVC8YAD83A2sE/YIQO99pkzyIGwdUkJvO5v0hTFHr9eROc6SYeiQpSR2Ku1uPSKf7kaL7Kw859IT8NBQQxwVhmfXDmLu6F5oUbcqKpYtidxZ/DTTrhVSVek431/VDP58amOOKuNgeuxX4j3mNWcKzdzLHwv4ktnTYyqy0Q/bdGi9Lh6GavQjDK/O1kzZp8qPjSY8119ynKOC8OTiXswe0RP169RAhTLFkCtDcr31jJIEVBn1BxxnU2INn9QBKFm3E9Zf15+CnxAOjWRT4/0rdIaxpUy/5jiHYPewImz6bOb62E9HuwIxvzN7cYhJxzkqBE+u7MOskT3QrI5UH0sgV+YUbARQRyxrT/rLjnNeqvztUG/ZNR5rhNhQbB/GlxKYF8TUw4YfvpB3D7Bv1TT0alsX1aV2oUAOpHA3sF7briBG7TXmODsif8/DQMwzDKYvXiHGZAvlmuRH23vRt5+qklUh1zIcL7a1gAN1bkw5zvbI3WU/KfclRlVn9yJN4xWK9Y/P9/Rna5d9ymP5zXBiz7aDM113bchxJvw4i+bp2cimV/E2iqUtr/dPRD6+Zrvi9JP6yzPigXyqdp0pB02u+5U6Vk5NKMrWvVpkRbe1hjsWf356hsObZqN/u8aoVaUSShbOBX8vA2s9Hf3RfIOp9igCJ6fV1NvOInkAxhzRrx8ax9ncDr45S6BKlSoKqVAyN7z4DAhz11Rot/iSrNM0BAcm12d1+xckZeOxsvafOc5uUppHSsy5Eofm+34XIyvypUWZO+LIa2N38tccZ1Pi4JUG+UrUwfi1l/X0c3ynalu4pUexisprXaVSWeTNwGZ0qMws4FmiOy58Nl5DY0M+48aRTRjfvzUa1KqCciULI4s/n7WlEOI4d95u1HGOv8Tfcf75cBUqpZLqry1KDT9En7OQ8xORjXZ46zjOhNA7W1CLj7JLYps0AwqWKItKlXWuUflCSOrGOoj/iuMceXcJCqc0I89kEvTbb2SI+29ynCVebumL1PIlWWlzoWTZ8qgsP3ciFYoGwNWczVL5dcc5GJu6ZOb7MkeqrIVRuapyP2qpWqk40vry2XTm5F6OPKGo03HxWx1nwqudI5GDzjZ0R9/dctvpG1Y1Z3rJrVgrHFf37f0UjrPg389vX+P85msYxu16gDxDjiELcZjZKPNOpGm2HqnqSKPMc+Bbdjp1mLWjzOORpMg4ZKg0HfPWX8C37wnsZjPCL78czAQRH6+gT0X+8gNJ3FIhIG8hlChZAQ26DMXa/Zfx9msENVqPDijBDFu3uBznUJxfNxSlS5emUjRPJtm6q2TotOaarPHUOs5OWUshroFsuePsVHYiHmkubSwebRmuWAvtnS4HChUpjlJVG6DP5OU4e+cNfkaTM/l0Cl0z8ePRcZw/HR2KTNKaTJUl8teaF+dIMbFmMK1JIVqWpXd6LOF+2JmxleAlNfh26dE6PiM8MY8xokYOWo6DfyFsls1m1CX+jnM4rq/pgmwahWqBFBlyoGDREihXrQkGTlmPs4/eIly6Ga93olB61hv7ZxxnM7h4ZUYxXifUUqpkSRTKlx1JZWvTU5QbiCtfE6JeORFX0T2DNGJph0o99upNHVOTIMf50CcSF4ndAwrSUUb7DLWx5Qk3d6PemnCcY3Bn7UCkc+VLC4iB4ZM+JwoVLY7S1Rqj/7RVuHBXuvaxiH5zCO3TsnP/nY6zcumAAWJDsH0od5wtCmHaUa0BGPnxHPoUT8ePXQUz4vTkyE/ahVKsXVh58BLef49k7cLorKxDwSYOx7nrLmoAf9rTHSmlzinnDBh/np/Pj3NonZIZypV676AOxb1VjeLlOOfqsJXm/3KoP9JIdd0hDUad5vci9BI6pJPqtRXKdttCRxEer29h2nEmPN/Zg6/fdkWTMQeYsf/jNkaUYet1rQr3w8XP8TLj9JA7zg2mHTH+wi5KjNZxtiSOs6wTLjroPsbUzUnLoeKUHFnzFCRtd1nUbt8fy3aexYvPP+n5XZ5cm82ksYvLcY7C3V0TNM9n8fzZ4K6Z5eSBRrNO4KfsRmgc53iIpYMfag7ehlea+h2MfRPr8KVEDkifq4iibYhLGoxdg1caL1zpOC+4Zrr9iJUc5wr82czSEUd/s+Ns4ZoUOYvqHHOpkiheOB/SJdWu11a5l8bya9rO5Pg6znGKuTW8cjTGqnM6E/ijg3BgpGxKu8oZabLlQZHiJVG5XjuMWbYdd158QRS5x9/PjNE8YyYdZ8cUyF20lPJcZVIkhx8c6XMcl+M8h3Z4RTzciqq0PbRGibFHNPm/m3CcGbF4dngBOjaogLzpZUvUjMivO86xuDS1KbxJGdZetXHI2HT3v9FxpsR+wYmVI9GoYjGk95LVMSPyq47z58MDkMxBrdcSJuZeOTDpfPwv+u92nBH7ClPq5aSzHz2zdcdNnvT1xHCklBxqq9Toul5mfAnHWfAf4I+8HEzi9ZcwDF13E9k7bEGyWkvhV20+kpWfgaRlmMPsIznMRFzyj0G26rMwY9VZRET+gvFvgt/tOIe/OYq23GB3LdIVind26fEZC2vlZg6HzohzZPgXPD23HZMmrME5rVWkJOw2BpVl6xDN7cphwwN1PtlUbfds6BfHh/YebR+BtFJeIoVH7kYYNeJicGN2c/hKxrCNG2pMPKEwsnX5cW8jKqvXgeo4zgg8gToZWaNrn6Mqtr8wVRI59/vrUCsjc9aTZOqNa9yQe7u3B1LR6Wk2KNxsPkwsJaP8vL4Q5VMzZZQsWz/Il5DrEj/HOQInZzfio5op0GaJ6dHH0IuTkd2X7f/POM7SGudVem9ClXN7eRuNQVd2uOk3Lxvi2frW8JGcRs9smHjBuHKOt+PskQ9jTj/HuREVqGPokKIGtryRWT9GHedoXJpUD0noy6M80WDGOR5vmK/XV6Is7zj4HY4zm6ptgbRNV5u+hiFX0TcTn+KYuxX2vWDtVcSLvWieg40SOBbujmsm7ZwvWF6fr5W2jctx3snXSr/HnCqSMWKGgFpTSQsAXBpXlrYBztnr4hC39W+ujL/jzC7ZJyysmZ4ed5YqE2mn1/XJlei6NsdMNbCPP4R318XtOCPqHeY3SkbLUqVqjP1PQ3CPONys3mTAiG0PTbYxppBP1XZrMAMvtEOw+sQ8wrCi6agTYJmxJJbdZZZe9Pdr6JeTTc+0y9kEh16ZOppgbGpXmq3vc1A6ztER3/Hy6l5Mn7AMRx4Ye7PBK0ytq36BZAEsuCDdMYbGcbZNhWY7jLRyP9/j4KxOSGPNRnh9awzGbVqnYnF/81DNW+CLjDsc52jU5xtbMWLGCpx79EnhgKkdZzpV28oTtRbe5PGG+X5jBYryKaSpW03HC6Pt7a+vcT5qQpWF3STPPH9zvEPOIbjFi70Sz6najsUmkLtimPd39qFb4fSsrtr7octWdc4gbOqelZ2LZy6MPWj6ncoPV3dDJnqNTDvO0hrnM8oXMyh4uy9+a5zd2izB0xt7UJ++PdsBFcceUOwzbseZ3II3R9CqiPpll84o0mo+Hin00y00Kc7eS/LLjvOXM+hc2pWWka77JuMdXwl0nF3zkjbK6AsT4uE4E96enYc8vnzwwCw5Ws84AsXpP9uEgvzLGr/kOH87jeZ5mB1nk6owlpheWafh/tx68OI6zqdER5w3+RIVLb/dcSb8vDIVOaSlUeaeqDNPei/DI/Quypzj9GXHg6tBhnCcBf8B/pjjrObztzB0m3oIKSvPhGexiUhakjjNxSfAveBYZKw6g44wR8fE6/FOML/bcX5zdBoyS+URSddslvH1kNGfsaFbObiqRx4UjrNk/PTXODxJKg7FbUNtS+QjDK/JGiBziwJYdkNt0itfDmadqQJW3jZsnHw6PQtF1J+uSF4fO5+oVdYHzG9ajPUwOydDzx3GDYKwezvQWL2uUxJdx5nwYH1LeNB0M3iXbIuj7wzfz6hnO9Esj/qNsUnQd498YvcbzCzPG1wzR1Tsvtboy3vCH25E/QD1tEpP9FJMIdInXo5z5EfMbc6UtsoiDyadMG7FBV1bgoqZtG++/XOOs+mXgz3b3h+p+DHk67sKgQl4jGJf7UKtzOyNuTlarjP5crN4O86evkifKQOSSr+TVsZ23bdsGXWcX2N6Xf6pKrdUGLjfeLfJj5sbUS+N9tr/FsdZ3SlkmQQVxx/Tmw5KiXyIiZXTsHzmXmg+6ZQm34v9EzSfS0rWZK7xzo7oT9jYrZh2CURcU7WJ46yeBfDlzCT4Se2JRykMmTQKFbJKaxmdUHfJXZ7jVxxnYlxfmIbU0kixWzH0mzAWVaTnysweNRZoHal4Oc6Eb1dXoTydrWGG6sNGolUaaU2jBQq0mfUXXqqjdJylmS1FBxr59FXMWyxsUhC2tN21Q+m++zTX7/v1ZcjP346brNow3DfqfAdj79A68FG/3V1nqvbboxM1z5xjkc44pfWJZbzH7BbqqZmZMU32Yh2N4xzHy8GkDoDh+fgLuXK3wv4X/KoH38aQmilZvKUb6s85bbi+Et4dn4KAJHx6tXV2jCR1TVsnlC8HM/fOjuFGHMNo0m7X9+MdRg4FMe2YqXlFf+blYLHPtqNOFnYuDv49cJGrsvg6ziZfDkZ4vq45UlJHxQfVRp1mkRGX0dufLUEwz1AV6x8YG2UHnuwgz5e7elQxbsf5d7wczDpbbuRytSTPqzUqDtyu14bH5Th/OTcbBfm7S8wcMqHfXgPO5V9+OVgI9o6pyvSHQ0VsuW+igPg4zmHX0SkXq/8+heripFEFGbfjfGtpK7jx59zWvy62Ptafc/XXXg4Whl19q7FZHaStLjHgkE7nlSleYUIp3hFJ2rLqI3bAtCZj/AnHWTqP7V3yUHvRp0wLzJnSl74fw8wuE6Zf0Tkq4TgL/gP8ccdZzav33zFk9hG4FxqHDJVnYPn2a/jym6ZkG+N3O84xP25jVGXZmiab5Chdvw169e6Lvn17o2ubRiiSmffeeuVFjeqF4SVNZyENTOcNMtcqOgjbh5eRTcc2Q+riDdC9r1ROLzSvUVj2qQjiFA3Yim8aPcscZ2lEz9LeDk6OzKCxS10Qjdv3JNv3Rbe2dZE9iXattUu6Oth+X9nAfdw/FBll3+B0z1AMzbuw7fv27IYWtYsjKXcokhWsiSqFecNadACu6HlosbizvoPGoJTExi8/GrXrQcvr0601SmXgTqkkNunQd/t9/UY97BVmNcimzUckdeEa6NBTui590b1dA+SRffZDZZ8FvbY/iHPUJX4jzjF4uG0oUqrLJuKVozza8GvSp2cXNKlaBD78c0LZKlRFaX/WE5+uXA/cMjUK9kuOszmSZaiELtL9kEkvcm/aNKqObF7aKfbW6Rpjt3YOvgli8OTUElJOOxThswQs7TOiYZd+in3oSuOy6fiL6tyQt0IL9B88F1c1b6WROc5qSVUdOx4YGFcwMVX77c4+SKPu5CGSJHMptOzaix0DOedmNYrAm6+VTVm0JioVYAatRekRuP1d7iL+ouNsZg5rDzd2HpaeKFy9NXpL++7dBTUKpmYv85LEyhVNZ5zWOGSUH9cwoAobVaBikwylG7ZHrz7S9SPtQlvSLmTk7YZrbtSpVRx2kpFuGYBBOp+/MeY4IyYQy9uxkRa1eBUfjccyr+lXHGfEfsOaTtzQ4eJeiDiWMn8nvo6z5HTuGFlH8W4E2wylsey+0eHJeCGfqu1M7hG7Fw7IWbk5ekr3qE831Cudlb2EjooNKg3dr3SuI15idmM/nk7E3AtFajZHD952d2/fDKVyMAdB5ZoVlWuUgp80A8YqORrIR2Njf+LYjNq8o5BJsvy10IWX06Z+afjSe8AkU/vFeCNrGzSOs4UzMlZuxeq3THr16o429crBT/MsmKNo58X4IG/kgm5gaDn11wkkcUD2Mg3QtRcro3u7OgjgLy6UxNwlC8bs0h1vlY04W1vBxZW3z56ZUb1FN1pO767NUTiNtt229MiLGcdNz3D6VcfZKnlW1OukvBZ9evVAlzZNUCLAS3MMKrPUGLpH25ER789R+RZCi+7K8ul979ga5XP68vaNnKN3bsy+rn46YnB2VlXZFGYLpCdtT4cebPte3dqjTpkAPkvJA8UqVEP2dFJnhxVyNtCZLfQ7HWf+kikq5vYo1W+79nmWYcpxfnWIpNEXmZHjscmNqZcMjUcTftVx/nITsyYMQbvaRdhL9ogElG+E3v1074FMOtRCyiSs3rqnyIeW5JladuQuwsK/4vCcgTRPp7oF4Ma/8JGqaFtcNuqXmXKcI3ByTG3N97g9c7TAQSOf8PgrjvOXU7NR0p3twy1Nayg+0BIPftxegXzSpyKlc7DNiWlH9d+ZoMufcZzJk/B6Nyq6y2wvIjkHGng7unCcBf8B/jbH+f/BjTlN6LoaaZSi8DSdz0P8KjHhuLSoBwqm8oSdekSZi4WDO1LmrYFphx8xZfdyMwpx5zSg/kzIZ61KBD3ej86VciCJs/5LaaSyUpdojqWXA3UcQ+Y4U8cgTVEsvvcV91Z2R+5ksu9tSmLrCv98dbH41DOjvZwx769gUpN88HbVjuAxMYezFzH+O07ChUDpoGNwdFI9npYKYw69VBjlamIj3mLVoEZIn9SDj/rIxMwOSXyzoumw7fgUhx0dEXgFE1sR4zGJq8ag0YiNM3zSFkOfRWcRbHwAQMGBIeq1p+nRa6OJxdCE8Pcn0a9ePiRxVSoJqQ65eadGxc4LcP872/GhfuzlZNL3pMcdNzE2/OEMOufl5aTtgrMmhoZ/nB/P38wah1g5wCtlHnSccRzfjN1gPaJxbHoFw+UlQCydCmP1LbUFFY4dHfl1kCR1NWy8Z2QyXtRrzGip7kUvhmU3lcZa9OtzGFM/F7xcdJ8HC7h4+6F81+m4RtdyR2LvqBo8LR0mn5DP/fiMJTW4E+taAJMvmLZWqONMnUJb5Jl0GhHPd6Nz+dQao4oJufc+mdBswia8MuYHxIThwuIuyO+v3y6YS+0Cca6mHXpOn+WYF9tQjnfABLSZg7eyevxhfy+k545X5tZbFKNWXy4vRUFNuclInVMO0V1bXJ2nuaLF5AuKZ/TT4QHIyjvC0jXboHAqv99YhWKacr0w8qDSybq1Qv3sO6HxmNOmjbGPx9G2ODfCzF1RZfw5g21FQpA7znmGbsaHl+cwslZWuPCpjEzM4Eyez3r9F+JhqJEjjI3E3fXDUCaDFxxk39OWxMzWBcmyl8Wo7TfY9Pgvh1ElOTOY/cuOwEOdNivs7SkMqFeQtJ36ayPN7FyRPF8dzDz5Rq/tPTOqouGXLuqKtSO8M5fC8F33jLbfYY+OYkSjgvD1dNJvJy0d4O2XA90WHMRXg5eDOc60A8DFD4NOvMaHQ5NQIYMH0y1qsSDlZCiJMZsvG3TO9PmMRS3ZOyykzp+JZ0x06EVfQRdPNn3etFjCNUlyVOw0BbeDlFfjwoRq7D0ipI0o2Pug0nF+eQgtsumWZVgc3JOiaPNpuKr38W+pn2It2pZKBXd7nRf8mdvC0zczmkzcgTe00nzC1PJM15glL43NL2TH+vkKeqrXW/u1w3FFT4iSVzs6aDpw83Tbo7j/wbfXoJqsw7vw4L3kThrm2+mRSMk7YHLVWM4d5whcXdpKM2NN5VoRq++YmG8UeAyVsjH7wDltE5yNz7CnxNPNyJ9Wxyb5BakyZhe+/XiGQVmV8V5ZK2OV4jvIuoRih/p9FKoMGLmLz26LeIPlHfjsJqmc/L1x2URnwLdL85GR5w1oPR2mJ+triQm8jF6F1cdria5bTb0nwRhhODSpvOZYVSlakHpjrDVgHBmeked3QqNRp+LpOD/B+ML8OfSrinUGv4wSgwsL6miPxasBDrw0UPPCHmN0PQ+erwI2PolvT4tA8M/hX+04/zuROc6p8mLmVSNOikCgh9Zxdi7fDddNjZIbIPbOApSSpglayB3nfzZax9ka2YYf4LGCXybsGvpUYSO7SfIOwr2/NthMkTvOAb1X4rNxn0MQb2SOs1NS9Nj9kscLBL8ByXH2k2a9+aLFNqOL2ozwAyt7Sd98VqHi0I2KLwkIBALB/xvhOP/jEI6z4FfROs5OpTvgjLFF5EYIujgDxaWpf8JxFhgkBqenNWPOmFVeLLhqZPpnAhGO859AOM6CP4jGcU6Kxmsf8sh4EvkWC7uwJT3CcRYIBIkN4Tj/4xCOs+BXicbBcQWpQaLK0wTH43p1uQ7fz45HAJ0emwVLrsV3zl7iRjjOf4GQZ9gwdxR6T12CJUsmo03FjHw9qCc6rrxqdIpxQhGO859AOM6CP8ijNchAXxRojWrL7vHIeBL5GjNbsHXVhXqtMvg2cIFAIPh/IRznfxwfsbAif4GWV1ZMuSwcZ4HgV3m5YzCyc6cs7aC9PFYQP75jU99qivW15n6FMebwM8Va07/Kp4sLUJiXn77rUnwSjvNvIBz7e1djL1SzcEGnHYY/1yMQCAQCgUCLcJwFAoFAIBAIBAKBQCAwgXCcBQKBQCAQCAQCgUAgMIFwnAUCgUAgEAgEAoFAIDCBcJwFAoFAIBAIBAKBQCAwgXCcBQKBQCAQCAQCgUAgMIFwnAUCgUAgEAgEAoFAIDCBcJwFAoFAIBAIBAKBQCAwgXCcBQKBQCAQCAQCgUAgMIFwnAUCgUAgEAgEAoFAIDCBcJwFAoFAIBAIBAKBQCAwgXCc/yXc3twTNStUQIWKHbH45FseGw+iA7F7WnNUkLYl0nDOEYTF8rRESwTe3zuPVdMGoV2TGppjV0uRAD+oVCoizmg77zKi+VYCgUAg+G8S+eEyprdU6op4S4fxOPU6ipckEPx+Ir6/xJmtizGwSxNUrczqXeWqDdF1+CwcvPMGkYneLhMwonBmsdamTpg0w4Ttj3g5gsSKcJz/JZyaWBCOkrNolh19NjzmsXEQ/QYzGvhzJ5OJd8dVCE6kDfTns0tQLqWT4niNia1nGjQdsxEfhLIRCASC/zzhz/ejdRrD+iJOSVYRq+9G8JIEgt/D53ub0Kx4GsN1zoA4piiJqQcfQNTExEwktvROafD+xS0OqDzuPC9HkFgRjvO/hAQ7zj9uoWdpX5jpPLiJ03H+iaOja8OJHqMdCrQch8OXn5BYgUAgEAjiRu44WzSYhW88XiD4u4n5fBm9CifX2l72GdB88Hwcvf6CuF1KIj/ex/6lA1E0mT3PbwafCsNwLZBnECQyZI6zU3ksui7mPP7bEI7zv4SEOM7Rr4+ieV43+mCb2dsjZfYcSEUb5MTpOH85Px9lPKXj88WQPS94rEAgEAgE8UPhONccj6fBPEEg+BuJfrkNlVM5MMfKygX1Ru5DKE8zzU8cHFceDtxWc644FvcT6/TA/zQyx9mxFKYd/8jjBf8WhOP8LyG+jnPIva2o6mfOHmqVO9ptvIVnR6YhD2+MjTrOPx5g7fgWKJU5qWKU2sk/H+p0mYhzb8N5RsO8vbgGfVrURJ40LpptJbFNkh7l6rfDwgO3YXgFWTD2jq8HS5LXo9E0vCXH9vPpSYzvUBs5/BxlZdkibb6KaDNoGW5/NqJMQq+jTUkPmt8qSU/cJ1Efz29Fr5qF4GOuPSbXNPlRt/N4HHsWl2UVjpu7ZqNj05rImzYJLDTHwsTGPS1K1myFSesvI4xvYYiYT9cxu0d95E/rrtjeJ1MxNB28ArcM9CyH3l6BnDxfugYj8cxIp2bk2+Nom9FSU6Z3960sIfYeeuX31cTHV5xrDsMDOk8sEEu75+fxKTDlxAda7B/l2y0sHtURFQtkgL38uOx8ULBSY4xffxo/eFYlUTg4tqA2fzzFqe0ao1Pivt3ag1EdayF/KuU9c0qWE9VaD8bWy/G5Hs8xplIGxfamxKfmUnzhW0pG1N5BOXiaOZpMO2F6+t7PW+ha0Ivl96mAXe9jWPS9NcjNy/evPRhPDD6EP3B+9Vg0q1IIvvba45Fmf6TLVxntJ2zE4yCeVYfIB+tRw4/lN88/Gg91h1MoHzC7UR5ephOmnDd8Jq93dIAf33f2Trt0zjcEOwZX42Wo0HP7ax6vz4NlHZCE51PZZcPQY0aGbn6+xo7pvVGjSGa4mvH8klh5Ile5+hi27Bg+/aLdGvH2BHkueXmWFbH5QQhPMcy3s2ORnO8/f2tSD+T7DX+OTVM6oXyuFIq22SF5LtRoPxqHnxsr+x1mFon/NFG1NJxwRHHtn29ugaQ8LV+P/Ql/p8S3S+haWt1GZcfyW7rHG4Wzs1tpzs2q2WL8+IXr/icd55DHJzCjTytULpYF7pZsH1pxQvrCldFu5BJcNVLVri+pyfM6osnYM2BPpwGCb2NgFfXIY3Xseiufd/UWs8o5s7QkJTD3ms51/PkUi/pWgrcVO66c9WaQGqDD99tYPrYjqhTOzGd4qcUFmYpXQ4/Ja2G0qsYEYlkXnfrkmhdrH5uqETG4sbYLbOXbOJfFnjc8WYcnR1eiX6t6KJwthXIbImYOyZC/SiMMW34En3R2+WJ7e9jp5I9bkmDk3t/cUR9xHwPKZ2J12dId1UcdTdi065jPWNOnKLxS5UXjLkNx5KHheRNRby5h/uBmKJ0tOcxl52Tpkhal6nTE/H33jdhbhPcHUNGN5c9YZSIkt+/pnhloUiab4hr6BJRB2yGLcF3RGMmIuogOrmpb05hYIllAcTQfvhS3jegQNTHvr2DR0BYom92P2oPqMsydU6NkrfaYs+eO3mi9hs+HUc2L5U9TbjSt9y/2z0HzcgEKW8I7eym0HrgAVz7/lVHiP+k4B+H8hklo07AKAvyUtrQk9t6ZUb5+J8zdccdwOxxyAc3TsTbCMmNZHDRxaE93DYM7L7f00K1kz1oerKwNV5pmg1JDTvBYNVG4vWMyCqfmyyo9MmHdE56kJuQxtszsi0ZVisHfQ2ufqsU7XSHUbTsCO69+5hskLoTj/BvZc/Elxq67itsvtObt30V8HOdvF2YhtzOvnNbpMXj7Mxr/cs845FJXWD3HORZ31naCJ0+XxMXbD+nSpUO6NCngZKGOd0XlQbuJ+SonFm9PTUcpbjhTsXGDX5q0fHs/uNubadMcUqLL2uvKBz7iFWa3T0fTK/cZgV5lcmryO3gmRxqpHCKpUySBlbocIjmrTcZ9XY0Udgvdq6Wl6SlS1keb1tlYfgtHJEutLsdT0ShnqDAUNw14vZ+OT0KOJNp85o5JkFJ9XkTSpEwGZ7kBlboKVt3RLSgSR8bU4A2QJGZwS5aalZHSB/ZqZ97MES2WX1Vcl7B761HcxZqm52kzCS8MtJLRgSfRNoMdL1sSC2QYuJslxj7H9BYVNcerllRJXWBBnQRLOHsk10sv0XchXlDt9AVrBpZl5Zpnw5wzn2ixf4LYrzcxvFYq2Xmo4OabEmmlY0rrDy9nC22aZUaM2KvbSkfh2LTyPI85XLxS6J2XWlInT6K57n49NukZNR/PLUC5JLKG3pbUZ39+38mx+LjaaNIsU9XCyhtf+ZYGCLmGzhVYfbR299U7FknSkHptT+uRFTI2XQN5abGBl9E3Hz8W/xY48NxY51UsLkxthWTSfbX2QIct7LmXCH+4CSXdbGkZOZuPwTMda+rV3hHIwo0oSczsPJAqLT82P2/Y8HhpbVbxIbv1OogiH29Fk+wsj2fZKXhi0LL5hMXtSrFy3P0w57JhU/Ltvt7I7iqV5YKiffbr3JtQ7BvTiBnTlvYYvNfQCxJjcWt1d6TWtFlEfItg3Gmd9vrnA0yun0/mhJrD3TeV5p74J/eUtTXuqDbx0C8tG3m2fRQCeBuRoesW451rMY8wqIQ/PR6PgFo4KHvUHu4YiJSyTj9HL/7Mpk0JV037Y4OyPdZDvz/xAxZWygVrKY+FDWl7/DXnqCupkrIZStK1bzvjpOLav9zZGZmcpDR3lBl0JOGO8/dr6F+DdepYOxfFuru642/EcZ7TWtMxadN8yV93nOvPwG+Z6RpyDyPLetMyqZjZwiu5P2ubJCFtQlJ3eRtsiaZzTunVl1urm8KR3q8UaD/tgnHHmexvVMNktCwrh8bY/17+zL/HotopWb1NVxVLbsquY+gdDKzGnForVx96fE0GkjrBk2OC7mJso/T8GCWxgEeylPz+p0UKb+6QUzFDusZTcD9U5ybEfMHafrk021vQ58wZJTpuhbE+ipgvZ9HB34pvw8QtJanjOh7991sbUT2ZzFawc0OKVGk09TOtfwq42cnS7TNg5gVta/nuxHgUzsHviVrIM+Jhyx07Wxck99dJT1cWi8/odS38JT4dHoFCHuwYfbI2x7k4nMWEEvXqANpml3XmmjkgqZ/6OqVBci/ZO2Ic8mLI9of6de3jUdRLLTll5ihQth6ql8/C8pO2P2Uadm1SEjtBUw6RIl1WgPfFaom6it7+njTd3J5cX25jqSUteTaSecoGP8yzY9zux3rHE/P2CDrmSqLNZ2YPHz9uJ+nWTbuc6L/lvv45BZ5Ao/TSdTFD3lJ1UasSt/1steeUytdVWw6RAh0W480vvQ9QOVV7wRXD+iyhPN/RH6lkHdfWLt7wl9mcqf2SwkGmC1QBLbDnuU5rHHoFnfKwY/PKXwvHTPilz/ePRxpeVo1xuxWDEo83NIe/nZTmg+pjz/BYiShcXtoeHtJ2Vk7wJc9UTlKHDmj6sUNxaHR52SCTGZyJzkrDbQrpfvoldVcMQiVtMgcvTI08/R8QjvNv4N6rb6g4eC+SN1qN5I3XwL/ZOvRaeA7fg02Pwv5O4nKcP+wZjHQOXEl4ZMXYPdoRmWe7jTvOH44OhTdPc85QGzse6ar8t5hUKR2r6MmLYtK57zw+Gve3DYU/39Y8aXFMPvWepykJe7gLLbIkYQrf3BVVhx/WGpHfbmNYRVYGEzOkqDEENwwqnGDsG10XzrxH3bNYB5wKlDWh1HGWGQeOSdF+6WUDPb7fsHlAFY0D5V2hFy7J9hd6bR4K+7A0a8fcmHDUuNN4d0lzbsA6oNGI/TLjOAY357fSjCK55e+EM7o+1o+L6FGWGZT2HpWx+5W2EYzLcY79chRNM0pKyQGeRMn4OUr7kTnORni6tT3cbaW8Pmg25gxxNYzx+W9xnGOC72B4EfUIiycqDdmhcB7VfDk7F4WSsmupss6A6eflzpDccXZBx3nnjRqmX87OQVneuaTrOL89PAQpudPlkakK1tw0rHViPl7GgBLqepYek4zUe8lxbl+OKbHK8y/xSCXBl2egVAqpHH3HWXIEH2wdjrR0Pypk77/N4GyRiIdb0SA9y+NTZwFxl7SYcpwDj09GAbpEQgU757yYeNzQ+X7C6p6F4MDreJle5Bh4ikTicZxjcGtDD6SU0l1SIX0KN5ZXx3GO/X4F/cvxkXlVEjQaf8jINMqfODGtBTxpx58tCrZZpBwFjg/RbzGjeQHaUWfhnBIjTxiq2TG4NqMpkkttkY0XWq1/yuOBrxdnau69mX95rLul2ygGY1nj1KxddSiMsQd0nQCZ4+yRA30PGJ8l8Wxrbz5y5fR/cJx/Dwl9OZijbzoUrdIMvUYvwpnnhiy3D5hRgTmxUp0s0medUWc8kuy7UXrewVegPy4FKivLn3Wcw3FwUkM2gpyxGy7oHGR04CV0za52XpOgTO+ths8j5j029S2GJHz2hVuO9rgsr3IKx7kS+vSpBlfJ0E9RAnOuGupaisbJCSVpvUpFDOyMmVibqes4R74/iibqTmrrdOhOHCNjPN8xFFlpRx9pLztsNj0FOuwuRhXmjlvBTjhppJn+fUTj9LiWSEavjxUy112u6bj4Hfx8tBIlfFknja13Voza9ZCn6BD5FotbFeajx55ot+SCcqSWOs4y59s7D8YcfskTZfx8jpkNcmk6EdO0XIr3ckdT5jg7lmpLbDEer0PYvXUo487KMK86AvfUJiQh4ulalPVj+t/GKxOGbrvHU3SIfo/l7Yrx0WM3tJx/RqkfqOMsc769cmL4fm0HsoaIV5jXJC9rE4mkaroAr40OYxsjgS8Hc0qC9PnLonXXIVi2/y6xVvT5dnwUMlAbTgUHr9JYeNVYj0sszkysyo8/CTrPOadsj/+w4xx8dz3KSrrAPDUGb9Kvf1dnVaLlSZKiUE+cN7b/qBeY1VhtQ+XHoot/bmDmVxCO81/g5ccfaDLxKNxqL0e7mafwJpCNt5669Q5l+u9BqiZrMGHjdUTHJNSiSjimHOfbq7oiDXcmLXzzYeEVpRFgynGOjo7Cz6DPePH4OT5+0zdooz+eRNtc/CVj/qWx9A5T5DGBF9E3NytTlaQGtj6KwxiKvIYu2XjPfdryWHyDH+M34jhV4uUQ8akyg07XNsW1BfX5qLETWk07ru3dlznOZs4p0He3KU0ZjaPjSvD9eqP7kst6DdqPz+/x8rMhg0rLt8uLkd+BjQoW7DATrzUWUSxioyMQ/O0Dnj97isCf+icVfGcN6mZnTo19suY4JbPMTTrObw+jaS7WC5uv/1Y8ODELJWlPZdyO86PN7TSOc9NRJw024gy545wDS67/yphb3Nxa3YorAXvUHifveNDn1toRqFumAUYt34vrb+Xum9Jx7jDnjNJQkPHp1CyUMeQ4/7yOHgFsartdzrrYH5fFE3sbPcuz/F65R+GBgTob+2wbauWQHC9LdNmqO0rO+H5hGkoadZwJMS8xvU1O+vxZ2GfB/Os6YzuxgVjdl0+pty6NtTeVU/vkjnOeNpNlhtx3LO5ahD3XNq7osdv41GfSEmJi8VS8DSiLuVe0x5BYHOcHG7qw6dlOeTHtzH3s7V2IGVlJ5Y5zOE7PacnbDiu0i+NdERL3FtaCreRIOOTHaD3HNG6i7i1DidRS+2COtCVH4IlOPYl+ug31s7P2I0WV2XgjS48hbXN4cCBePX6KT1/1n7/Yr9cwoAhfWuNVCrPO607rlDvOAei9z/hnDB9v7hkPx9kDFUb+whth/x+Os40jPL284e2tL15eSeDp7gZHG9kIJhHnfD1w6p1+3YwJDcTbD28RYqrH4OdDjG/Cv2BhWQtbdeaJax3nlOg67zaPNcQrTGyWgpYTt+PM0j6dmoYc1iTOPAATD7zQ6QyNJc5rYVhJddgsCZpNPm6izZeIxdFRNeFJ83ug7MgTWidf4TiXw5KT5zGjruSsmKNIxwV6X7iIur8YeZKYk+uRBj2mb8DAplnptoZGnCXCvrzG2y9fEWWgLVUT82gDqgSw5yVlztEw4joygm9hRCHuOBfoiGPyh+uPEI2z49Wd5dbI3majYvrrX+MD5tUvQJ9Rc6+smHqNRxslCMu752J1xbMFDsqX2skcZ7OUZbDoirG5+YTYN5jVli0ZMrP2xYQTMu9Y7jiXbANjM5ajXu5EHT4K71hnLB5pHo1PWNS0CB2UMfPMiAmX4ro/IVjbl88Ucm2MvS9lbaLMcTZLXhxzL5i68u8wv3NuVo6FF8YcSegyNJnjbGYNJ7ckBtsZb28vJPH0gJuzfEYKEavsGLr1ns5zKhGNbx/f4fVX+TOvz6tDk5CJl1V+8DrZ8i6CzHH2LlQfF00UFXhyOtLxckw6zuO44xzzAEPys5lJBTssw0djvX+xoXj39gM+mW4wcXhiU75cxAK9N8eti/9OhOP8C3z+/hMDl11EsoarUXHwPtx5oT9SEBUdi61nniF7+01I32oDVh95iNjYP9cwG3acI3Fmdj3NNGuz1NWxh82zVWDKcdbj3X5U9WaGtlYskLJSTxx7qy37y9VlKMx7pnN0nhevKS+npxWHDd0mE3qvuMMiQx5hYn3tFJquG4z3NqsJIcZmLWqEEOXZghjr6vZTNlXbK20vXIujJ/Hj+QUowPebr+8Kow1B+OfHOHtgO1YsXoCZk0ege+MqyOytHiXVSoEOM2SOsz7Bl2ehVDLlNpLDmLvOZNz9omxkjDnOkW+OoXUAm0YV0GUznTr/+ehEFKGN3B9ynI2KPZJlKYYWfUZjzYnHcRhkhgjH5u6pmcHuWhpTT/xq//xfd5wjbixAgB+73gkVu6TZscpAR/nHI2NRSOpFNs+LpVdl3ewy4nScCaHXF6Kkv2QskvtbdTYxn7W8O6FWfvaoM3Gv3giM3HE2JnZurXAs0PTdOzerDOzoDI0M6LH0Fo9NHI7zwxWd4EUcB3OHTBhxRKpDpF4RY4/mlTvOEe8wr416BDGh4oRGI/ebHuEySBROj64IV2kmg11adFghM/WlTo9+xVn59kWw4mYcZnboWbR3162jlkhapDP2PTE8YvrbHGd6X4yLY7JMqNS0J6atPqA/gvN/cJwtak/CK9P2JyXm01UMKZ1acx52aTvgnLGpBTFBeHDxKDavXYYFs6dieK92KJPXT7GEiIpFTROOc/zFpOPsFYAWw2ZgSvcKcDW3RbrCzbHyhIFRQ7zAtJJp6DbmGSppOr5NEXF3KfKlZiPUOSpOxAv15VA4zqWw+tZnvD07mc3yIO33wnPyIcdALGqUj9ap5GVn4sfPR+hbgy3JMuY4q4n99gaXju7E6uWLMGfqWPRsUxe50sjfd8IkZY7E5jiT+7yoCzLw40uTdwwMd5f+Ah8Oo0Fh9v6WBIulC0YckD371HFmNleeehNIDTHN3WU9kUlq+83sUHLaaR5LkDnONhmKoNfkBViwQCvz58zAwFal4MnrvblXMSw+K3NSPx1H02KyUeKEiJkjBu9+xQsiUMeZXZ+AGqPxNI5bfX9NP2Sl+swGRScd57HxRb7GuTRmnjaktXX5iVNTG2jeFaFSJcfQbQ+MzjwJeXcPJ/ZswfJF8zF9whB0rFcOqd2USx4kKT/IuOOcEDHoONPBGGfkrDUAc2b3RxFfe9glz42OE3biY7wepRh8eHARezevxZIFszFheC80LpsPbnyQTyvm6CUc538uEZExmLXjNvybrUXuzltx6lb85vbM3XkHHnVWIF/XbTh+w7hx8leQO859N0lNXRT2DSioWa/rULgzLhrx/BLkOH84ikYZk8HBwYGIHeupptuaIUfj8bjPndRPZ+cigDY8KpTpvypeU5KuLa/Pje/U6Dafd5nGfsCy3uqXUKXChENG3hoiI+TZNtTmjXGqllPx1IDj7J1uELTmvWG+3VmDSnS/KmTushCyfgG8OjET1bLLFZUFbOzs4eabHhWb9sPstTtx6fYLBN7ZiBLcwY3LcQ65vgg1s0rXlYi9rWydhz0KdN+oWKOodJwng16VwFNon4k5QQW7rdY4+u8Ojv/DjrM5rG3teZ3Qir29Hazl60ndc2H88YSMygVieRNuCPpWwJwLv/oBmb/uOH8/Ox5Z+FRwC0tbvXM1JW6pc2Al7wfSEoo9IxpQp8UsW39cDjL80MXHcabnN6wSWytv549267ipE/kAw/KxmQfuJTvhlIGX5skdZ3NLa9ipj5vUP0v+/FLH+Ytpx/nmykZ8unZKdJp1WdNb/v9znNnwxr2VXeEnjbbZ+2PscfXV+4FNhhznkBeYUpc7nuZWsLVX3kfT4o6mo/fqvOMhnoReRze+LtGuYHMc5Grl3clZyMOfn6qTD5icbUEJvYheaZPy47GHNb9/Utucps5wXNOrPL/bcTaDhZX+s2Fvbw9bazYKyMQaNUfv0tbl/4fjnJCXgwWeRdeSfG2orQvayo24rzcwtUEB2XsqVLC0toW9gxeyFquLAdOXYt+Zm3jz8QnmdeYvAjTpOJvR7XWvoUZIm2plyUbCTTrOKYphwNLtWNytGJxImW7Ji2LE2lsGDPFHGJubvT/CMjc5ruc82hQvtqNIRvZW6Mxlh+Khuk9X4TiXwOKr0jm+xZSmbITcr+0CvOUV5/XOIcgmPZcWKTD+IlHQ0ffRo5pxx/nbtc1ok0v+Mktz2Njawdk9DYrV7YQpyzfj1PVnCHqyCw0Ksmc4MTrO0Y+ITZGVHZ+NXz4suZvQ7uQonJvbFu4qS3j5Z0a5IdtBu1xf70DN3Oz9GubmNrB3NFB3jImLO0bs13WcWed7gYYzmG1hgudbBiI3rbu2yD32CI8lyBznOMXBE/laT8GZ97IBgpe7UC8f100JPSdHVwzeJeso0qxxJvZS7ckw1IUk5+XO4cgn1U9pZsCIAzw2vvzqy8HCcWRaJfb8EnFpOhcfZA3tg10jUCKtbI26uSVsic3pmTIrarQZioWb9uHa/Td4fW4RcpqzNqKcCcfZzNzCpI6zs7XWHItxx9kTxTvOx+7V/ZE7qTksHL1Rvu1sPDHa//YNB6Y1hL/8vSmS3UGOwy9rUbQeMA3r957BwzefcHp+F96uCsf5X8HZOx9QYfBepGy6FqPWXkVYuOHG7/Gb72gy4Si86q9Ex1mnNVO5/wQax9kiP0ZtO4PlPfIyw5A0sH7Vh+KOvNbrYNpxDsXLW1dx9eobo87G1Tl14EqVuQ0q9lxH1zhGv92H5nzdimWRvnpruvT5iPlV1aOLRTD+iLqxicaVxd01PXGFxx42ehxqHm7qAGvq0Fui5ojt2geeOs5MOTsmL4UdcbSet9d35C8/skHLmeop3xE4PaMVW/dt7oTKww8pGhRdgi7OQhr+AjQ9xzkyFE9uncbl558MTMuR+I4tA6vAWTKAyb7KT9OuzZU7zvk7zMWLz3fQObNkzNiiUKcl9E2Yav6442yeHQvli8B1iHyxFXUyMUVsla4Elt+Lv7FwYkoJbrCnRO8l141cJ8a3czNQu1gO1Ok4GmsOP5Q5GnLHOSl6LLlMapVhjE7VfrULJdMyJzRD5UGIsxmP/Y779y7hqXyNvYzot0fRIRfbT/nx+iPBauLnOBOCzqN1VtY7n7RkO1yNiMWjhdXhJNUd24zovd7Aei6C3HHO3WoCMXPVBGJB12I03tw+NWacM7pnQiR2dc/MRtYcC2KkzAj7vzjOVs4Yf+o97m4dyNZo2WbAJEWHjRHHOeYrNg4qxI7DLAfmX1CYHAYJeXUFNx69NVkv48OLA8N4G+eEJlOO4Wf0R0wpyYx6u8IdcVzvzTsSEXh77zJuXH1q1Km+vbYtvLkRVbDLQsjtUrXjTO+bT24MM7iGnRHfqdrlhp3isQaIeoNlLflLeUjerkuvsPYsKJE7zmF3Mbg+f1u0lQuqL2adupFP16NMGmlmkTm8i3TA0TeGn3VK8H2Mq81fYmTScfZDp1km5tlGP8W4Juz7v3FO1b7F0j6fmY1cvE1LW38OXikenFBs7pyRdZ7YBWCw7MWBxni6rj3SUqPZEYVbbtJ2Fuk4zgsvsPr04eBkFKT5M2LmBZI78iGG1GJOcMbem9g7ESJua3SzruP8fHdvvq7aCYW6LdY5fiVRd5ejMn+fQ2J0nKVn9viQSnCjHWJmSFtpBO7FZdDI+Pl0F2prXraaBpNO8Av18wa6lGODAq4ZauCIqeaaEo1XTy/h1isDD4FsqrZ32TbQvLbGICHYNrgWWy9t44J+cmdVMVW7LU7oLVONRnjQW5zdMgFlMqgHIVJj7CG+nODnLfTkX51wTlMZB+IcfYnBG3JON18asMhkU7WTlGgG2WstDBCKXSPrs89+WTmg1zbteyXix686zlG4uryr5i3ftpUn8tmSP7FnSA24kDgzay80mXFRR/cpeXVgpGaWqSnH2btgXZwxYby+OzpZ8w6NeE3VjniMkcV551bK0lh5RccmjHiGsbyO2nkVwqTDprpkQrBnQl3uuAvH+V/F/kuvkL7Vevg1WYPlBx/wWPKM/vhJXw7mXX8Vqgzbj5cf46uhfx3qOEvKxdoOtjZWfHqYFTI3maP/tkMdjDrO4TfQLSNr0MzdcmHcYcNrPX7eXIIAZzZNJFeLcXhOtw/BvvGVaZxU8QNaLMFbY94KaRgODa0CRzpFwxw560xQrNmN/XoeXfmbSy2s0qLHFuMP0ddLU5HHnY1umGWui63y7+soXg5mjUy1xkP3pYNqgm8uQH5PZnCaZ2mC3U95U/XjFgbV9qHx1k6VifNt9KSIxXAczXK4aHrt5I5z9Ku9aJCNxZsnLYW1D9TD4kre7OqLAAcpnwPydt6uMZDljnPOMmVQML00amCObC0WKxtKwp93nON6Odg3LK8bwIwzrzwYauJlarqEPd2G6tzos/Sric13jXQ+hd3DiJp8na2FI5oo5kZH48SMiuxYVVkxfLNxc8qo40x+HRhQgD9XzijTb63RFwEh5i0Wd8mr+XSHR+3FOg5vGHaPLMlmg6Rqil2PjU+PjLfjTHi1rxe8JIPMIhsGTZqF+sWlkR5z5Ko7n7imhjH1crA3e4YjD70W5vAt1h8PjBzmh4ODkNGFPXPpKvbFHZlW/7sdZ+mam9nZoULtWuwlPLZZMe6A7mRDI44z4cvFxSjH19tZp6uPAy+NW7VvDw5GNkf+wifvwlikfi/DrxD9HkvVI5I5umDJ7M5IIU3jt8mMARsMGG4xTzEmP1/C4kTq9FbDEyrDn2xGBRv2UshkDUfhvsInJde9cm7mEKcphHk3DLdBEvFznON+OdjDLX3hTMtRoaa6w+hH4nacn+0chay0/SRtkEtRbHjEHpLL0+uxz6OZe6HK1Ms0zjA/sHtoKd6RTcSk4/wnXg4Wi6d7RpG6yvaftsFCRcdq8K3lyMvPzz5VVay5btxT+n55IcokZ2syrb1zYpH8YddznPleol9icuPcND51vanYtqgrdQJUSepgy11+HWSd2krH+TOWNfBns6/cS2DKKRMt4PdrGFqJdSpIkjgdZ0LMVyxqnkFjF3ikrY+tOu+eMMTLI+ORRzNS54UWxMbUtk6xuLesBZLbSGnWSCd9NtLo4xyBE7Prwo3vX5WjD258l9U4xcvBnFB20Hqjeufx9qFIRztFpA6+kbgfIruG8VzjLPH2wGTNZxFLTDioaV8erWqHVLRuWsG/ykAYU/+S03lmfkP2NmdJsnXHZfnyNsXLwRxRsu9qo/r72e5RyERtLhVsCgzFraA4DGg9ftFx/n4ZvXPw73urzNBoDre/Ak+hXRnW6eaSrAlOmKgq4c+2oarsLfWmpmr/iZeDxXy5jn5F+Zptj8rYeFe7VdiVGciVkp1bQOUpJmcyPCa2RwZqh0oiHOd/JZLTnKHVBuTvRoz8EQeQqe1GlO6/G2fu/PHXNGrQOM68oktOUv5+u7S9wSYwNeL8/epc5JBNq/DMVQ+TVu7BsWPHcGT/Bgyul48pQUlsMmKgvMc65j3W9CkuW+Nlj2wVO2HJ9oN0+2P7t2Jc50pIKlvTkLr8AFwz1Av29hha8mmnVJwyoH7fWdhzlJRDytq1eAjKZ9JOYzFPURaLb+gUJHOczc3UUwddUKLZYKzdx8rZuWwkqubQfl7E0r8yVt+SlxOKg2Pqa79xaeOFcu3HY/PeI+yaHNiBBaPaoXAqppAdU6aDvwubQpWrzRQ8lzkmT7cNQiY6HYhJ6hLNMG87K+fwjoXoXCWbdrq2c1bMll0YueOslswtVhqcEv/HHWczf3SbtY3dU40cwd5dmzFzQCMEJNE25AH1ZsU59UuX18emIwdXZJL45KyNCSt3sP0c2IwJnSvCixqdktig0IBd+Ebq8JcXd3GC5Dmyazna5lWvk8+JkduNrywz7jgToj5hTYcsGoNH+ixGvkb9sWILq89HDmzFpC7lFd8E9y0/AQ+5bRj57RmunDmG5UOr8F7l5KjffymOH5dfN6XsntsJOej3Jy3hV3YQdh47iwevggyPcEa9x+IWbFqkWhx8CmKtiQVdphxnqcPh4swm2m8eqzxQpuVIbD3Mjm3nomGomF37TNpkqo5dL5X7kjvOLrk7YM0h/XM8dmwbelfhn5lz8kK3+bx90JFN4+shNTX+HZCt3gQcJHE3nn7gxiNznOXf5DR3yKqcrqfBuOMs8XzfGPYyJV6OV7ZyGDh3E92fVK83zxmIshlkU+bc8mL88b/e1v+4uQ411G+Gp2KJPIa+tcsJubcOxWWfxHPMUBnjlu5k12v/ZoxpWQwu6ufCOhV9b0QM+Xv/4DTNc2TdGBRJw54Li3QFsPi2sitCTpyOM31mnJC78RQcptdJLUdx8OBOrJ41nLSr/EVlRGzSNcSOx7yjIc6p2lG4vKwXktnawpZIym5rTS8nMoLccTYv0gZr9sqPUy5HcHD3Zswe0Ra55e/zsPbDoF2PeGnAz/uLUMhX+51av4INMXn1Ll7GQWxfOQ0tSmVhs5bMPZE+XXLWnptXwoYHytGYP+s4Mx5Kn2KjbbsVcjRZpFj68+oEaWN5uyeJY/KC6D1rHa/zh7BhzhCUSSt7b4dbRkw4oTO135jjTAg+Pwl5krOOaCb2aDBR9k4Ao44zcH9jG01ni/R5pUKNB2LlTt7mHtqFlVP6ozTv4LfzTIWUvmx2U4rsQ3DXVC9OAh3n4CuzUCAdq4OpSzaOY9QyLiJwZkEjxTe/zWx8UIzok8Wb1XXoCPZtWYietQqxdyDwfOZuJTHtiGz9roZonJtWTWuPSSPa5Vpixipmrx07uh+LRzZFZtm3lR0ztsTBZzodfjLH2dqC3zPrZKjRaxq20fb7INbN6o0CybT1wTl3N5x5p9PJKHOc7XJUwrSt0rYyOXoY+3atw7guVZGMLz+Q7I5he+SzHmJxaXZtzfeEpXNKXaYZpq3czcvZj6WjWyC7u/aTlA7pmmLvYx3LV+Y4a87JKimqdp+CrQelckgdn9sPhVOoHVcVnHJ0xPE3xju1jSNznO1yotO0rdpz1pEjR/Zh0+IJaFg4rcxOtkLWdgvxStPx8R0be5TTpjumRM2eM7CDHvcxHNq3FbMGNUEuH2ZnuqVOj5QO7HqU6EdsQnm1/sOOs0T0m6PE3mL60cqrCra85Nri5wP0K6Lt2LJOURDdJq3GAX4t9m5fieEtS8OXtlFmSJE+HTxpvTdH53X6L4l5unccca7Z8+jceAZe/Zn+VoMIx/k3ERQagRGrL6PsgD3YdPIJfTnY38nJcXnYiB4VD9SdeVpp9Jvg6c7RyMa3dW+7Qs8oifr2ENOaldA6iwbEv0RP7JJ/R0BG2PPTGNs0r2a9tSFJUbwJll+Oy/iMwM1VQ1CIf8jeoNimRpvxe/RGXSky5ZwkfWMcuXMTE6tn0zpCMjHzLoJBS04ZeetlJO7tmYKCvKEyJOlLtcHu+1KrFIxlrfn0lUzNsfupsiGOeH0Sw+plNngMTCyQu85AXHyvbBXC7q5FIT5KIElAu+X4YMRIeLt/DPJzxZu6304ea5iHG1vBkTp+Hmg4/IRJx3lVv5Ka/ccpSQpi0PKrfLr7LxD+BrumNEYaPmpiSDKU7oKDj9X9yMSRGl1ftk5cEhvkaL0AL0w0sJ9OTkcJ3tOZtOsGg8/Q9ycn0b96Dtnzpi9e2aph2YXnitG3z8eHowD/jNmvS3K0mWz8c1pBN9ahmub5MEfFWRd4imHCH2xAUf6ZuqyNR+KpgRse+f4IulXiU1UNiVN2dJx+UvEZKjWRjzajQWYD2/wmKTdQ3aMeij0j62nbGLs0GLLXWHvyAxtaZmGOoGd+jD5loLWIfo/tUzogq4t2X3pimQZNhm3Ge+OD0gkkHIfGNdV0VNimyIdleh+jVxLz/QWWdygHL/lx6Yhv/nbYcZ07MbFBWNaGORYaIc5IrTGHFYaRLo82duP5bdBy6gnFc/Fiu3rqbjzE3B2liTH3SK4qvl9Fnyq8Y8u2ANbc0X1Ao3BhYSeN/jGko+JD+LO9aK6Z5poAMfNAqVZzcU/hpDIiPpK2oCafKWBAzLwLoOeCi9RBfL51CNLTeCu0XaN8c/bNlQ15e+KD1iaeb4TcxfC6rJNBZVUfe9/Jj+kdFlTnuiZVRSy6oXsdY3B7bnPemWKFQp2XKV/iE/URxxd2RBZPrWOlJ55Z6bKlT4aqJXGcV/dWT8UvjPnn5TPUvmN1k1ya9tipaEsc/yTbedhNdKnE1lo7+FaDfMmtxPsr81Axq6zjXEeS5G6MJcclZzIGOzqVYE6GVw4svGVC4wTfxNC8vPM5d1sceW26UgVfnIysvP32LVQXJ41OOUoA0Z9was0wVMysHuE1Lr4FGmHungcmdDIj+st9zG5bXtbhqS/WpF6O3HzRYJstd5zT1+mNi9cvoncBXud0xD1TJcw5dI+0XAaIuoIeyY3fM11xyloBy66+M9gpHPPtEeZ3qARvxeCQUiw982Lo+nOGbTaZ45ymRlecu3EFAwqzmYO64pKhPGbsv/3rtgqxDzf14M9hAsU7d32sIv6D/vP/ExdXD0F2WeeWUiyRs2ovnHhO7mjsK0yqxTqEzPL3xPmPMisk9DLa8a+DuOaqBvquTCM82zuGzaghUmX0ToV+eLSuMZJTm9IDlUfJXgjHCX+6BdXTM+fZOlV17HzFlWTkR6wbUMuEvvJGtR7z8Vhqul5uR52MLD5V61XQHWh/vGM4/7QbkZoTTdp1vxvhOP9LiAz7hsDPn/GZyJfQhPWSRUeE4hvfNjA43PBoFic6PBhfA1nez58DERQSX/ecERMRgm+a7b/gR2jCttcSjdCgr7wcctxffyDCtN5TOM6ufjWh/XpMNIK/BbKyvgbFXY6c2Ej8+PZFcz7fQ/Wt6JjIMJb+8RN+hBm3siPDfuCL+toEkmtjIm9sdDi+q/N+CTWpTGNk9/drHPdLur+sHgWSe2PKI4hBeMh3tn8T8i3I9LH9ErHhCPrC7xe95obqeywiQn9oj+XLd4THY8aVdK/U1/VLSNzPUWx4CL5+4fsg1+xbsHF1+/n4COSVpgFbe2H0vhfaY4uPvDyDgQWkkXtvtJliwrAOuonhVZkTYldiBO4YtIy0yOvR1x+hCkffENI9V7czgeRZCY9rA1L+j6+y8/gd8vwihlRixr12DZfyfn8NNXWzYxEezNuOL98QGhnXAx+FkO/qZ5yc97cfcZ/3L/Lp8FgUkmb4mNmg4nRT03/1keritzjrYix+BqufHdZuxuf5jCZlq8sN1mmXYiLkOsGwfCF1JczYNYsl1zeIH1PgN3Jt9e9H1E91uxS3jjKG9Pm/H5rrE4eQ9vdrUEiCdEF4SJBWB38P1r+uRFcEB0npn/Dpa4jiWYsK/8G3/UKur4k7Ekv03g91XSQ6T/Gpyxj8DOJp5Hr/NPLdpp9cX3349BXBRhvFKATL6vzX7yF8ZocpyHMV8o1v853sX1l2bFQo129Et4TonCOpA8Fcnwd+ITrY6OMr1RWt3v9G6oIe0UTfSfv5KLVpJtpwss9Qtd7/FoxIU00GITYqjLT177Cqe1p45a2Ko/GcgZsQJFvsu0a3Efn6HaHGL0bcRP3E96/a8r6QOh1naTLHOXXFjrimGbyN0OpGcr3ibgLJvZKfi0Eh7RSxERLUnJJzCtI5pzi3lznOKcu0xmWNFxhBbAlWjtSuJ+g4TBAeon124pIvpL6HJkShxBD7R33+1E7Uby+iwkNZ+ofP5BmXpUvPGX/+A78FmazzUl38wo9RGhiUtybRpL1iacQHMGInxv5keT6R5/DLd31dFEOOUeMLEPtM/zSIriJtKk3/+BU/dS6R/Pg+B4Xhb/jqrwbhOAv+O+g4zqY+eSEQ/G60jrMPpp2LzyIKGaF3MaZoXI5zLC4sas7WVjsVxLxTf8CySwz8eIzxNXQd538BobcwqAYz7txKjMfjX+1TFAgEf4Yvx1HLywVZKk3F27/RUP9bMeo4/4Mx6jgLBAlHOM6C/w7CcRb8H/l0eAAy0mmSdhh/Ko6hYF1CbmFITmlbWzQay6ZGRX9/j2ObF+L0/Rd48fACFnQuwdYCmnmhxQzjn9z6x/OvcJxj8e72SezceACPXrzAnSMr0SSHO1uykbQGtj1IYP0QCAR/lOCbc5HPyxbJSwzFrb/wHsBEj3CcBQKTCMdZ8N+BOM7dqrK1ms7Ja8imagsE/0CiP2BuO7YuUCNWvui28Nq/12mWII7zuOrsfMsOXPuPHXGOuLsKlehbRrXimr45dj8UVp1AIPg/8fEI6qZiy31SVejwL3Gcj6NhWvYCuRSlWgnHWfCXEI6z4L9DTBhePb6Ny5cv4/qtJwj6V3sXgv8Gkfj45Cap01fw4GWcH+/8dxAdjvdPrtDn+NGbL/Fao5toCQvEg+uXcfnaHbwXxpxAIPh/E/UDT29dp+3rrUcvYfJ1Ef8UyDk9u32DndPD5wj5XYuZBf9JhOMsEAgEAoFAIBAIBAKBCYTjLBAIBAKBQCAQCAQCgQmE4ywQCAQCgUAgEAgEAoEJhOMsEAgEAoFAIBAIBAKBCYTjLBAIBAKBQCAQCAQCgQmE4ywQCAQCgUAgEAgEAoEJhOMsEAgEAoFAIBAIBAKBCYTjLBAIBAKBQCAQCAQCgQmE4ywQCAQCgUAgEAgEAoEJhOP8L+HttS1YOGcO5szdgLOPv/PY+BCOh2fXYI60LZFlJx4gkqckasK/4vbZ/di4apHm2NUyvFMVuKpUUKmc0HrmWUTxTQSCxExM8GtcOrIbaxcvwFxFnZ6FPvWzk/pM6rR5Vgzc84ZvIRAI/h9Efr6D3aulZ3MuVh+4hzAeLxAIBIJ/N8Jx/pdwamJBOEqGtVl29NnwmMfGRSj2DC0Ga+pkMvHuuArBsTw5kRH74TwG18gLdwvt8RoXC2SvPwq3QxLpyQgEhKA769CsZGrYGqzDOmLujnLd1iAwhm8sEAj+L4RcW4CKqaXn0hyp6y3FRx4vEAgEgn83wnH+l5BgxznmMxa2yg4rHeM8cTrOMbizvAtS2bBjTJKtAobM2oK7b74iOFx4EYJ/IiHYNaoGnOhzZ4UMxRpi4uqTeP75K35G8ywCgSBRIhxngUAg+G8iHOd/CQlynEMeYHiN1LCU8ltZwD6JFzyoAZ84HefQO2tRnRopdmgy7yqPFQj+ubw6OBk5zEmdNg/A6MOveaxAIPgnIBxngUAg+G8iHOd/CfF1nGM+XULXwi7USZZGukqP24NbB6cjf5yOcyjun1qFQY1KIbWnPaytrWFr74Pc1Tph9tYz+BTHQuLorw+wb/U0tK+RD8mcHOj21g6eyFq0DkbM34ibb4J5Tl1+4ti0FrAjx2ZbcQwehZOo8A84s2kmWlfKCXdbUg4py8k3K2p1GoP1h+7gB9tQn7Db6F0rE82fPPMQPCBRUZ+eYtv0HiiZ1pMdk50X8tfogjlbT+O9tK84+PHiGravmI4ONYsiXVJH2EhlELF3dkXmQrUwcPoanH/4lec2Qux3XNk1D51rFURSB1u6vY2bH0o17ItlB8n5GBhUD7u/EWWSONK8BTtMxUtjo5TB9zCuZjp2btZ2yDpkL4uPfYThlQJ4fPwlXctJeBIhFfAF64ZUYvG2uTD/7Gda7G8n7DVmNnZi+0nXErueGF9N+PXsZJRKJR2nE3K12wRjK/2jPj3EnqVj0axUANyd2PW2dfVF0Vo9MHf7GbyN54LF4GdXsHnuCDQsmhUuvBw792TIV7kDZqw6hKfG5lTHfsPq3hnp81ag+yJyJclz+fUhdi8cgTqFUsFBOlciXukKouXgWdh95aXBdfoRH86iR253qKzYOdeZeAIGqyypX9sHVYYPKdPK2gK56s/CC0MFxgbi+qG1GNW1GrL5usOWHocTfDMURruhs3HgxjPEZzD86pzmSMfPIS7xzdQUJ3WqTszrI+hchKV7lByLuyE8QZfYj1jcuiBceVmFGpDngCdJRD7ZjhZ55PtzR8XO6/CNpxsk5h0WdSuq2KZca2Vd+nppKWr4sPTkXVYbfD5NEvMDq7sk5+UXwKT9L3iCPqFvb2LT3GGoUSgTPOzZPu3d/VG2WT8s238VX37X7IRIcu8Pb8SUQS1RNFMqTbtqbe0Ar2QBqN5lFNYcuoZAI/u7MLM0kkj5kxbBmDNSWx6EK7vno13ZbHDk5STLWREDZ6zDtZcG2vpnW1EzL9cL8RZnNBq1B/ql/cDd4+swrF0NZPZ11dTjlDnLo8+Ulbj4zGQN0BD16R62zuqPCgEpaBm2LulQvfs0nHkRiqh7y1GJO85pGq0mZxuKp8cXom25zHCS9mfjgTw1O2HxkfuIc7VQ9BfcOL4FMwa2RvGAlHDmOkASd7/sqNJmOFbtu4IvBl8+EoGz8zvDk+fvtekhj9fy5eoatC2Vjuom23xDceHZE8xr7qzZR/zEFtlKTufPVwi2dc4HFyk+RTGMPR1IYxPCt/NTUSa1VK4NMhWZjGc8Pt5EvMbcTpn5sdXCpodBPEGXKFyY3wppHNl5+OarikPvedIvEYzbRzZiTOe6yOrnzOsWqdvZyqHbpKU4/9jAtYh9jXk1UtH9u5XtgFNS9Qt+ip1zBqJMRm92DsQWylmuHWZtOoZXxkwhBSG4f3ILRnetjuyattqRPGOl0WvCSpwzdBwGuD6vJdLTbeMW30xNcEKnrQ66uRb1UrD0JG2XIjDBL8j5if+1dxbQVeRuG68rUEcqFGspUmiheHH3xd3dWVwWd3fdZXGnuLu7leKUQosXb6nL881Mcm/n3t47bVnYb/+77++c95x2ksnNZDKZPMmbzLZBuflvFMfEgMf8OEH8cyHh/AO5F/oJB66E4t3nv3+rkPQI5/jQg2iaz4SLZns0m39R6gi/ODAVxaRjuoXzmwsL4WvLwvWacT4MXHsX2n3IuOfHMcBf6NzrOkfLzD1r4vdbWg1+/EssFV6QYniDSSuwakBT7t6qZHZoPe5gauEUfQcDGuST4uQuMACzZv0C+1Tnys0CNQZtQDg/XU5syC40K2Sm4xzdlqlUT5x8nbqH/WTLYOQ11H2O2uwLYcaZMH4GI/r+ZlS0Yb/v13Umnuvq0MY+xtTqzrK0jJF/5D4WlvwQIyqxssiI5Wg5GY+5cN4wsjo7buSNxed1ldIPIDoMc1uYs99xb4fdTxSE8/npKO8s5tMc3p23pLr/nwL3oH1+R/W16DczFG69DMF6OjDvrq5HfRdrHeelthyluuNMmJac/XobY8qK4XkxZOZ6jO1RItV5qcyqIHpvvMcTkBERiLE18vB4Rqg8SEtIxIRhZYf8fEmGMWqNPJh6I6O4l9g8mLcfaZmVGzr/eVlhM6Q4HB/VGFl1navDHPO1wilt4Rx2FD1KsfDM/hNxV5dwTniD5UK5ydeGl2gqPAc8WCT+SQDaFk0Jl8y9Flbc0KfEgdDDM1DMRH5OJlTuoFmXPl35HfXsWXjWnmu/Sziv7ZmVp18c0w484wEpvL26GFXzWfI4SmaOKkPX4uV3C+ivODCiKsx1pq3DTBwxcP0t4S5rcmluBdiI4XmqoP+kMWjmYqr7fG4OxfvhVKjsuQjeiloFdcfVb4ZoNHp3Sn2PCcHaYRVgpTOuppm6V8Hqm3rarKQ3WPOrP/PI0mkWyOZRAHkchb8NzeCYvyR8cypcb+bCmHL6FU9czifsm9ogHe8zlTmi/R+BWu/YOJxf3ANZeJz+W8Th4BTurWmhmX7hYbgQ/BjzmxumHEun5Sk1A6ymfsOOHr7SYLZBtjKYeOY7hPPFmajoKqZriHylpuMpP55u4sKwsLsHz1sDbHmoSzjH4/LK7nCS7Yni6FsLh1/z4IyQ9BobR9dJVxtpmqcutsrzkxyGRfXYe9ixTkdMGdYNuRXf+ebw6b0OL3SNgsa/QsCoSrDTeZ6mmbtUwKqLShtJxuHEb02QTce5uswxX0uc1Hpkvt5ej8bZWLhNp5XfJZy39Hfhv1EE47anHvghiH8aJJx/AJ8j49B/6Xm4tl4Puyar4d19G5bvv4ek5L/P5zkt4RwX+Cf8nbnQM8uBbkuvqmexQvbpF85fbyxBIb622NimFKbvC+YhjORPl9G7hCsMxfPdK2ChrFP65vxSlLFi5xqYuaLVwlP4qj3TlRSDO9vGo4wd73iYuqDzKpkA/3wX4+tqvuQtvOtjzY0PqUR6/OfbmNzEl+VFMI8m43E/hgeKSMLZU5aWMaoMWImnMZr3KS78KkbVZmJdtELtZiBY9kKIfyJ08qTZBgMYGrmh3fwL0EqCER+OgKEVYCG65BrYo8PUk7IOZzKe7RgMT162pnmqYcV1ce4xhdhH29CqOOs8W2ZrhiNvUq44TeGc8BATKrkK4UYwscyETKbsetXCWQ+v9/eBg4UYNwc6z7jGj+ri/f+UcA49OlE9QGHhVA6zDgYhVvueJcfhTsA0lLVhZW6dpw1OhctrWTLubu0HRzEvghnZFcaE3YGpZ3nj3uPQgp5wtjRi+bbxwoyLKbNcsW8OoW0mzY527gr9cPqFvLIyoh/vQ7eKDrxOm6NS3834kirfoVjcphhPywKlu68V7o5A/F2MruzAjpvnQL/Vt1LPGH+9hUHFMvNzLVGg/VzcfJfqIcWHoH3oU8IexlI8A+TrsAYfdNV5QVLv71dHErTZKs7HW35UkwfoXYeJ/e8SzknvsLone86tra1hYsbKUqdwLiKmY4xs5TqjY9UsUrxS/Zbjja68f3uM6XXFe2+CXLnckcVGTNfqbxbOybj/Z1e4mIlhhrDwaIDlJ1+k9jhIiMKVDf2QNwvLh03F4bj6PqMZicHuPqp6YwLnmgNw+pWunm8SXl74AzWceDtcehAuvtUsQEk4ywRKFp9u2BukNbOb8BFHFzSHPW/zDOzqYucj5em1Y0P8mfBzLImJF6L40dQkfbiBkf58MMvQBlUGb0JIZGq3ipjQUxjawB2mYltgkhWd1z4QSlxGwgss7cV3sDcwE9rWPyHX9xCeoKBtY+Gleq9JZoTs5bvhzGvN3/t0Yw0a5bdiz651PgzeJxMxQh3YN76aOo3spQfirPYAm0QyPlxZgVoerE3KWqgJTmjoVP3COeHeSpR0FO6ZSXb02K458KqLp5tGIb+UjimarQniR3UR+T8gnJNwe1UXqVyMrCxhZc7K77uEc/RjzGiVl/+WIQo2nIjrr7Xa6uRo4T70Rm7p3Sm8Y9wqYMMTXh9kwpmZKfw6LcO9z5rPa8L7W5jTJj8rV8GcakxHsLxKRN3H2PJ2LA2TTKg48A/c+5K6jseGncfEJrl4OpbouDZQs46ricaBAfWkttqp/Hzonoh/iL512bWTcCYIBgnnv0BUbAKmbrkF+6arUXX4Plx7xFqVNUcfolC3bSjSYxv2XtbvhvcjURLO4afmCS9Q3lHP5I7h2zXXVCoJ5+iv7xF86wy2rdmCM4G6xFEoptbMyzrUbv6Yf5X1cpO/BmF8NT67bVEWK6+l8XL9fASNc9tK8U2LCC/Cx/yFIAjncXVY3kSzLTES93X1L9Qk4sSEijy+IBaWpwwQaAhnCye0X3mfB+giCjsHefN08mHU5nuaQj3mPW6fOYydF54puq8mBgegYmZWDuV6L8IrddkmIebzawRdOYYtm9fj4gsdgvDzBfStzGZIrewbCS/8lBwoCueoe/itVk4pLHer6Th/aBGqWYvXkbZwfry9O+yll392tJt4RqeLMEMunItg6aU03NG/F7lwztUB+57pfzNHXJqJCjqEc7JQjj1zMXFo6dcFx9LoOCU9WIUqecTnxQy+HbepZ7TiXxxAMztW5kaFOuDQM+Vpvtgrc1Dchd373GV74ia/xbFvDqKNdYpw9uixDspPx3ssauTBnrEspTHxiK4uThQODq8GIylNK/hWrINyHk5Sp90ka1HMOaFrFWY8jvxWEpbSgIIDWk8/oXC/Rd5gYYdSbPbaygmdt+vq7r7EglalpOty77Ret1t05HV0q5FLipNx4fwR6zoyYZO1/GCcO7Md/vlZp1i/cBby0mguju+ZCR/hbwOLClh2PnV5BK5py8o4fxssWPobyuYTz7VUFs69N2T8U0QKwjnhySbUKcLqmEux/ghKQwt/uLQMJSUhaogGMw5nPC9CO/T+0WUcOLofjxU9mL9iw7CiLM9GdbFBSxTLhXPBtrOh9GiE7J6IItJAngFydtVTRyRisLc/f685FMfoY/pWEifgyLTyLG8GLhi2VYdnhgbvsbiZr3SvrQrUws7QlEIOOz4HRaR0DFBo4AboHouIw7EZHfknDw1gnbM8AvS85hODN6BSHiboPaoOQKCW3voUchX7tpxB8EftOXw5MdjWmn/9ImcxLLguv8t6hLPwrhtajb0DCnRcr1F/9XHnzyHwkNIxRaPll/lRXciFc1lMPp+e1DX5ucI5GXdWtIW1GJa9AlYfO4dxdQtJce0zLJyTELRluHqwtMzoPdDvr5KEc5MawytPfjToNAYbzvHBCg3h7ISOi5Teq1HYMbwBq/NmWdBs7V1+PBlnplWClTgIb+iG3stv8+P6+IBlXZnXhEXWStips36+wqI2ZaR8uQl1ROcbPPIGetTMLcVJUzh3WZV6UDdNSDgT/3uQcP4OYuMTsfrIQ3gJnfMiPbZjz8XUrdKXqHhM33oLOdtuQMUhe3Dpvu65lx+FPuH8ZM9v8OKdFIMs3ph/IXU3RUk4pyL8LHqWKwJ3d3fkdMnKO91CB7dAFSw8k+KO9jloParysLzd5uG5Ur+Ac2Jycf5pLG8M38Q7AF8fYNIvXDgJ1mOj6kWin2+Pd6A+d7fM12UuQlRCW+aq7ZSnF67qn8CQeHVqPgrx3y0/cqOeGTaRWHwOf43nIcG4e+M0diyZjLY1S8E1K5vhUlnpnvPxQqEj/E0osw4V3KWydcvuwMvCBE6F22L7Xc37plc4R97H2Hq5JMHkVGeG8GoUpMbJmfC3FNP6ScJZEJj22d2kfMstT8GSqNNuMH7fex7PPyqOduhHLpxNxPWWOVP9jsrcstvBQuq8awrnL2enI4cNm/21yGQH11y6z1dbLlfYWbKyzerTCCe5qn1xYBiySGVjhiajdmq6ROvkDZbW9GYzTrn8seAaq3Dx746hk2ogy6AUFul049Tk/YkJQp7E+KZoPCJAkDG6SMClpZ1gJ81WMrMt0BR7n+qpdEn3McqPzfya+NTF1pC0ez3vjo2Ar4OYthVKddySej+BzxfQpQob7Kmz+AI/qMV3C+dwrGrLxJtdsXaQ+uvPNqJoTlY/lIRz1jrL8C4yBHM75Zf+d+22CuFycffpNNq6Wwhhdmg16zY+3l+IItnFc/UIZ6kMDGCc2RE5U9WfvChRpT5+nbkB5+6ECV1DLRSE86ONg+Et1WFDmNlk1UxXh+Vyc4Ytn/00qzIBd/Vu8JA+4iI+4tWL53j68A7O7NuM8f2bwC9/DmTScF+vhXV3NLvZalftTH4YdSANZfLhPHrXZMt3bJ074oxe5ZxO4Rz3EFNUy4GENsLRWX8bwSwXXJys2CCJeX70WK/qrMfgyMw6/BrdMGqL1mCpjIhri1HTTYxnhNwNVuqZrRN5jeW1vFgbkK8aVmorZxnx3z7hTSgr+3OHN2Ban1Yo5eWKLJLHEjc3X8y+Im955MLZEJ2XncG9c1vQsaQNrKwcUKLXKoSl490r8l3C2dgctjrafs/CPqjfabjQ9l9E2IfU1/zzhHMyri1tw5aK2Ar9navixd/HIH/23s+wcE7+jC0juVeGoT+WnMvodLWATDgbluqAA2lM/n+5OAP+LuJ1mcK7ySo2qJr8BJNLe7B6ZGoBe2fN8k5tueDqlJkNclpkQ/N1OgaTPl9C12pOUr5qL9LXVqdfOBtlcoCbdj5y5YFfpbroP20tztwO1TGwR8KZ+N+DhHMGiE9IwrYzwSjWewcKdtuKDSdSu0RrExkdjxGrLsOx6Ro0GHcIt59m3K0pPWgI521sq417q9qrd8s2yFkL2+/p7upnSDi/OoCaNjxNuVk4ovmMfepRy3dnF6IQf+HXHLkhjRk1xu11bWEpneOOvou5m3DiK6zs78N/Jz9mn0hbZEQ9343mvKOXq+NsBKve2zLhnM1jJALT0Alf7m9Cfel3DeDZexleyiY748LOY2qnsqzMtcy5gD+adOqNact24cbZ1ahoyzr2aQnniCvz4M875Bpm4Ykef9yWuXmnFs7Suzj2MabVZi/onA2n4SEXHK+PTPvJwjl9Zlm4DXaH6u846kQunNNtTDirulJPA3rBScO1Mv1mmLMEdnMHjaAN7ZBFEqU50X32FT3ub3KEjv+Akmzmw7EEfjvOO/4RQZhQURRpwvEcLbDtftoS/MuZmbCXrsEQDYfp3/js7aXFKCsJPmaZctTEqod6Roi+XkLnoqzT4lK+JXSMqaUiLmgFynmwfPjWXJpKMHw6Pw9VpNnYHJhxUo/QyahwFsdckt9jRVc2sGbm0wmXVHl9uCFdwtmx+hyIjrKfTk5HqUziMXdMP60azIzBgf5lpbTtirSG6BEcf2UaCqZDOKfPMqP19FNQ3wW9wjkJF2d2hVuq89NpHv1x+VPatVKTSFz6YzjKuar2vkgxwyy5UK5+S/QZNRd7z13BisGqdlhBODuWwnjtG6qNIHRHt2DePJmz18KeZ/oaxXQK56iL6J1NteFlRs0BLRbc5AlFYue40vx4Wcw/qf9dk/5dtSOwvXsRthY/hz+mnpUvx/mCq9tHo1xuK/6bMsvsjDI1W6LXsJnYdfMaVrWoxISqHuEslb2QlxINO6J9vTKSkLYtXB0T9j1RaMM1+S7hnE6zF9r+o09T8v3DhfMjUZIl4cqKrsgh9iHMfLHwBq+jsYHfL5xj32JpB163bBth4x3dQ5aKyISzdaWuOJnGHErS402oUZiVW/4ys1ibFnkFXX3EpVfseMbMBOXmXZXSlvPpwgJUldoxpbY6/cI5fWaFpuOPyAadSTgT/3uQcM4gcQmJ2HD8MXwE8ezdczu2n9Xf5H+OjMWEDdeRvdU61Bp1QO3K/TNQC2ej4hh34CHOL/yFv0yFznOJtjiqcxtdRlrCOTEmGlHf9Jwf9Qrr+xbnM882aDL2kCTw4sP2oKUk1gTBVG8cgtJ830RgQ/t8bBbAsgwmHlJ1WuJwblE39bXUX3RB7yyAirD9o5CFz3ZXH7FR2rVYQhLO7GVrm6sZTqbRv3u8cxjfWMUQrWYf4R3fZDzaOhKe0qyQCQo0nY5Lz95BnwNx5M3f4W3NZjt1CeeEmAh8i9ddtvFfbmNCcz9WJsY2aLkmZdRYLpxL9liIV7HvMbcGezl7NBiHe7Kh3Z8unI18sPqOnpiJX/Fg/zj4cZdl64L1sCssA517uXDO3RUnlO7ZnYWoInXGNGecoy8vgKs02GOKukN28qMZ58vZWcjG63T5PssUZpk48XcwsCTrdBgVrIKNj/h1J3/F5hGqtaV5MGFv2gNwF2ZXhJVUp93Qde5lnc/A/U3d4STFMUTR6nVRzou5ahrb+mHySV29xReYX9GTzWK4V1LPiCtx74+uyCcNbtnCf9QRrWUKn7F5ZC3JXdzQZziuaa3hU5MB4ZylktBxjHyLDf1LSm6HpsX64PJ7Wf1Jt3CejadSZt9iQUs/6ZpdasyT1mAnBC5FWRfhGTWyR6/tTMR+vjBVWThzV+3sAwP40dR8fX0L05r4wEK8J4YO+GUsf54UZpxDdgxnm5MZWqHS/EB+9Cfx9Qb6Vsgu5cPUrTQm7L6D95F67ln8KyzrzuqTonA2KYhfNynX5+Rnu9GumJiOARy8x+KuXrfudArnhKeYXYPNOBv7dsMpzaxlgCQEbhjAPX2s0OuPK3rbv/dn5qCSuDmYEDdnhbka9U6DuEAMLOImxTP1qYMAfquTv9zF5OpsvaqRnT8mb7mMt9/0FUQ4ljYuxZZhKM44G6DfFiY8koTnopYne+84lxuGW/r9i9V8l3DOUR6zb+mpM4kRuL1jGsrb8bXxzp1wlO/j8OVHCmejxjgQ+glBW/vCVnzWLPyx9IqsrvwV4Sxc697JqgHiXJi4R3nX55j7W9Dr135YsOkkHr+KYO20TDgbFWyBrQ/lQ+CpCds1DD7Se8YafsMO8DoYitnlmbeMadGG2P+X51++YuvoOrytHqbQVqdfONv23Ki3bxb5NghzWpWAtdQW2qDO8GN8IoCEM/G/Bwnn70Rc3zwnIBCOzdag7MBduHAvpRudmJSElQfvw6PTZhTpuQ3Hbv7877SqhXMmJzhnd1K7bmWt2Bc39U1PcfQK58hL6OrFOniW7tWw6YHuBj/xyTaUsWUizrfjZL7z5idsGuonHRN3pv1l6inFke8nG/oguzQTZIB8NQfhjkz4xYfuR7vibFTe3LYiVtxW6OC/3YfmufkmMS618PsNWSdDvsbZKBPKDd6eMgukzYdjaO2hmhWsh7W3uA9k5F2MbsoaenObVjipuZ+XJonPMLmuK193qimc45/sRIsC7LhZoS44r2e27+OJsSgpiT4rlOi1U51fuXAu27oD2lYoLv2OS/UReKQ1qfvzhXNam4PFYlfnkmzWxdEPo45lYNnCj9gcTLgPc7hLmkGmQvhtv1I37RM29i3LZomF56eQ3B05NhjTq/GNtEy9MGiH5g62msTgwLhacJCErAVKtFunIb4+XPodVfjGTmY+XXD6nf7BhIjzc+HjyNbx2pVsjWOpBg/icHpGY9hISzLMUaT9PEh9wy8X0dknE8+vJ4YEpHY9fb6rD2z5Ug7P2uN072DNiX0UgPp8PbGZXTGsuq/ZHny8+icqSNeUGb3/lO0toE0GhLNDue4Y1IqtabYp0ROn32qJiwwIZ9UGfxGXpqGwONNi5YXx+y9hRbeSLI4gpFUt9efzU9IlnNPcHOzeCnhlN5bilmrOZr3FQUK9m4N9uYQeFdjMkoVjUcw5r+B7nfwGi1ulbHZYf9qhDK1xvvdnd3hK59qj5jzVrKtungb8KpsJ1yOc+RrnrKV74Fy4vvr8ERv7lWKDNYJAa7bymoLnRnrXOCcjcGMf9e7Rvl1X4Z3CPXl/dBoKcY8BizzVsUv2eo59dgidJI8KQYQX7YmLOq/jIzYMraDeddvE3gOTz8rFbArXl7Tlg20WKNs5ZT33s90j+E7m5mg355jegVeRkJ3D4GnHfist4SzfHCzyzhL4Z2XPhkuFX3E9jXGx71vjnNbmYJ+xYZQ/y7tBQcw/w/pJX3+gcDY1q4NfhzSErTjgZFcKC7S/b/eXhDMQfnEFKnGPJfOyQt9E960WeIel7f3Yru6G9qg75Xwq4Sxeb8m+G/Qu+0oOP4+eZbJJcY2tCmOJqt8h8GR7V9hLHk8mKNp6EUIVOlTvzy9ESS5ojW0qYYfWYPWna6uF/oMYngm9VukfIMrQGue0Ngd7vBo+fPf5Yg2n8n4iCWfifw8Szn8RUUAPWXkJ2VusQ5NJRzFu3TWUHrBLcuUW10H/XUjCWeqkp5hr49kI0zuan4LSjHPY/sHIrlozae2I8t3n4dzjj4iJiUHU51Dsn9cbvvaq9ZrO6Lb4mnoWKjkyCJPqsxeWaGY5fNF14nrcfRshnR/z5RVOrZ+Emp6qXYOFxjd/YwToeCNEX1+Fyu4qd0JjuJVui3kB1/AxWkhHSCv87n6Mb12cz8oJZuOFUbueaXbK5MKZm1W2khi+bD9CPvN0HhzF1K5VYKtaV2ZXGBP3PZel8xlbhtVls8CCWeaugDFrTuPlpyjp/G9f3yHw2J8Y0qwUm4ExMoW5ka4Z53hcWNgJzjwdQ0tXNBm+DLfefmPpvL2D9ZPawI0PSBhYZMfQIylvfLlwVplT5bHQNbbx84VzYcw7Ecbuqdqi8Cn8Ba7uWYRulfLAjIuz3JWGIkj3+ItufoRwFoh7cQpdirL7IHZesheuirFrTyIsnJV35Ien2L+4H3yyM2EommOFUZq7sguIn1frWDRlYy9Hr0oYtvwIwj5GS+lEhD/Crrm94JNDtVO18ExVHIGgVNlOwuPdY1BY7UKeGUV/6Yt150LwTSq/bwg+vRE9BRHFZsCETluOCvjzjtZa8eR3WPtrRTYoIXSofPqs11x3/DkIo6qo3Fht0Wqltot5DM7MbJTyOSKrHCjfdgIO3QlDlJiPqAg8ubAFfeoUUHfODQxdMXgP310/OQlxcTH4/GgfWuRi5evdYTYeRsTyeqDD3l9A52ruUlyHvM1x5EUMYuMT1PmSC2eVOfi0xdFXOtTQdwhnodXGtm5FhHI1gqmxJcyl+l4YC2UbhqVXODt1+wPhUVrXF/ERLx5dwLJRbeBpwwffrD3RfzvPncKMs0jMg02o5aaqhyZwLt4K87adx8uvrI5Fvn2EzVM7oUBmlgfRCrWbhycZ3EYg+tYilM7Jzjcyz4KK3Wbi5MN37L7HRCL86TX8OaEXSrvzwRJz/hwqCWdV+2uRDZW7z8eFx++kPH8LD8Ye4V3h46xKwwCVhgfgo9KgQ7qFs0DiR+waXSPlE1I2edF44EKcf/yGPU/RX/BAfJ4quaXU9cyemJTKRTUJT/dPQlFpM0XBrN3RbNgfCOLt8vNru9C7oru6/VeZoZkTmo1fgwefWB14enYTupbOzj8DJ7QBpYaoNwcUiXiwFXVU71VjB5RqOx2n7r9CpFT23/Au5AY2zuyDEu58w0wzEzYA6+qLWekUziJfLs9BYWtxxtcILqInksI4zHcJ56ylMPbYS+ma1Rb9DZ/Dn+PivmXo4O+h/jxYllpTcT+CPeU/1lWbm5M3putySfqLwlncO+LKyl4pA0cm2VCn9yycfcr6QTFfw3Bi7Xj4u9qp+zF5G83FC9XLU0M4MzPNXhS95u5GMH//vHtyAQt7VEUOVb0zyImhux9rtdXfcGyiag2+UOds3FCj93ycfvCC1XGhrQ4W2upe1T34+0AwwzwYd0y1SZmqrd6Plrl5W91+Jh4ottUX0bU6G+R0yNsMh8M022oN4dx+CV5GaJ0f8QkvHl/CyrEdUcCWt2kWudBjo8orhYQz8b8HCecfxJOXX9Buxgl4ddmCaVtuSp+o+jvRFM5m8B2wAR/TIZpF0nLV/nRnJ1oWZC59+sw0uyAgt+vepfrpwbmoV4h/RkGPGWUrgK4rzmh2+rURXpbretdQ73Cp20xRrOE43NQ1CC5z1c6WvwU279+MNnn57HQqc0LVTnNwT6eLeTh2TWydsn5ch5lmK4LRmy4iKukTlrdgnwQyLT8AZ7U+4/Ly9DzU8tKxxk1mtnmrYMV5Ta8FbeHsVH0C7umZLfxnrHF2QLVeaxCmNCKtix8knBlROL1yBHyypl7PKTezrIUweutl4ZWuj2icXTUSJfhMoj6zze2PWfuDtDo/Wry/gtHNiqXqiGuaEyoO2IRUX6uJDcX8FqqBIHNUGKv1DWcVEfcxvqErFxUWqPzb/lTXFht8DGN+8VJ39HWakR3K9FmC23LviI9n0KQk/+TVX7DCbSbiKa9s2sI5i3drnNDnpPBdwlm43gfrUDJTyvNTZsQmDRGXpnDOwBpnG+9aWH5ZdgFpCGeJpA84Mq8l8nGBrs8s3KtjitDB/l4+3lyF+kW4V4JOy4xiTWch8FM8nu+bxD9XlAW/btNs61NctYthyLJdmD+gnFpEaFuOUp2x9mJ6li1lQDhzIu5sQw+ho6/vt5nZoHjHpbibuoFQE//8EHpW1/POc6qHIeOGoW4h8X8LeDYcg1m/ltP9/WjjbKg37XDKciEZH27tQBsPpfeiGYq1Go2zghaMPDUE7qJHlqEb2iyRfypKWTiLhB6ehDz8E2B5Wy3W+rxWCj9tjbPQblQdsRohsqb7hwvnTIUw9byeme+/LJwZsWHHMayRt2JbbeVaEpOFNl+j6yUXzj7tsXLnWvSpoLlxaIplhm/nWbii12NDKP17+zCoap403hmWKNJlLq7LxxE+nv0hbXXB1uMRzNvqjK5xzuxVBQvPy/cOIOFM/O9BwvlfwvuHJ7Frx3Zs374d+689VPhkQmq+vX6A48J54rn7boYqiKUEPA+6iIN7WNztO3fh5KX76RboEF4nL+9fwuFdO/n5+3Hm+iNlsayHpE+huHryEEtHsN2HzuDB6zR80eRrnHOKn3fixyOe4cLhXVI6AQdO4cEb/eJMm6g3j3HuyD4ESNezFyeuPkrl/v31RRB2iuFb9+D2M307MEXi8c0z2LczQF02Z2881nsfEyPCcHo3j7v/Ol4r3PCYtw9xaqdYTjtwOEi51xD54gb2SHH34er99wqiLxahQWfZ7+uxHQE7ceT0VYR8SHcFSU1iFB5f5vXl4FW8itSfVtwH4Tr3i7+9E0evhym6P4oiOuTmOexVleGufTh1/aHyxng6iUTwtTPYs2uHlE7A3sO4dPdlGr+tm8jXj3DmyG7s4OV34MQVPP+ib0ouCS8DD2HjNhZ3742nCkJfICEcl06yOr51+16cf6JfNXx7cx9nD+3l+diFQ6eu4oW+fHw6h1blRIFhBM+2E6X002+b8VubwtLz6NthKkJ4w5Mc9RY3TvA4uw7hWYRC/YkIxbEDrH6cuKT57CVFvsTVYyydvWcf4ZvGJSQg7OY+no9zePpBc6Az/sMDHNknhu3EmWuadSnuYwjO7+X502M79x3FtXt66mCy0I6qf/s4Hr5Jo91K+oIHV04LbQNLO2DXAZwPDPmOT08pkPwFD6+fxt6drB7vOXIGj95p5T42HLfOsjzsOHVfw0VdLZwNCqDf2gf8aDQeXTqmbhvPB71Q/HRfahLx+pbwXhPP33scd99lbEr964v7OH1oD6/HAThw/AKeaN3nNEn+ivsXjkrt947dRxD4gt2ruNuyzcGa8Z2PhWcy5OZJ1tYLcW/qbeu1icKjG6exf5eYzx3Yc+g0Hr3VurtCHQg8sl8I34YDZ67J3rlJ+BB8A7ula9yOW2G63qbCe/fhBSl8+9ZNuPhU9/qiL88CcVhKJ0BvHEYCXt44zq5TnwXsxmGh3Qj9pLsljP/wCKcPiHF34NCJjPVXJJKi8OTGYfXvXX6hMAoilt0p1lfYc/wc3io2lOnj68t7OLGftafbA/bi1NUH+vsxcuFcoCk23ON1MOY1Lh3bLaWxc99xoW7p9QHXy7c392RtdQD2H7mAR+/1XOCn8+q22uN72uq2rK32aT9ZPcgZ/yUUF6V2Ur8F7D2CK3efCz0GXSQi7JZYr8W4x3DvO8qAIP5uSDgT/x20hLPM85kgiO9BFM5lxdlTY5SZcZYfTC+xODy9MuuMyYQz8b+HhnBepxLO/17Sv6s28Z8nlXD+Acr9exCFM2+rS804ww+mlzgcnlFFuoai7VKEM0H8FyHhTPx3IOFMED+WT2fRrCRzNy0xNaOdsVgcnFJeOrdQ20nUGfsfhoQzQejhHyOcz6nb6uJTT/OD6SUOB6dWkM4t2GqC2lWbIP6LkHAm/juQcCaIH0tSPL58DMfbt2/x8VtG93VIRty3T9K5H75+y6AbL/FPgoQzQejhnyKcf1Rb/YXaauK/DQln4r9Dwjsc3bYUkydPxuxF2/GUltMQBEH8ZV5eWYfZQrs6efJyHLnzlz8y+48n/s1NbFkiXu8ULNl5O+NrdIn/EF9xbesCqd8xeXkAgt7TdC1B/C9DwpkgCIIgCIIgCIIgFCDhTBAEQRAEQRAEQRAKkHAmCIIgCIIgCIIgCAVIOBMEQRAEQRAEQRCEAiScCYIgCIIgCIIgCEIBEs4EQRAEQRAEQRAEoQAJZ4IgCIIgCIIgCIJQgIQzQRAEQRAEQRAEQShAwpkgCIIgCIIgCIIgFCDh/K8gGBO9s8HAwEDZTCzhWLAKZp8KQxI/U03SAwz1d2fxchTB1qf8eAYIWjMIbvy3HHpvQQI/LhH/HotbyPKSThu27zVPQJNPQVvQs3ZBOGSxSHWOkWUWuBWvg5mHghHH4+viyY7fkE/r3LTM3qszrn3jCYjEBmNqS0ceXgtbgyN5QGqirs1GIQeWjlfVpXjLj2uQ8BlnVw9FuTwOsDTW/G0DA1PYZSuCrlO34008j69FYsg+tPTk8YuPQVAUD9DBnZW1kUVK1wYNpl3iRxn3Nw6DO//d8jOOI5Ef1+behj7IyeMZGGRF60W3eIiKBISemIWa3tlhbaqKp2xF6vyOD/xsgiAIgiAIgvgnQML5X0EIZpTxgKEoPLLmQ+M+v2HMmDFqGzVqCHq0qg5nM5U4yYR6I3fgazI/XSTpEcbULCyFZ/Isi53P+PEMcH/TKBTk4if34AAt4fwBKzvZsN+39sIv3Ydp5DHFhqNlxUIwFuOZWmPsoTc8AUbcm3PoVsaeX4dgJs6o0rIHRowWz/0N/TrVRx4rHiaaSyksuqSZhoqneybDl8ez9vsFw3/Tzgu3QW3h6WwlxctVog9uysVobAjmdM7D89IEO0PkqlqT6JuLUCq3+HsmKNHgD7zjxxlxuLGuL1wteb4Fsy9QDT2GjGR5EO5hm5o+yMzDDAxyoMvKwFSCNvH5IXQuzuLYVJyC+9E8QAf31jSFq1Qn3NBy7lV+lPFw21gU5r9Va/5pHcI5EUGbB8PdXJUfwQzzoeuKOzxcIPYFFnXxSgnP4oH6nfoJ9VGrfAUb3rkasmcR45mjbLO1+MiTIAiCIAiCIIh/AiSc/xUw4SyKE8MidbDliVwRy4i7g2HFrZmIKdkdx8Jk885/p3DO1hjrb3/lAdp8w4GJrWAuxtMWzp8uorNXFpaGaR50XXgp9cw55+2ZeajhbMLiWhfCwmufeUgKcuGcrfd6ROopNrw7gQYl2KzyzxHOibizaSAceV5cGoyH3uJBDA6NrgEHIzGuA1ouDuTHGX+XcH64bRCyiXmwqoC6NQvAKZMYV1M4h19egco8jWwtF+qeYedEXpkNXzcxrikJZ4IgCIIgCOIfBwnnfwWawnlrMD+szcsA1M1qJsXLXGcwNLSkTDhnLlARx/UKN/38bOF8dUFdOJqI6Tui6bgTim7YIi/3j4dfZjG+CTwbrtSa4f0Zwrk1jn/hx3URshrl8rH8yIVz0pfrGFHMlKXh2x9X9WtvTjR+r19Aim9bujlOhPPDAnLhbFttPnTPtTNeB7RBzu8Qzk+39oWjKJptCmPWqU94sLkRshqKcTWFc1zIAXTkbuNmJfvihkKd+nZ1DglngiAIgiAI4h8LCed/BTJXbWt7FChRARUqpFj58v4o5pUdRmK4oQmylmqFXdpTkTLhrGQmmbPCy7cCesw+jI9a070/Vzh/wJpmpWEmHncrjllXIvhxBT6cQUt/J+k3nQt3w2Wt5cc/XDin28w1hPPXO+vgb26sI146zK0iZl1KUeuScPbTEU/R0i+cH23sBRdx7XXmvBh/mCn2G0trwVGHcBYqFZ7snQQfmfu5bc788CtVDv7lNetoOd88yCS5fVuQcCYIgiAIgiD+cZBw/lcgE85pmiFMXEvg1+23NYWiTDibZHJAmdpN0bSpzJo0xi91a6Kkl0NKWpkLY+K+p2p36Z8rnD9jY5sysBCPuxTDdJlY1Mv7U2hRjuXX1bsPrmltlPXDhbOhi1Buv2iWm8waVfWBvbX4e2aawjlQEM4WTDg7eRRDPR3n6rXuY7H7UcoUtVw4mzoVRo1GOs7hVsPPFZaSy3dawvmcdOzBlkHII27wZZgPE0+lzGXfWKZPOKuIwrVts9GrRV0UcbaU0tRvliScCYIgCIIgiH8cJJz/FchctYv9goN6VEds+D0s7lcZJpJAMUPTOcegnnfOyBrn8ONo78HXD/t0x7EXTHE++Mmu2jcWN4CTtDOzPX4ZdQix/Lg+QgJGoIiFGN8UXi1Wp9qpWRTOPjy/JcbvQww/noqfvMY56fNlDC7IXLVN/Xrh1Gt9K7c5X29jwdipWBRwFq++xEKu93/8GmdjNF15BncCfoObWPZGRTH9VBiPxUhbOAOhx8agmD3Ll4GVN/r+cRkaDgCPl6OEuxhOrtoEQRAEQRDEPw8Szv8K0rk5mMDXGytRQhJEBig0aA3eqzRaRoTzx9PoXICvyfXqhIMhTCL/bOGMb7cxoKgtS8PQFc0nHdMrdp/tH4ey/NNPBlmKY/Xd1AoydP90FBfDBas686j+NdM/fXOwBNxc14d/GsoADlV+xbmUQE0+X8EA/7zs94R0ynTbii+y2/3DhbOREfJ4e8NeFMbWBTF+TwiPkYKycI7HuUWtkF0KN4CldzPsDU1dP2lzMIIgCIIgCOKfDAnnfwUyV217N1Ru1hldunSRWSd0aNcC1UrkgakkuETLi4l7glN2pZYJZ1ObrKjaXH6+YJ06oW2LX1C+sOx70Ubu+HXdLUEaMX76rtoCiV+CMLKWa0oeBPHoVb4e2nUW89kZrRpWhptsTa2RRw2sCUyRYZ8CN2Nsf/F6WsK/cHZ1vGZLL2rmV85PF84icbi2tgdyyb51bO5SDA1btWPl36EVKvs4q8PEmeBKgzbjs5YG/ZHC2Vv9W4LZemD0zhc8VBP9wjkC+ybXhy1Pw6ZYT1zWUzwknAmCIAiCIIh/MiSc/xUEY3xBtglWWmadNSfKthmN06+0HJ2T7mNwGbkg1WfmcHTNhzo95iDwg6bUDFo9EM48nl2vzVrC+T0WNeNpmFXHHzf0rVGOxO6R9dW/N2TvK35ck/gXpzG2YxXkcbZLtbbb3MEFXpXbYMnpsFSfqwrb2RVu8viWjqg6Yh3CYvTP0uPNYVT2ZGuQbT07au56HROMKc1V35WugS3BWjuQyYi6Ogtedux3PSsv0b3jddIXnPt9MCoUyg0H+feoJTOFY04P1Bk4D9c+6M5vYsheNJd27hbM9zcEaa3rlnNnRU1YS+lmQr2pF/lRxr0NQ2Tl5IIRB1/ykNRcmVeWfXfbwBGtFt6SjiXHvsTyDimbptnVmIj7+scUEHFhEvJIn7QyQKFaK1O51RMEQRAEQRDE/ycknAmCIAiCIAiCIAhCARLOBEEQBEEQBEEQBKEACWeCIAiCIAiCIAiCUICEM0EQBEEQBEEQBEEoQMKZIAiCIAiCIAiCIBQg4UwQBEEQBEEQBEEQCpBwJgiCIAiCIAiCIAgFSDgTBEEQBEEQBEEQhAIknAmCIAiCIAiCIAhCARLOBEEQBEEQBEEQBKEACWeCIAiCIAiCIAiCUICEM0EQBEEQBEEQBEEoQMKZIAiCIAiCIAiCIBQg4UwQBEEQBEEQBEEQCpBw/pdwe303VClTBmXKtMWiYy/40XSQ8A5bx/8inCeeWwZ1Zh5CdDIP+4eSHPcVT68dw5IJfdCifmV13pmVRpF8WWFgYCCYHXquuIkkfh5BEARBEARBEMT3QML5X8LZGWWQSRSLhkUwZMsTfjQN4p5h2i+uXGQyy9ZrHSL/ocL59fGF8M9mrpFffZbJpTB6zt2D9/xcgiAIgiAIgiCI74WE87+EDAvnT9fQyz9bKsH5zxTOUTg0tiGspOvLgsr9FuHi3RdI4KEEQRAEQRAEQRA/ExLO/xIyIpzjQw6hVdEsklA2ypQZniVLIe8/WDi/P78YVezE/Llj4tEMuKETBEEQBEEQBEH8AEg4/0tIr3D+GrgJNbIzkWxgkA399zzE8xNz4ZeWcP5wC8tHNELJ3Pb8XGYWOQqjRttROB4SySPq5unJpejaqCoKOFtpnG+cxQ1lazXHzB1XEMXjahKJfVOawliIm7XdArwRjkTcPYDhraojv4bbtjFcC/ujae/5uPIijp2qTdRNdKnI8m/i9CseCodeHF+DLlWLwk6djgGsXLxRo80I7Lv3kZ2nlwhc2jgZrRpURUEXG/X5KjPK5IoSVZtg9Ioz+MrP0EXciwuY0rE2Crtm0jjfLlcxNOi3EFdep16lHRW0BkV5vLwtxuNpIg/QIjb0CNrlSknTqX8AC0i+j19L5lAfT69l/mUMHkrF+wGr+pfkx10x69RbKdmfydd7uzCqcz2UyO+okScDU3sUKV8Xgxftwisd5XBuuq9m/HRZRax/wO7a13NT4GfFjmf9ZRWUasWBEe78/LwYtO0pP6rF10fYMLYTapTMjywav2kK54L+aNZ7Hi6FxfLI2kRjd8+qPL4Rys2/xo9r8u3ydOTNzNLNWrwfgnS6ZwRjQkFeluaFMerEB35ck69PjmJCl3rwza1V7pldUaZWW8zbcwt6njgg/DQ6leHxzTvi7Dd+XAdhe3ozrxLBKnfbpdEeRN9eiapOLMyq8hyE8eOpeHscrbxM1Hks1WE5wnmQmpgQrB/XBeWLuMOMx1OyTL6NcfYzPze9CNfdoZRmOvble+GGwvUj6R2Wdy+hcU7uyqOhrzX//OAgxgrtRlF3zTbZ0CYnytXpgMUH7ujwyonBnjEpz0Ou4o2xPegTD+MkfMDi5jw946pYce0LD+BEPcGCLlXhYMjimNUagtsRPEzF7aXIZs7TSNNyoufulAHRuBfH0cmTh5nUxs4n0TxEN++Oj4IDT6tSv81Cq5xOpPLOyfNQAkuuvOMBqUm6/ydKu7DfcCw4QXhyZHy6g6HleH6zdcCRF3p8oWKfYWaLfPz3hPa9YFfciOFhIm8vopcvT4db1hJ9ESSPo03CW/zRK7/GOc6+0xHKgyXCr6F/SR7u2hUnX+t5WUQ/waSGqvZLeFf49MWdeB5GEARBSJBw/kEkC2Iz4FwIRq+5iptP/v6VtekRzu/PzIQ3FwAGVoUw6QDrfobun4pi/GWZWjgn4dafnWHLw0WBmjV3Qfj5+cHPpwAc1Z2jzKg2eDsiNM5NxLNjU1AmhyqOYJlyoKBPMXa+b0G42KZ0cg3Ms6PLyouanfC4MCzszjobtQeMRE//Qur4dm754VtcSEdIq2iBnOpOt2gFqk/AbW0lHn0HAxqwtFzcfkGb1rzDYe4Az6LFpXR8CrjBUpZOnkpDcU1HT+z1oYkoKM2CMzOzz4nCqusS0ynsCSfLlHCDnLWw6pZ2rzkG+8fUQWZVHFE45feRzi9eOC9sTVXHzdFy2SWNTnD0/c2oaGMmhft1nYnnOvpCCW+PoV0ezcGF/CP3scDkUCzt00ydX5UVzusEEyOWFwfn/CiuFV5v7GqESZ2pj9gwsjpL18gbi8+nkic/jMhHO9DKV3YdxnbIV7goy1uxosibI3NKmHCNFYaux3tZYQVt7oFKJTWvo1hRD9gbGUrnmNo7o5CvZrif3yAcC2UVKOLyXFR1E9M2hVe7DdCSGRocm+gDczEfJn4Ys/s5P8qJfozFrf1gos6rEbLmKYRi/De9PXLAVB1mgJyleuHUS+2eawwODm7EhIKZE+osv8WPaxJ1fQH83Fk6XlVG4L7OvvwzzCrrCUMxLWd/TD6rOSTw7c5m1C9iqc6POEDh4e3Ly8cX+d1kgi2TJ8bt1jFQ8OEC+tWyleLYOPfFJd2jYxIvDw2Fm42Yni0a/noAcrkUc3cdGuVnv+XWcCle8uNykl4cQ4fidil5EupCjT5rkDIckIh7W0bASx3O2hCfYuzZ1zAfLzhYmEpxclbugEta2jFNhOvuU4PlxdDQDKbis2yYD0PWBEGfQ8+rk/NRSnr2UqxYwykI4eEqvt5Yi5oFZM+DuSM8VfeluA88XWVlYFsYUw7KhxnicHF1Dymur2cOmBkL9d+hHNY8lA3UJHzEH114GlkbYe0t2bBf9C0MrMzEZhZXLymdWiNW4KnWfX13YjRy2QnPl6kVXAuo6ozcisEjWyZpQNTAoSgGH3zFz2QE7xiHIrz9K9B/p1Dr9RAXKIhCZylejlLtMjbAkfQeawYVZddpUA2rbuh/byc92oiahVl+PMvOEp4cGZ/vYVwdFmZQoA9OvtLxsMU+x8I2Bdizxi1v2YEIlI+PhV/FkMoszNDclLUFlvnRd90jHiE1r07PQyFZmmKdL1R5ATT8sj7cwsjqPF3vgTj3VsfLIuYpZjX3lKVjgPyVhuMeCWeCIAgNSDj/AG4Ff0DlYXvh1mYDcrXfiFztNqLXwrN4/0V5pPxHkpZwfhEwGLktmFAwyFYMc46lzBCG7NMvnF8fHQUnHmbn3RqHQ7U7Be8wv0F+JgZc/DHjgqqHmYigrcPhys81ca+NZdd0S47EsOPoXdwZRmJcw8yoPfIA1BLzcxDG1mZpMDNG3tbT8Fhn0cbi9NwOcOBi3q5MF5x4J5utlYSzrHNg645fN9/Vsev2Nxyc3BxZhE6lGM+han9c/JRSKN+uL0Y5PhhgblMGCy/q71U/2dAd9lIH0Aqtxh2QzaIl4eaijnDheXEqPxjXtSfto29icG02K2ztUAd7Q1M6PGkJ56S3h9Asryh6MiOHRwHkkWYfZcJZD8E7esDeQoybHe0nnVPYkfz93yKcv9xejTKZWBkZZCmCAVvu8xAtooIxv7kvrMV4BobI02AedEzUq4l/dwhtrZkwcmk9CY8UHtWvP0I4f7mB4XX4DL+hOcoPXIU3OhVUHM4u7ILs5uxZtfRqjK0amft7hPPHS3+gqgM739ClOhad1yMqEsPwe5/iyCQKPvOs6LDojmad+ZuEc9zLk+jmzQZQChcuBCtrUVgaagjn5PCL+LWahRTHxK4KNj1VUAVfL6JjwexSXNfvFs7MC8XFpROGDi0r/W1RbSiu6JrYjw7G7CZsIKJ06dLInoPN7msL53dnFqM8H7AzzlkXK67o8X+If4Yl3YrCSpwVtnBBt5X3dQj2WOzpU1Jqu139h+GBSsTpFc7R2De2sfSeMfUdjjsKs+dvT4yCi9AOm+Qqg+3ayl8iAYeGlGceF3aphTMSX2Jum1JS3ozt8mDCGV03IBEXJjdBVjENK1f036OVRlr8XcJZuJYlTdmAbd68+ZCN31sl4WxdrA9GCfdP/Nu2Rh9c1jUgkPAMM6uKS66s4OPjh7z52PKrDAvn+OfCO5zNNHvk84BTVlYPSTgTBEGkhoTzX+DJqy9oMukoHJquxoBlF/DuM+vqXXnwDnV/O4icgpAet+4a4hJ0jPD+YPQL5yTc+L073LkINHErj7VBmo6VSsI5KSkZCTERCH/zDl+/pb6OmNDDaFc4m9T5NsxTHWt57yvx/UUMKsrSNMjeDHuCFZSJSOIdDPLlwiJPDaxQ+TR+vpvSKRHMufESyV1bicBVbbkLpjU6zj6e0gGXCWdDG3eMOqwk9hJxaiYXhgaO6LvyCrT7ELERn/E+Qq+TqkT4hSXws2az6qV7zscLtaoQCjk5EbFRX/Du3RtE6BA2n67/joYFmbizcu+CC59TboyScE56fgDNva2lsHLjDiL47EJUkjwN0hbOj7cLQp8L53YTzyhswCYXzj74M/Bn9LDeYUUTF/YbZsUx+YCGA6IO3mNF61JMuGbOjR7bNbq3GsS+OYg2KuHcaiIeKIgAuXAu1GWX3hlDkUuziusQzgm4vLyP2p207LjDCuXKCN7eG9bcFbbqkLV4r/7Rv0E4x77Ewg5O0rkG5rWwI0TpikXisLYFS8eyRHPseyGLLxPOtq6DcZcf1kXkuTFwtxXznDHhnBB+Gl09REFsgspDt+L5tTXI68jiasw4f72NUb+w6zLP1hIHlVYXfD6PDj9IODt5jMCp23vQpaCYJwt0//Naqvt/b0tXqd4Y5m6GtZtXoQrfg0JDOEeHYFYrLmgtG2Lfa35cL1FY2Si3dF+sy7bDEV0NZ8RV9C4gLp/JhNrDD7A2LlFLON9mD8erw1PgI75HjH2w8JxyK3xrWR3JS8m2UEuc0ant44R6rCCcBRLur0L53OIzaoj81SfgqVY1jLu/Dg08jaR8erRYlfEvKGgI59rY/EThqXyzG/X4+yxDwjk5VBClTDQ7VxuJh8EX0aKMg/S/knC2LDsGJ6/uRQdn8f/s0vsnVZ1Z01oaKDT2bIxlW1agaXFj6dwMCedkoU7Vzi2FudcZjydPzqJhcfa8knAmCIJIDQnn7+DNxygMXH4Bzi2FztyEI4KATr2CVdCbOHg1FMX7BCBP+01YceAeEhIVpsD+IrqFcwxOzGqgXr9r5NUSx3UsAlUSzql4fRC17dkLOsWMkbfRaFx6n3J9H6+vQhnudli83zKda0+1OT+/CiwkseCFwauD2MFvTzCzFetoiDZgi7gyWZlvIbvQxITFd+8wC8EqPz+Zq3a2fINxS6GfJBJ+ZQXK8d/1G7Ia8slrOREvAnFk2xrMnzEN40YNRMf6FeGehXXo5KYpnFMTcXU+KmbVPEcU/2XaLsZTLXdxfcI59vlhtPNia6VLDdkruTi+PzEd/pLb+E8SznrNGA55iqNJt8FYvC9Qv7ulPj6eQTu+fjN7zZ64mA43zBf7+yGvJL5sUGvAPr2/mWHhzEVous1cJpyT3uHPwX48rAxWXEl7dj7u7Qn0cGbPmUXd0bilFh8/XzjHvT6GLtm1n/F0WqZSGLdf1m2XhLPMdThd5pBu4Zz88QTa5RcHiSxQqvefkjdA4pV5cJZmrrWEs8D7U/NRSr3EwhBuJRuiz7DRmDxlCqZOnZpiY3ugWFY2g+32F4WzjctgPEyKwrGpTOgYeQ3ElY+yBjHiIrrkFcWrNRpPvICE8AMonYe5yMuFc8zzA2jH13ln2GzKY9pR3Uo7/m0QZnesBhczQ3hWaIXRE8aiiR930c9UGC36jcSvHSsL7xELFK7aDXtvpDWz+wWb25WU6lW+CvP0rEdPWziLA05nJ9dknj+Wnui79jE/LpD4Gsv7svXghrY1sPWhgiuDPjSEc3rNKP3COe45ZjXzktzRbf37s7XK74+iTrG0hbNJ8dG4/yUCx+c0k2bdjUoOxqVwWZ35cgotC7LZ5trTAhH3ajOqe7Fz0y2cY4MxuUFe6T45VBLqqJiXNwdQ1ZvVWxLOBEEQqSHhnAFi45Mwb+cduLfbCD9BEF+8l74NkVbsvweHpmsEEb0Dx29qvNJ+GHLhPHS7ODMXh50DfZn7s2BZKgtC8aNuRZwh4fzuNDr55oOjo6NgDsikXodrgIKNxiKQC5DwC0vhw4Vz1WFrU2/Qo4ObfzaDpXROHvRffpMdTH6L1UPK8N/IiWlH0i6/b093qoVz7k5z8FSXcPYYhTv8sD4+Ba1Hbel3hc5Iv5V4re5EJCP40BRUyZeymZehhTVs7R3g4uGDZr0mYe3+03gY8g5f7m9DpSxM4KYlnL8F/omWJcRyFc0OFtxLwMDADEW7r4F8okBTOM9iQuLdcXTMK4pBI1QauhUf+H18fWTaTxbOJshk68DznWIODvbIbCkTYFkKYuwhvds6pebNUTTJyWY/8jUQOpnp6Bt/OD0O+SVxYY3q3QKgb8u67xXOxuaZ4aB1nXKzsTJhQlQunBPETr5qbX4tbLib9ghA0odLGOLNPBWMqg3DNfV02s8UzswJPSp0L5qbs4EfE8tMsNdxnXrNtTqmydfUyoSzoZElbHWdw83exhJG0sBZ2sJZmu98cxxtfZi4LdJzg3oDvqhL+oWzRNxbHF7SH2U9neGYxYJdv4J9/xpnLpyd++Gq+Ny/2YcmPuIza4ga8y+zeMITdmxEBWm22aZgY5wQf+f5VvjlTi2cI57sQCOV55CVUA+ddJejTstZB3OP6xbOby+tQUOvHDAzMoRHvSHYcuw0JjVjeTdwqIFpGw9izYSGkoDNnKMohv9xMZX3jQbvT6JJMfG5NUfFORf1eGikRzgLfLuJAYVZXizKdYVqhdGzw9P52l4TtFxyRkjtO9AQzqbIrKMNU5tdZphJ75S0hfNp6Vl9gXltC0qiOZP/CASpBj7fHEmfcPYZiuvCA5D86gDaSS7ixmi+7AJfBhGNvb/WlPb0yJSvPS6K77fHa1AlncL5gtj8JD7D9OaeUv/AtvIYPFQ9bC/3k3AmCIJQgITzd3D9cTgajDsMt7YbMPLPK4iI0v12uff8o+TKna3lOgxaflHtyv0zUAtnk9KYuP0UlvTy4e7KZsjXbCoeK4gOReGc8AWPLp7BmbMhkL/j5dxf1RYOpuKaTFPUGLBe6sAmvj6Ejnx2xLj0IFwOV1CMEm+wqHZuJvTty2P6SZVSSMTNVb+q10qXmnA4zU7Sg81dYCJ1wM3QdNLeFPEkCWcPKR1r1woIeKY0QgAEbujGy9ASXRae4dcfi5Oz2sFRPG5si6Yzzivm58vl+chlydaragvn5OgvuHPxIE49fKWncxmNAxMaw04cTDDKjGozzwulwUNkwrlUryUIeXMTXSR3VStU/HW9xs7PP104GxXB8isKyuLtIbTxZjPHxvkq4Peg9PbGHmNqKf6tcdd6+P26grqVSMChQTXYRnYmbmix/DY/nprvddUu0GFLyvp7HZya4qvDVTsaR2a25puCmaHDGt1iV867s7ORmw88FemxEKHqIvv5M87JXwIxpgL3mCjYF2fTHB+Mwf3jZ6V2MRWScOZrnF0G4Lr+CoV3x0YgZzrWOOduvQ6vX55DT1/Wwffttw3yoYg0hbNI9BNMaVOEi2ZD5K36Kw7fk+2qHHMNnQuxpSN/1VVbFM6qtd2XpjeBvXDM0r0hjgoNZfKTVfDPaSw8Q1nQfjPfqzl4i07hnPThGoardij3GYSr8odcJ1G4d+wsbgbrixiJHcMqwUJMz8oFvX7njvTartq3WAsqbhZX15kN5thVFsSgzlGpZNxe3gOuQvtrmMkXa+/pu+HpFM4CIQfHIocYzyAz2i84g5i455hYkrV9WaoNweU0y0EPGsK5BtbeSe05piZkK2p7i/GUXbUNiwzCxdBnWNWxgPR/1sojcUO2xCYjwvmSVHETcHZ6O8lrzCRHW5wTRHLCvTWo5crKo28AqzNJD1anSzgbFxuBq2FPsLwNG0DOXnMcAr/K8kfCmSAIQhESzn+B04Gv4d1jG3K0Woele+8iUfTPFnjzKQq9Fp5D1uZr0XTyUbz9/B1uZBlEEs6iWDQ1h5mJMdutVOik+3RdpZ551Ide4RwXhEH8czWGmYtgrNwFU0b0jWUonIV1qIp3nIbn0vnRODqrkXRM7Jh6tViIEH3KGxHYM6Q6rPiIfvEWczVnZr9cx6BabK2rsUlOdF/P3bh18PbsJHjbsE6/sXcr7Hkmn6aVbw5mAs+6Y/FIj+r9dGU+fLhLp6lPBxxSbYoWcQejmrC1j6aZa2J7iH4lkBB6AM0KpsxKy4Vz4svDaOPDjhs6lcUfqql6LUJ3DeI7oVvDr89utZiQC+ciFSqgWG434W9jFOvBBi7k/HzhnNbmYB+wsrE3G4TI5oex6kGRtHm+f5gkNMTfsSvRB8dfyO6nFnf+6I/cfNd4J+8uuKJvulnge4Xz924OlvB0L9pIa1yF+23jjfHH9M+8Rz/ehjq5+a7JtmUx67h8PenfsTlYIq6v7s82XRIsZ4NZejbjExGe3UE1uaeIAZwrDsIduX+8XDj/kM3BTJG1eG3UkNblGsCv9xq81RqTS0s4JwRvR+187NkxMHRHp5XX1ANSan7gGme5cMaH02iZX3SxdUSzcWswt29FqfztK83AU9U9eqJbOAPxuLS8Jxu0Eyxvs4V4prdN/YTt/arAjN8X9xojUzb/kviMHUKbK9VVUzu0WXY7ZfBOYVftb1eWooIk2gTRVbY/bms9Y/HP9qNNEbYBm8+wlPYqNekXzkh4hZW92BcQjIv2x/LZnZBV3ADSuhgm7te1v3o6+Qmbg5nkr4J6JVylv7P798ElbVGfIeHMKnby28No4iPWpcxoMGkDlvDPAFrXn6O+/wn3/0yXcDbzqoZ6xdku5K5VBkP7S2MknAmCIJQh4fwD2HwqGIW6bUOx3jtQY+R+5O+yBbV/O4hrj9LjoPxjUAtn4YXHzBQVxh5R6LikoDTjHHlnFUryjXZEy1ygLsYs3oRdu3Zh55bf0b9u4ZTPN1kWwtg9MkGQHI4dv9VgMxqSmSBvhfaYu3abdP6urasxskNFjW8o5284Hvd0da7DL6CXv2ytpJkb6vacgk1iOoKtnzMA/rlSPtFikrse1t3XSkgmnI2NzGAslZclSjbuj2VbeDoLhqKKJ+voi2bu0RjbNNbPxeDE9Naw4eHirHO5NqOwavNO6fyAbeswa2hr+GRloszeqwi87HlHsssshMg6ImH7x8Obz0aL5lyiMWasDZDS2bF2FjpUZrMCktn6YkVQirqTC2eV+fTYolPU/XThLIiP7tPWsnuqtp3YvH4VJvdtCM8sKXks1mYF0rfAQUU8bm3qxzrKPA07r1r4bTH/vR2bMXtoC+RR7bwtWOZCLXA4VNkv4e8WziIRQRvwSx7ZPbPPj5ZDF2AbL7O1C4ahuifbFEoys0IYvV37UzQy4WySBcV7zpWVeYptmd0V+bjHh4t3YyzakTrOrl0r0NHLWYdwFonEyTmtIO3KLOXHGHnKtsb0P9izvytgE6b1bwR3qa4wc/LvgYva2uNHCmcuDJiZo2S3ZXilJZpFlIRzxJU/UCEnCzMyz4sBu/VsOPezhLPAvTVNYS1b4mJg4IE58ml9vcJZ5CsOT20sa1NN4VG+PWat4vdlxwZM7l0fbmYp6Wev0h/XNARcFA5P/4V5KAnlWGvOWc2d0JU+RyXw+dJMFLVhA6UedSbifnwyPgadxt7Ni9G2DP9Of54GQlsmr2vath1jGhZknxDMlAsNx6zCrqM38EbHBpQiEbfWo4H8s4YGZijX6Xfd3gTp5ScIZ5U5leqOy7oaiu8QziK3lzZBdnmdsSyJBSdTBg3SK5yZGSKbIOpv6KrTJJwJgiAUIeH8g4iKScD0LbdQf+wh7Ln0DEnih53/Rk5PKc5dQUXLinbLLyuIHk2e7pmo/hakTdfVqdY4J0U+x4redeGkIczlZoKCdX/D8ae61Uf86xtY0KsS/1SQbvOs0xPb72oPz2uTiEcB01Etp+wbptpmWwgDFp2Ejk8vc+HMXLUdPdvg1KNHWKTahVnLLHLVwNQt12Wfj5KThKcnlqJqLvn3g+VmBp96A3Hymdjh/IY13dgMhEHeVtil9d2jxHdXMbOTn6wjrG2WqNBxCgI/yKfxhEu5twFlZGKyRL+NkO3NpsGrQ5NQkt+7XEP38KO6ebSlE/8eti1ajj2lUIfCsXZoRfXvp2VmOathyrZ7ymsjlYgMw55preAufVZLtzn4NsCcE8/Std4x9vV+NOfrRR2bjsV9JeF8cSbK803bcrdcq+EGr82RscxF08DAGyMDNLrXnFgEBsxCvfxsMEWnZSmInrP3yNbUy4nB/v51FZ+l7zKHkhh/WocM+RiEFUPrIpuG0NM060L1MfPAs9SztiLvz6FnFXat5g49cEFBOL84MJAPkFigdt99msI5aDXq5lb9pjGKdFwp22lck6gLs9SfpKvUXbXbchJCDk6Fl0romxbF9LMKng+fzqJ1Xib4ncq1hvore+lFuO7ulVg7Ze7QU/O6vwViuOz72IUGr4V83yc83ghvZzagVqj2BOj4Orag+W5h0YCacFLvg5DaMhdthHnHwjSXgSTH4OScunwJiiGqjN8PuaeuRMIHrGjP85elLv68kdqF+e3x0XDjv5Ov9ShMau/PBnP+iuXuiH3qDSm0icWRSa3Vn0bMlLcStoTo9z5JF0nhWNXPi/9+Bay8pn+gO+nhOlT2YL/t7jdNczDj012MrsavQTCr4v1wXecLSOD1IVQrxL544OrXB7fkwvndZQwox9MpMBAX5A167A309Er5bnrZAas0PC0S7v0Of/585Cs3R3NDtvc3MLQiT1ewLKUHI1DfiPqLvSjvyeptrrKDcZeEM0EQhAYknP8lJCXEIjoqClGCxWRw9+7kxHjE8HOj49LojCQlIDaaxY2KjkZcQgYHCJLF86P5+TGIT8zg+TIS42JZOmK+Y+P1rBOWIRPOtjkb4bBsr5yEWJan6Ji4tNPRIj42hpW9cD06iy8pkYV/+4bYeIXyFe+DRtnw47oQ0lSXY4zyPRPvL7tn0YhRTFSMG4doHjcuXqkeJQvZTSl/nSbkT/F6v5skxMWoykn8jYzVd4nkRMTx8ouOi9eccdMiWazzMeI1CeUn3GCl+pEYn1IX0lO35XU4Jj11WEAsd9Wz/sMsOhbxfKmJfmTlLpRFuu5tcpLwfPByjo5TLmep/utJW6zv0j1gz6giwv1idTgKsXEJvEzFT79F4JuU9yjEpXWpQr5V1xodK+Q7PTdGjni++rpT16/kpDgpLCoqFqmaa6FuxvDfTl+dEOpyeu9LUjyiI7+xuLH66nIyEuJ4ekK9SNB38YkxUpxvEW+xoYu31K7mrTQUtyJZGafXHu3hHk+5lIQz8GrPaBQTB86MrNF0pdKHzdKLcJ3C88ryoXCdIuKnA3n9i4lV1SmOVMdV1xOjfL+kdFLurcatl6UTHSOEaSWUnKR67uNS1xl1G/UT80cQBEGQcCb+Q2gJ5yNpfgeVIAiCUOYbAnr6SO1qviqj8CCDY2Whh2fBLy3h/PUKBtRgHgA56i1S/DoBQRAEQfwsSDgT/x1IOBMEQfxgIrG5XW6pXXX0G4i7GRTOz/ZNgoconG2bYecT5rv88sZRbFkdgBt37uD89gWo78HWThvnaYvDofpnpQmCIAjiZ0LCmfjvEB2IfvXySB2wzC4NNVy1CYIgiH8G0YG/owbfxE1lzn79cSaMRDNBEATx/wcJZ+K/Q3Iswl89w+PHjxEc8hpR6d09jSAIgvh7iYtAWPBjPA4OxRf5JloEQRAE8f8ECWeCIAiCIAiCIAiCUICEM0EQBEEQBEEQBEEoQMKZIAiCIAiCIAiCIBQg4UwQBEEQBEEQBEEQCpBwJgiCIAiCIAiCIAgFSDgTBEEQBEEQBEEQhAIknAmCIAiCIAiCIAhCARLOBEEQBEEQBEEQBKEACWeCIAiCIAiCIAiCUICEM0EQBEEQBEEQBEEoQMKZIAiCIAiCIAiCIBQg4UwQBEEQBEEQBEEQCpBwJgiCIAiCIAiCIAgFSDgTBEEQBEEQBEEQhAIknAmCIAiCIAiCIAhCARLOBEEQBEEQBEEQBKEACWeCIAiCIAiCIAiCUICEM0EQBEEQBEEQBEEoQMKZIAiCIAiCIAiCIBQg4UwQBEEQBEEQBEEQCpBwJgiCIAiCIAiCIAgFSDgTBEEQBEEQBEEQhAIknAmCIAiCIAiCIAhCARLOBEEQBEEQBEEQBKEACWeCIAiCIAiCIAiCUICEM0EQBEEQBEEQBEEoQMKZIAiCIAiCIAiCIBQg4UwQBEEQBEEQBEEQCpBwJgiCIAiCIAiCIAgFSDgTBEEQBEEQBEEQhAIknAmCIAiCIAiCIAhCARLOBEEQBEEQBEEQBKEACWeCIAiCIAiCIAiCUICEM0EQBEEQBEEQBEEoQMKZIAiCIAiCIAiCIBQg4UwQBEEQBEEQBEEQCpBwJgiCIAiCIAiCIAi9AP8HFSaJkAjuYQgAAAAASUVORK5CYII=;" vertex="1" parent="1">
          <mxGeometry x="-80" y="-110" width="974" height="337" as="geometry" />
        </mxCell>
        <mxCell id="z--PhjPwZr3AQKjl1RHm-5" value="" style="group" vertex="1" connectable="0" parent="1">
          <mxGeometry x="210" y="640" width="240" height="490" as="geometry" />
        </mxCell>
        <mxCell id="z--PhjPwZr3AQKjl1RHm-8" value="" style="group" vertex="1" connectable="0" parent="z--PhjPwZr3AQKjl1RHm-5">
          <mxGeometry width="240" height="410" as="geometry" />
        </mxCell>
        <mxCell id="z--PhjPwZr3AQKjl1RHm-2" value=":сервер банка" style="verticalAlign=top;align=left;spacingTop=8;spacingLeft=2;spacingRight=12;shape=cube;size=10;direction=south;fontStyle=4;html=1;whiteSpace=wrap;" vertex="1" parent="z--PhjPwZr3AQKjl1RHm-8">
          <mxGeometry width="240" height="410" as="geometry" />
        </mxCell>
        <mxCell id="z--PhjPwZr3AQKjl1RHm-3" value="«Artifact»&lt;br&gt;Bank_app.exe" style="html=1;dropTarget=0;whiteSpace=wrap;" vertex="1" parent="z--PhjPwZr3AQKjl1RHm-8">
          <mxGeometry x="30" y="79.3463888888889" width="180" height="114.26472222222222" as="geometry" />
        </mxCell>
        <mxCell id="z--PhjPwZr3AQKjl1RHm-4" value="" style="shape=module;jettyWidth=8;jettyHeight=4;" vertex="1" parent="z--PhjPwZr3AQKjl1RHm-3">
          <mxGeometry x="1" width="20" height="20" relative="1" as="geometry">
            <mxPoint x="-27" y="7" as="offset" />
          </mxGeometry>
        </mxCell>
        <mxCell id="z--PhjPwZr3AQKjl1RHm-32" value="«Artifact»&lt;br&gt;windows" style="html=1;dropTarget=0;whiteSpace=wrap;" vertex="1" parent="z--PhjPwZr3AQKjl1RHm-8">
          <mxGeometry x="30" y="250.55555555555557" width="180" height="114.26472222222222" as="geometry" />
        </mxCell>
        <mxCell id="z--PhjPwZr3AQKjl1RHm-33" value="" style="shape=module;jettyWidth=8;jettyHeight=4;" vertex="1" parent="z--PhjPwZr3AQKjl1RHm-32">
          <mxGeometry x="1" width="20" height="20" relative="1" as="geometry">
            <mxPoint x="-27" y="7" as="offset" />
          </mxGeometry>
        </mxCell>
        <mxCell id="z--PhjPwZr3AQKjl1RHm-9" value="" style="group" vertex="1" connectable="0" parent="1">
          <mxGeometry x="630" y="350" width="240" height="240" as="geometry" />
        </mxCell>
        <mxCell id="z--PhjPwZr3AQKjl1RHm-22" value="" style="group" vertex="1" connectable="0" parent="z--PhjPwZr3AQKjl1RHm-9">
          <mxGeometry y="-19.45945945945946" width="240" height="240" as="geometry" />
        </mxCell>
        <mxCell id="z--PhjPwZr3AQKjl1RHm-11" value=":банкомат" style="verticalAlign=top;align=left;spacingTop=8;spacingLeft=2;spacingRight=12;shape=cube;size=10;direction=south;fontStyle=4;html=1;whiteSpace=wrap;" vertex="1" parent="z--PhjPwZr3AQKjl1RHm-22">
          <mxGeometry width="240" height="240" as="geometry" />
        </mxCell>
        <mxCell id="z--PhjPwZr3AQKjl1RHm-12" value="«Artifact»&lt;br&gt;bankomat.exe" style="html=1;dropTarget=0;whiteSpace=wrap;" vertex="1" parent="z--PhjPwZr3AQKjl1RHm-22">
          <mxGeometry x="30" y="46.44" width="180" height="133.56" as="geometry" />
        </mxCell>
        <mxCell id="z--PhjPwZr3AQKjl1RHm-13" value="" style="shape=module;jettyWidth=8;jettyHeight=4;" vertex="1" parent="z--PhjPwZr3AQKjl1RHm-12">
          <mxGeometry x="1" width="20" height="20" relative="1" as="geometry">
            <mxPoint x="-27" y="7" as="offset" />
          </mxGeometry>
        </mxCell>
        <mxCell id="z--PhjPwZr3AQKjl1RHm-14" value="" style="group" vertex="1" connectable="0" parent="1">
          <mxGeometry x="210" y="320" width="240" height="190" as="geometry" />
        </mxCell>
        <mxCell id="z--PhjPwZr3AQKjl1RHm-15" value="" style="group" vertex="1" connectable="0" parent="z--PhjPwZr3AQKjl1RHm-14">
          <mxGeometry width="240" height="190" as="geometry" />
        </mxCell>
        <mxCell id="z--PhjPwZr3AQKjl1RHm-16" value=":сервер бд банка" style="verticalAlign=top;align=left;spacingTop=8;spacingLeft=2;spacingRight=12;shape=cube;size=10;direction=south;fontStyle=4;html=1;whiteSpace=wrap;" vertex="1" parent="z--PhjPwZr3AQKjl1RHm-15">
          <mxGeometry width="240" height="190" as="geometry" />
        </mxCell>
        <mxCell id="z--PhjPwZr3AQKjl1RHm-17" value="«Artifact»&lt;br&gt;СУБД&amp;nbsp;&lt;strong style=&quot;font-family: &amp;quot;YS Text&amp;quot;, -apple-system, BlinkMacSystemFont, Arial, Helvetica, sans-serif; text-align: left; background-color: rgb(255, 255, 255);&quot;&gt;&lt;font style=&quot;color: rgb(0, 0, 0);&quot;&gt;MySQL&lt;/font&gt;&lt;/strong&gt;" style="html=1;dropTarget=0;whiteSpace=wrap;" vertex="1" parent="z--PhjPwZr3AQKjl1RHm-15">
          <mxGeometry x="30" y="36.77" width="180" height="123.23" as="geometry" />
        </mxCell>
        <mxCell id="z--PhjPwZr3AQKjl1RHm-18" value="" style="shape=module;jettyWidth=8;jettyHeight=4;" vertex="1" parent="z--PhjPwZr3AQKjl1RHm-17">
          <mxGeometry x="1" width="20" height="20" relative="1" as="geometry">
            <mxPoint x="-27" y="7" as="offset" />
          </mxGeometry>
        </mxCell>
        <mxCell id="z--PhjPwZr3AQKjl1RHm-19" value="" style="endArrow=none;html=1;rounded=0;" edge="1" parent="z--PhjPwZr3AQKjl1RHm-15" target="z--PhjPwZr3AQKjl1RHm-11">
          <mxGeometry width="50" height="50" relative="1" as="geometry">
            <mxPoint x="230" y="60" as="sourcePoint" />
            <mxPoint x="280" y="10" as="targetPoint" />
          </mxGeometry>
        </mxCell>
        <mxCell id="z--PhjPwZr3AQKjl1RHm-24" value=":наминал в 50 рублей" style="verticalAlign=top;align=left;spacingTop=8;spacingLeft=2;spacingRight=12;shape=cube;size=10;direction=south;fontStyle=4;html=1;whiteSpace=wrap;" vertex="1" parent="1">
          <mxGeometry x="1020" y="480" width="160" height="60" as="geometry" />
        </mxCell>
        <mxCell id="z--PhjPwZr3AQKjl1RHm-25" value=":наминал в 100 рублей" style="verticalAlign=top;align=left;spacingTop=8;spacingLeft=2;spacingRight=12;shape=cube;size=10;direction=south;fontStyle=4;html=1;whiteSpace=wrap;" vertex="1" parent="1">
          <mxGeometry x="1041" y="570" width="160" height="60" as="geometry" />
        </mxCell>
        <mxCell id="z--PhjPwZr3AQKjl1RHm-26" value=":наминал в 1000 рублей" style="verticalAlign=top;align=left;spacingTop=8;spacingLeft=2;spacingRight=12;shape=cube;size=10;direction=south;fontStyle=4;html=1;whiteSpace=wrap;" vertex="1" parent="1">
          <mxGeometry x="1001" y="670" width="160" height="60" as="geometry" />
        </mxCell>
        <mxCell id="z--PhjPwZr3AQKjl1RHm-27" value="manifest" style="html=1;verticalAlign=bottom;endArrow=open;dashed=1;endSize=8;curved=0;rounded=0;" edge="1" parent="1" source="z--PhjPwZr3AQKjl1RHm-24" target="z--PhjPwZr3AQKjl1RHm-11">
          <mxGeometry relative="1" as="geometry">
            <mxPoint x="1010" y="510" as="sourcePoint" />
            <mxPoint x="930" y="510" as="targetPoint" />
          </mxGeometry>
        </mxCell>
        <mxCell id="z--PhjPwZr3AQKjl1RHm-28" value="manifest" style="html=1;verticalAlign=bottom;endArrow=open;dashed=1;endSize=8;curved=0;rounded=0;exitX=0.43;exitY=0.972;exitDx=0;exitDy=0;exitPerimeter=0;" edge="1" parent="1" source="z--PhjPwZr3AQKjl1RHm-25" target="z--PhjPwZr3AQKjl1RHm-11">
          <mxGeometry relative="1" as="geometry">
            <mxPoint x="1020" y="610" as="sourcePoint" />
            <mxPoint x="880" y="612" as="targetPoint" />
          </mxGeometry>
        </mxCell>
        <mxCell id="z--PhjPwZr3AQKjl1RHm-29" value="manifest" style="html=1;verticalAlign=bottom;endArrow=open;dashed=1;endSize=8;curved=0;rounded=0;exitX=0;exitY=0;exitDx=10;exitDy=160;exitPerimeter=0;" edge="1" parent="1" source="z--PhjPwZr3AQKjl1RHm-26" target="z--PhjPwZr3AQKjl1RHm-11">
          <mxGeometry relative="1" as="geometry">
            <mxPoint x="1020" y="620" as="sourcePoint" />
            <mxPoint x="880" y="622" as="targetPoint" />
          </mxGeometry>
        </mxCell>
        <mxCell id="z--PhjPwZr3AQKjl1RHm-30" value="" style="endArrow=none;html=1;rounded=0;exitX=0;exitY=0;exitDx=90;exitDy=0;exitPerimeter=0;" edge="1" parent="1" source="z--PhjPwZr3AQKjl1RHm-2" target="z--PhjPwZr3AQKjl1RHm-11">
          <mxGeometry width="50" height="50" relative="1" as="geometry">
            <mxPoint x="450" y="542" as="sourcePoint" />
            <mxPoint x="650" y="626" as="targetPoint" />
          </mxGeometry>
        </mxCell>
        <mxCell id="z--PhjPwZr3AQKjl1RHm-31" value="deploy" style="html=1;verticalAlign=bottom;endArrow=open;dashed=1;endSize=8;curved=0;rounded=0;entryX=0;entryY=0;entryDx=0;entryDy=115;entryPerimeter=0;exitX=0.947;exitY=0.479;exitDx=0;exitDy=0;exitPerimeter=0;" edge="1" parent="1" source="z--PhjPwZr3AQKjl1RHm-16" target="z--PhjPwZr3AQKjl1RHm-2">
          <mxGeometry relative="1" as="geometry">
            <mxPoint x="90" y="620" as="sourcePoint" />
            <mxPoint x="89.99999999999955" y="489.99999999999955" as="targetPoint" />
          </mxGeometry>
        </mxCell>
      </root>
    </mxGraphModel>
  </diagram>
</mxfile>
